<svg width="172" height="57" viewBox="0 0 172 57" fill="none" xmlns="http://www.w3.org/2000/svg">
<circle cx="26.5" cy="28.5" r="26.5" fill="#64FCD9"/>
<path d="M32.875 40.3281C32.875 40.5469 32.8594 40.7344 32.8281 40.8906C32.7969 41.0469 32.7656 41.2031 32.7344 41.3594C32.7031 41.4844 32.6562 41.5781 32.5938 41.6406C32.5312 41.7656 32.4688 41.8594 32.4062 41.9219C32.3438 41.9844 32.2812 42.0312 32.2188 42.0625C32.1562 42.125 32.0938 42.1719 32.0312 42.2031C32 42.2344 31.9531 42.25 31.8906 42.25C31.8594 42.25 31.8281 42.2656 31.7969 42.2969C31.4531 42.4531 31.1562 42.5781 30.9062 42.6719C30.6875 42.7344 30.4062 42.75 30.0625 42.7188C29.8125 42.6562 29.6094 42.625 29.4531 42.625C29.3281 42.5938 29.2031 42.5781 29.0781 42.5781C28.9219 42.5781 28.7656 42.5938 28.6094 42.625C28.4844 42.625 28.3438 42.625 28.1875 42.625C27.9375 42.5938 27.7812 42.5938 27.7188 42.625C27.6562 42.625 27.6094 42.625 27.5781 42.625C27.2344 42.5625 27 42.5156 26.875 42.4844C26.75 42.4531 26.6406 42.4062 26.5469 42.3438C26.5156 42.3438 26.4688 42.3281 26.4062 42.2969C26.375 42.2656 26.3281 42.2344 26.2656 42.2031C26.1719 42.1719 26.0938 42.125 26.0312 42.0625C25.9688 41.9688 25.9219 41.8594 25.8906 41.7344C25.8594 41.6406 25.8281 41.5625 25.7969 41.5C25.7656 41.4062 25.7656 41.3438 25.7969 41.3125C25.7031 41.2188 25.6719 41.1406 25.7031 41.0781C25.7656 41.0156 25.7656 40.8906 25.7031 40.7031C25.7656 40.6094 25.7656 40.4688 25.7031 40.2812C25.6719 40.0938 25.6406 39.8438 25.6094 39.5312C25.2344 39.875 24.9219 40.125 24.6719 40.2812C24.4219 40.4375 24.2031 40.5781 24.0156 40.7031C23.6406 40.8906 23.3594 41.1406 23.1719 41.4531C22.8281 41.4844 22.5938 41.5312 22.4688 41.5938C22.3438 41.6562 22.2188 41.75 22.0938 41.875C21.8438 41.9375 21.6406 41.9844 21.4844 42.0156C21.3594 42.0469 21.2656 42.0781 21.2031 42.1094C20.8281 42.2344 20.5938 42.3125 20.5 42.3438C20.4062 42.375 20.3281 42.3906 20.2656 42.3906C20.0781 42.4844 19.9531 42.5469 19.8906 42.5781C19.8281 42.5781 19.7656 42.5938 19.7031 42.625C19.5781 42.75 19.4062 42.8438 19.1875 42.9062C18.9375 42.9688 18.6562 43 18.3438 43H17.7812L17.125 42.8125C16.9688 42.75 16.8125 42.7031 16.6562 42.6719C16.5 42.6406 16.4062 42.625 16.375 42.625C16.2188 42.5625 16.1094 42.5312 16.0469 42.5312C16.0156 42.5312 15.9531 42.5312 15.8594 42.5312C15.6094 42.4062 15.4375 42.3438 15.3438 42.3438C15.25 42.3125 15.0938 42.2969 14.875 42.2969C14.75 42.1406 14.6406 42.0469 14.5469 42.0156C14.4531 41.9844 14.2344 41.9375 13.8906 41.875C13.7344 41.625 13.6406 41.4844 13.6094 41.4531C13.5781 41.3906 13.5469 41.3438 13.5156 41.3125C13.0469 40.9375 12.7188 40.625 12.5312 40.375C12.3438 40.125 12.2031 39.875 12.1094 39.625C12.0469 39.4375 11.9844 39.2188 11.9219 38.9688C11.8906 38.8438 11.8125 38.6875 11.6875 38.5C11.625 38.1875 11.5938 37.9531 11.5938 37.7969C11.5938 37.6094 11.6094 37.4531 11.6406 37.3281C11.6406 37.1719 11.6719 36.9688 11.7344 36.7188C11.7969 36.4375 11.875 36.2344 11.9688 36.1094C12.0625 35.9844 12.1406 35.7656 12.2031 35.4531C12.2656 35.1094 12.3438 34.8594 12.4375 34.7031C12.5 34.5469 12.6094 34.3594 12.7656 34.1406C12.9219 33.8906 13.0312 33.7031 13.0938 33.5781L13.3281 33.0625C13.4844 32.9062 13.5781 32.7969 13.6094 32.7344C13.6719 32.6406 13.7344 32.5156 13.7969 32.3594C14.1094 32.0156 14.3281 31.7969 14.4531 31.7031C14.5781 31.5781 14.6719 31.4844 14.7344 31.4219C14.9219 31.2344 15.0625 31.1094 15.1562 31.0469C15.25 30.9531 15.3594 30.8594 15.4844 30.7656C15.6094 30.6719 15.75 30.5781 15.9062 30.4844C16.1562 30.3281 16.3281 30.2188 16.4219 30.1562C16.5156 30.0938 16.625 30.0312 16.75 29.9688C17.0938 29.7188 17.3281 29.5625 17.4531 29.5C17.6094 29.4062 17.7969 29.2812 18.0156 29.125C18.1719 29.0625 18.2812 29.0312 18.3438 29.0312C18.4062 29.0312 18.4688 29.0156 18.5312 28.9844C18.9062 28.8906 19.1875 28.7969 19.375 28.7031C19.5625 28.6094 19.75 28.4844 19.9375 28.3281C20.5312 28.2344 21.0312 28.125 21.4375 28C21.7812 27.9375 22 27.9062 22.0938 27.9062C22.2188 27.9062 22.3125 27.8906 22.375 27.8594C22.4688 27.8281 22.5625 27.8125 22.6562 27.8125C22.7812 27.7812 22.9688 27.75 23.2188 27.7188C23.375 27.7812 23.5312 27.8281 23.6875 27.8594C23.8438 27.8906 23.9844 27.9219 24.1094 27.9531C24.2344 27.9844 24.375 28 24.5312 28L24.3438 26.4062C24.2812 26.1562 24.2188 25.9688 24.1562 25.8438C24.0938 25.75 24.0312 25.6562 23.9688 25.5625C23.9062 25.4375 23.8438 25.3438 23.7812 25.2812C23.6562 25.0938 23.4688 24.9531 23.2188 24.8594C22.9688 24.7344 22.7812 24.6562 22.6562 24.625C22.5 24.5938 22.2031 24.5938 21.7656 24.625C21.5469 24.5625 21.3906 24.5469 21.2969 24.5781C21.2031 24.5781 21.125 24.5781 21.0625 24.5781C20.8125 24.6094 20.6406 24.625 20.5469 24.625C20.4844 24.625 20.4219 24.625 20.3594 24.625C20.1406 24.5938 20 24.5781 19.9375 24.5781C19.875 24.5781 19.8125 24.5781 19.75 24.5781C18.6875 24.8281 18.1406 24.9688 18.1094 25C17.9844 25.125 17.8438 25.2188 17.6875 25.2812C17.5625 25.3125 17.4688 25.3438 17.4062 25.375C17.3125 25.4375 17.2188 25.5 17.125 25.5625C17.0625 25.5938 17 25.6406 16.9375 25.7031C16.8438 25.7656 16.7812 25.8125 16.75 25.8438L16.0469 26.4531C15.9844 26.5156 15.9375 26.5625 15.9062 26.5938C15.875 26.5938 15.8438 26.5938 15.8125 26.5938L15.6719 26.6875C15.5156 26.8438 15.3594 27.0156 15.2031 27.2031C15.1719 27.2344 15.125 27.2812 15.0625 27.3438C15 27.375 14.9375 27.4219 14.875 27.4844L14.5938 27.7188L14.2188 28.1406L13.75 28.4219C13.6562 28.4219 13.5469 28.4219 13.4219 28.4219H12.8125C12.5625 28.2969 12.2969 28.125 12.0156 27.9062C11.7656 27.6875 11.625 27.375 11.5938 26.9688C11.5938 26.625 11.6719 26.2656 11.8281 25.8906C11.9844 25.4844 12.1719 25.1719 12.3906 24.9531C12.5469 24.6719 12.7656 24.375 13.0469 24.0625C13.3281 23.75 13.6094 23.5312 13.8906 23.4062C13.9844 23.375 14.0938 23.2969 14.2188 23.1719C14.375 23.0156 14.4844 22.9219 14.5469 22.8906C14.6094 22.8281 14.6719 22.7344 14.7344 22.6094C14.9219 22.5156 15.0469 22.4531 15.1094 22.4219C15.1719 22.3594 15.25 22.2656 15.3438 22.1406C15.8125 21.9844 16.0938 21.8906 16.1875 21.8594C16.3125 21.7969 16.4062 21.7656 16.4688 21.7656C16.7188 21.6406 16.8906 21.5625 16.9844 21.5312C17.0781 21.5 17.1719 21.4688 17.2656 21.4375C17.4844 21.3125 17.7031 21.2188 17.9219 21.1562C18.0781 21.125 18.1719 21.0938 18.2031 21.0625C18.2656 21.0312 18.3438 20.9844 18.4375 20.9219C18.5312 20.9531 18.6406 20.9688 18.7656 20.9688C18.8906 20.9688 19.0156 20.9688 19.1406 20.9688C19.5469 20.875 19.7969 20.8125 19.8906 20.7812C20.0156 20.75 20.1094 20.7188 20.1719 20.6875C20.2344 20.6875 20.3125 20.6719 20.4062 20.6406C20.5312 20.6094 20.6719 20.6094 20.8281 20.6406C21.0469 20.7031 21.1875 20.75 21.25 20.7812C21.3438 20.7812 21.4219 20.7812 21.4844 20.7812C21.5469 20.75 21.6094 20.7344 21.6719 20.7344C21.7344 20.7031 21.8438 20.6562 22 20.5938C22.1875 20.6562 22.3125 20.6875 22.375 20.6875C22.4375 20.6875 22.5 20.6875 22.5625 20.6875C22.875 20.75 23.0469 20.7812 23.0781 20.7812C23.1094 20.7812 23.1406 20.7812 23.1719 20.7812C23.2344 20.7812 23.3906 20.7656 23.6406 20.7344C23.9219 20.7969 24.0938 20.8438 24.1562 20.875C24.25 20.9062 24.3125 20.9375 24.3438 20.9688C24.7188 21.125 24.9531 21.2188 25.0469 21.25C25.1406 21.2812 25.2188 21.3125 25.2812 21.3438C25.4062 21.375 25.625 21.4688 25.9375 21.625C26.0938 21.75 26.2031 21.8281 26.2656 21.8594C26.3281 21.8594 26.4219 21.8906 26.5469 21.9531C26.7031 22.2344 26.8281 22.375 26.9219 22.375C27.0156 22.375 27.0781 22.375 27.1094 22.375C27.2344 22.4375 27.3125 22.5312 27.3438 22.6562C27.375 22.7812 27.4844 22.8906 27.6719 22.9844C27.7344 23.2656 27.7812 23.4531 27.8125 23.5469C27.8438 23.6094 27.875 23.6719 27.9062 23.7344C27.9688 23.8281 28.0156 23.9219 28.0469 24.0156C28.0781 24.0781 28.125 24.1562 28.1875 24.25C28.2812 24.4062 28.3438 24.5312 28.375 24.625C28.4375 24.7188 28.5156 24.8125 28.6094 24.9062C28.7031 25.125 28.7656 25.3281 28.7969 25.5156C28.8594 25.7031 28.9219 25.875 28.9844 26.0312C29.0469 26.2812 29.0781 26.4688 29.0781 26.5938C29.1094 26.6875 29.1719 26.8438 29.2656 27.0625C29.2656 27.375 29.2969 27.5938 29.3594 27.7188C29.3594 27.7812 29.375 27.875 29.4062 28C29.4375 28.0938 29.4531 28.1719 29.4531 28.2344C29.4531 28.2969 29.4688 28.4531 29.5 28.7031C29.5312 28.9531 29.5625 29.1406 29.5938 29.2656C29.625 29.3281 29.6406 29.4219 29.6406 29.5469C29.6406 29.6406 29.6562 29.75 29.6875 29.875C29.6875 30 29.7031 30.1406 29.7344 30.2969C29.7344 30.5156 29.75 30.7031 29.7812 30.8594C29.7812 31.0156 29.7812 31.1562 29.7812 31.2812C29.8125 31.4062 29.8281 31.5 29.8281 31.5625C29.8594 31.8125 29.8594 31.9844 29.8281 32.0781C29.7969 32.1406 29.7812 32.2031 29.7812 32.2656C29.8125 32.5469 29.8281 32.75 29.8281 32.875C29.8281 33 29.8281 33.1094 29.8281 33.2031C29.8281 33.7344 29.8281 34.1875 29.8281 34.5625C29.8594 34.9375 29.8906 35.3281 29.9219 35.7344C29.9219 35.9531 29.9062 36.1719 29.875 36.3906C29.8438 36.5781 29.8281 36.7656 29.8281 36.9531C29.8281 37.2344 29.8125 37.5156 29.7812 37.7969C29.7812 38.0469 29.7969 38.3125 29.8281 38.5938C30.0781 38.625 30.25 38.6406 30.3438 38.6406C30.4375 38.6406 30.5156 38.6406 30.5781 38.6406C30.8281 38.6094 31.0312 38.6406 31.1875 38.7344C31.375 38.7656 31.5156 38.7812 31.6094 38.7812C31.7031 38.7812 31.8281 38.7969 31.9844 38.8281C32.2031 38.9844 32.3281 39.0938 32.3594 39.1562C32.4219 39.1875 32.4844 39.2344 32.5469 39.2969L32.875 40.3281ZM25.5625 33.7188C25.5625 33.6562 25.5469 33.5625 25.5156 33.4375C25.5156 33.3125 25.5156 33.1719 25.5156 33.0156V32.4531C25.4531 32.2656 25.3906 32.0938 25.3281 31.9375C25.2031 31.625 25.125 31.4375 25.0938 31.375C25 31.3438 24.8438 31.3281 24.625 31.3281C24.4062 31.2969 24.1875 31.2969 23.9688 31.3281C23.75 31.3281 23.5312 31.3438 23.3125 31.375C23.125 31.375 23 31.375 22.9375 31.375C22.5938 31.4062 22.3281 31.4219 22.1406 31.4219C21.9531 31.4219 21.7969 31.4531 21.6719 31.5156L20.7344 31.8906C20.4844 31.9844 20.2969 32.0312 20.1719 32.0312C19.9531 32.125 19.8125 32.2031 19.75 32.2656C19.6875 32.2969 19.625 32.3281 19.5625 32.3594C19.2812 32.5469 18.9219 32.75 18.4844 32.9688C18.2344 33.1562 18.0469 33.3125 17.9219 33.4375C17.7969 33.5312 17.6562 33.6094 17.5 33.6719C17.25 33.8281 17.0781 33.9531 16.9844 34.0469C16.9219 34.1094 16.8594 34.1719 16.7969 34.2344C16.7344 34.3281 16.6562 34.4219 16.5625 34.5156C16.5 34.6094 16.4219 34.7031 16.3281 34.7969C16.1719 35.1719 16.0156 35.5 15.8594 35.7812C15.7031 36.0312 15.5469 36.5312 15.3906 37.2812C15.4219 37.4062 15.4688 37.5781 15.5312 37.7969C15.625 37.9844 15.7031 38.1562 15.7656 38.3125C15.9219 38.4375 16.0469 38.5312 16.1406 38.5938C16.2344 38.6562 16.3125 38.7188 16.375 38.7812C16.5312 38.8438 16.6406 38.8906 16.7031 38.9219C16.7969 38.9531 16.875 38.9844 16.9375 39.0156C17.1875 39.0781 17.3594 39.1562 17.4531 39.25H17.5469C17.5781 39.25 17.5938 39.2656 17.5938 39.2969C17.625 39.2969 17.6562 39.2969 17.6875 39.2969C17.75 39.3281 17.8281 39.3594 17.9219 39.3906C17.9844 39.3906 18.0625 39.375 18.1562 39.3438C18.2812 39.2812 18.375 39.25 18.4375 39.25C18.6875 39.1875 18.8594 39.1562 18.9531 39.1562C19.0469 39.1562 19.125 39.1562 19.1875 39.1562C19.4375 39.0625 19.5938 39 19.6562 38.9688C19.75 38.9375 19.8281 38.9062 19.8906 38.875C20.2344 38.7812 20.4531 38.7188 20.5469 38.6875C20.6719 38.6562 20.7656 38.6094 20.8281 38.5469C20.9531 38.4844 21.0625 38.4219 21.1562 38.3594C21.2812 38.2969 21.4062 38.2344 21.5312 38.1719C21.6562 38.0781 21.7812 38 21.9062 37.9375C22.0312 37.8438 22.1719 37.75 22.3281 37.6562C22.3906 37.625 22.4531 37.5938 22.5156 37.5625C22.5781 37.5 22.6406 37.4531 22.7031 37.4219C22.7969 37.3906 22.875 37.3594 22.9375 37.3281L23.125 37.1406C23.2188 37.0469 23.3281 36.9688 23.4531 36.9062C23.5469 36.8125 23.6875 36.7031 23.875 36.5781C24.0625 36.4219 24.1875 36.3125 24.25 36.25C24.3125 36.1562 24.375 36.0781 24.4375 36.0156C24.6875 35.8594 24.8438 35.75 24.9062 35.6875C25 35.625 25.0781 35.5781 25.1406 35.5469L25.4688 35.125C25.4062 34.7812 25.3906 34.5 25.4219 34.2812C25.4844 34.0625 25.5312 33.875 25.5625 33.7188ZM59.6875 25.5156C59.5938 25.8906 59.5469 26.0781 59.5469 26.0781C59.4219 26.4219 59.3438 26.6406 59.3125 26.7344C59.2812 26.7969 59.2344 26.8438 59.1719 26.875C58.9219 27.0625 58.75 27.1875 58.6562 27.25C58.5938 27.2812 58.5312 27.3125 58.4688 27.3438L58.0469 27.4844C57.9531 27.5156 57.875 27.5312 57.8125 27.5312L57.25 27.5781C57.0625 27.5469 56.9062 27.5312 56.7812 27.5312C56.4688 27.5312 56.2188 27.5781 56.0312 27.6719H55.4219C55.2969 27.6719 55.2031 27.6875 55.1406 27.7188C55.0781 27.875 55.0156 28.0156 54.9531 28.1406C54.8594 28.3906 54.7188 28.6094 54.5312 28.7969C54.3438 29.2344 54.25 29.5781 54.25 29.8281C54.125 30.1406 54.0156 30.375 53.9219 30.5312C53.8281 30.8125 53.7656 31 53.7344 31.0938C53.7031 31.1562 53.6719 31.2031 53.6406 31.2344C53.4844 31.5781 53.375 31.7969 53.3125 31.8906C53.25 31.9531 53.1875 32 53.125 32.0312C53.125 32.1875 53.0938 32.3594 53.0312 32.5469C52.9688 32.7969 52.8906 33.0312 52.7969 33.25C52.7344 33.4688 52.625 33.6562 52.4688 33.8125C52.4375 33.9375 52.3906 34.0938 52.3281 34.2812C52.2969 34.4375 52.2188 34.5781 52.0938 34.7031C52.0938 34.7344 52.0781 34.8125 52.0469 34.9375C52.0156 35.0312 51.9688 35.1562 51.9062 35.3125C51.8438 35.4688 51.7812 35.6406 51.7188 35.8281C51.6875 36.0156 51.6406 36.1719 51.5781 36.2969C51.5156 36.4219 51.4531 36.5625 51.3906 36.7188C51.3281 36.8438 51.25 36.9375 51.1562 37C51.0312 37.2812 50.9375 37.4844 50.875 37.6094C50.8438 37.7344 50.7969 37.8281 50.7344 37.8906C50.7031 37.9531 50.6719 38.0312 50.6406 38.125C50.6094 38.2188 50.5625 38.3125 50.5 38.4062C50.4375 38.6562 50.3906 38.8281 50.3594 38.9219C50.3281 38.9844 50.2969 39.0469 50.2656 39.1094C50.2344 39.4219 50.0938 39.6719 49.8438 39.8594C49.7188 40.1094 49.6406 40.2656 49.6094 40.3281C49.6094 40.3906 49.625 40.4531 49.6562 40.5156C49.5625 40.6719 49.4844 40.7812 49.4219 40.8438C49.3906 40.875 49.3594 40.9219 49.3281 40.9844C49.2031 41.3594 49.1094 41.6094 49.0469 41.7344C49.0156 41.8594 48.9844 41.9531 48.9531 42.0156C48.7969 42.3594 48.6875 42.5625 48.625 42.625C48.5938 42.6875 48.5625 42.7344 48.5312 42.7656C48.3438 43.0156 48.1719 43.2031 48.0156 43.3281C47.8906 43.4531 47.7188 43.5469 47.5 43.6094C46.8438 43.8906 46.3906 44.0312 46.1406 44.0312C45.9531 44 45.8125 43.9844 45.7188 43.9844C45.625 43.9531 45.5469 43.9219 45.4844 43.8906C45.2969 43.8594 45.1562 43.7969 45.0625 43.7031C45 43.6094 44.8906 43.4844 44.7344 43.3281C44.5781 43.1094 44.4688 42.9688 44.4062 42.9062C44.3438 42.8438 44.2969 42.7969 44.2656 42.7656L43.6562 42.0156C43.5938 41.9219 43.5 41.75 43.375 41.5C43.3125 41.375 43.2656 41.2656 43.2344 41.1719L42.7656 40.2344C42.7031 40.0781 42.625 39.9375 42.5312 39.8125C42.4688 39.6875 42.4062 39.5625 42.3438 39.4375C42.2812 39.3125 42.25 39.2188 42.25 39.1562C42.125 38.9688 42.0469 38.7969 42.0156 38.6406C42.0156 38.4844 42.0156 38.375 42.0156 38.3125C41.9219 38.25 41.8438 38.2031 41.7812 38.1719C41.75 38.1406 41.6719 38.0781 41.5469 37.9844C41.4844 37.6406 41.4219 37.4688 41.3594 37.4688C41.2969 37.4062 41.2344 37.3594 41.1719 37.3281C41.1094 37.2656 41.0469 37.1719 40.9844 37.0469C40.8594 36.7031 40.7969 36.5312 40.7969 36.5312L40.4219 36.0156L40.1406 35.4062C39.9531 35.1562 39.8281 34.9844 39.7656 34.8906C39.7031 34.7969 39.6562 34.7188 39.625 34.6562C39.5938 34.5625 39.5469 34.4688 39.4844 34.375C39.3594 34.1875 39.3125 34.0781 39.3438 34.0469C39.2812 33.8906 39.2188 33.7812 39.1562 33.7188C39.0938 33.6562 38.9844 33.5469 38.8281 33.3906C38.8281 33.2656 38.7812 33.1406 38.6875 33.0156C38.625 32.8906 38.5625 32.7656 38.5 32.6406C38.4062 32.5156 38.3125 32.3906 38.2188 32.2656C38.1562 32.1719 38.1094 32.0625 38.0781 31.9375C38.0156 31.75 37.9844 31.625 37.9844 31.5625C37.7969 31.2188 37.625 30.9688 37.4688 30.8125C37.3438 30.6562 37.2656 30.5 37.2344 30.3438C37.1406 30.3125 37.0469 30.1562 36.9531 29.875C36.8906 29.75 36.8281 29.6094 36.7656 29.4531H36.1094C35.9219 29.4531 35.7031 29.4688 35.4531 29.5C35.2344 29.5 35.0469 29.5312 34.8906 29.5938C34.7344 29.5625 34.625 29.5469 34.5625 29.5469C34.5 29.5469 34.4375 29.5312 34.375 29.5C34.0625 29.4375 33.8438 29.375 33.7188 29.3125C33.5938 29.2188 33.5 29.1406 33.4375 29.0781C33.4062 29.0781 33.3438 29.0312 33.25 28.9375L33.1562 28.8438C33.0938 28.7812 33.0312 28.7031 32.9688 28.6094C32.8438 28.4844 32.7812 28.3906 32.7812 28.3281L32.5 27.625C32.4375 27.3125 32.4375 27.0781 32.5 26.9219C32.5625 26.6719 32.6719 26.4375 32.8281 26.2188C32.9844 26 33.2031 25.8594 33.4844 25.7969C33.7031 25.7344 33.8438 25.7031 33.9062 25.7031C34 25.6719 34.0781 25.6562 34.1406 25.6562C34.5781 25.5938 34.9062 25.5469 35.125 25.5156C35.3438 25.4844 35.5469 25.4688 35.7344 25.4688C35.9844 25.4688 36.1562 25.4844 36.25 25.5156C36.375 25.5156 36.5 25.5156 36.625 25.5156C36.75 25.5156 36.875 25.5312 37 25.5625C37.25 25.5 37.4219 25.4531 37.5156 25.4219C37.6406 25.3906 37.7969 25.3438 37.9844 25.2812C38.2969 25.2812 38.5312 25.25 38.6875 25.1875C38.9062 25.25 39.0625 25.2812 39.1562 25.2812C39.25 25.2812 39.3281 25.2969 39.3906 25.3281C39.5469 25.2969 39.6719 25.2656 39.7656 25.2344C39.8906 25.2031 39.9844 25.1719 40.0469 25.1406C40.1406 25.1094 40.2188 25.0938 40.2812 25.0938C40.375 25.125 40.4844 25.1406 40.6094 25.1406C40.7344 25.1719 40.9062 25.1875 41.125 25.1875C41.2188 25.1875 41.3125 25.1875 41.4062 25.1875C41.5312 25.1875 41.6562 25.2031 41.7812 25.2344C42 25.1719 42.2031 25.1562 42.3906 25.1875C42.5781 25.2188 42.75 25.2656 42.9062 25.3281C43.0312 25.3594 43.1875 25.4375 43.375 25.5625C43.6875 25.7188 43.875 25.8438 43.9375 25.9375C44.0312 26.0312 44.1094 26.125 44.1719 26.2188C44.2344 26.4375 44.2812 26.6094 44.3125 26.7344C44.3438 26.8594 44.3594 26.9688 44.3594 27.0625V27.2969L44.4062 27.9531C44.3438 28.0469 44.2656 28.1562 44.1719 28.2812C44.0156 28.5 43.8125 28.6562 43.5625 28.75C43.2812 28.875 43.0625 28.9375 42.9062 28.9375C42.6562 28.9688 42.4531 29.0156 42.2969 29.0781C42.2031 29.1094 42.125 29.125 42.0625 29.125L40.9375 29.1719L41.0312 29.4531C41.0938 29.6406 41.125 29.75 41.125 29.7812L41.5469 30.2969L41.8281 30.9062C41.9844 31.125 42.0625 31.2656 42.0625 31.3281C42.0938 31.3594 42.125 31.3906 42.1562 31.4219L42.4375 31.9375C42.5625 32.0312 42.6406 32.125 42.6719 32.2188C42.7344 32.3125 42.7812 32.3906 42.8125 32.4531C43 32.7031 43.0938 32.875 43.0938 32.9688C43.125 33.0625 43.1562 33.125 43.1875 33.1562C43.4375 33.4688 43.5781 33.6406 43.6094 33.6719C43.7344 33.9219 43.7969 34.0781 43.7969 34.1406C43.8281 34.2031 43.8594 34.25 43.8906 34.2812L44.4531 34.75L44.6406 35.4531C44.6406 35.4531 44.7031 35.5156 44.8281 35.6406C44.8594 35.7031 44.9062 35.7656 44.9688 35.8281C45 35.8594 45.0469 35.8906 45.1094 35.9219C45.2031 36.0156 45.25 36.0938 45.25 36.1562C45.3125 36.2812 45.375 36.3906 45.4375 36.4844C45.5 36.5781 45.5625 36.6562 45.625 36.7188C45.6875 36.8125 45.75 36.875 45.8125 36.9062L46.4688 37.9375C46.5312 37.75 46.6094 37.5781 46.7031 37.4219C46.7656 37.2656 46.8125 37.125 46.8438 37C46.9062 36.8438 46.9531 36.7188 46.9844 36.625C47.0469 36.4688 47.125 36.3125 47.2188 36.1562C47.3125 36 47.3906 35.8438 47.4531 35.6875V35.125C47.6406 34.875 47.75 34.7188 47.7812 34.6562C47.8438 34.5938 47.9062 34.5312 47.9688 34.4688C48.0312 34.2188 48.0781 34.0625 48.1094 34C48.1406 33.9062 48.1719 33.8281 48.2031 33.7656C48.2656 33.7031 48.2969 33.625 48.2969 33.5312C48.3281 33.4062 48.3438 33.1875 48.3438 32.875C48.5 32.625 48.5781 32.4531 48.5781 32.3594C48.6094 32.2344 48.6406 32.125 48.6719 32.0312C48.6719 31.9375 48.7031 31.8125 48.7656 31.6562C48.8594 31.5 48.9844 31.3906 49.1406 31.3281C49.2031 31.2344 49.25 31.125 49.2812 31C49.3125 30.8438 49.3594 30.6875 49.4219 30.5312C49.4844 30.375 49.5312 30.2031 49.5625 30.0156L49.8906 29.3125C49.9531 29.2188 50 29.125 50.0312 29.0312C50.0625 28.9062 50.125 28.7969 50.2188 28.7031C50.2188 28.6406 50.2344 28.5625 50.2656 28.4688C50.3281 28.3438 50.3906 28.2188 50.4531 28.0938C50.5156 27.9688 50.5781 27.8281 50.6406 27.6719L50.1719 27.7656C50.0469 27.7969 49.9219 27.8125 49.7969 27.8125C49.6719 27.8125 49.5781 27.8125 49.5156 27.8125C49.0781 27.75 48.8281 27.7031 48.7656 27.6719C48.7031 27.6406 48.5938 27.5938 48.4375 27.5312C48.2812 27.4688 48.1875 27.4375 48.1562 27.4375C48.125 27.4375 48.0469 27.4375 47.9219 27.4375C47.7344 27.3125 47.5938 27.2188 47.5 27.1562C47.4375 27.125 47.3906 27.1094 47.3594 27.1094C47.2969 27.0469 47.2344 26.9688 47.1719 26.875C47.1094 26.8125 47.0469 26.7656 46.9844 26.7344C46.9531 26.6719 46.9219 26.6094 46.8906 26.5469C46.8281 26.4219 46.7656 26.2812 46.7031 26.125C46.6719 25.9375 46.625 25.7812 46.5625 25.6562C46.5 25.4375 46.5156 25.2344 46.6094 25.0469C46.7344 24.8594 46.8438 24.7188 46.9375 24.625C47.2812 24.3125 47.5 24.1406 47.5938 24.1094C47.6875 24.0469 47.7656 24.0156 47.8281 24.0156C48.1719 23.9531 48.3906 23.9219 48.4844 23.9219C48.5781 23.8906 48.6562 23.875 48.7188 23.875C49.1562 23.8438 49.4531 23.8281 49.6094 23.8281C49.7969 23.8281 49.9531 23.8438 50.0781 23.875C50.1406 23.875 50.2031 23.875 50.2656 23.875C50.3594 23.8438 50.5 23.7812 50.6875 23.6875C50.875 23.7812 51 23.8438 51.0625 23.875C51.125 23.875 51.2188 23.8594 51.3438 23.8281C51.5 23.7969 51.6562 23.7812 51.8125 23.7812C52 23.75 52.1719 23.7656 52.3281 23.8281C52.5781 23.7656 52.875 23.7344 53.2188 23.7344C53.5938 23.7344 53.8438 23.7344 53.9688 23.7344C54.125 23.7656 54.2812 23.7812 54.4375 23.7812C54.5 23.7812 54.5312 23.7969 54.5312 23.8281C54.8438 23.7344 55.0625 23.6875 55.1875 23.6875C55.5 23.6562 55.7188 23.6406 55.8438 23.6406C55.9688 23.6094 56.0938 23.5938 56.2188 23.5938C56.4688 23.5 56.7188 23.4844 56.9688 23.5469C57.1875 23.5469 57.3281 23.5469 57.3906 23.5469C57.4844 23.5156 57.5781 23.5 57.6719 23.5C57.8281 23.4688 57.9844 23.4844 58.1406 23.5469C58.2969 23.5781 58.4219 23.625 58.5156 23.6875C58.5781 23.7188 58.6562 23.7656 58.75 23.8281C58.8438 23.8594 59 23.9219 59.2188 24.0156C59.3125 24.2344 59.375 24.3906 59.4062 24.4844C59.4688 24.5781 59.5156 24.6562 59.5469 24.7188C59.6094 24.8438 59.6562 24.9688 59.6875 25.0938C59.7188 25.2188 59.7188 25.3594 59.6875 25.5156ZM83.4062 40.7031C83.3438 40.9219 83.3125 41.0625 83.3125 41.125C83.3125 41.1562 83.2969 41.1875 83.2656 41.2188C83.2656 41.25 83.2031 41.3281 83.0781 41.4531L82.8438 41.6875C82.8125 41.75 82.7812 41.7969 82.75 41.8281L82.6094 41.9688C82.3906 42.125 82.2031 42.25 82.0469 42.3438C81.8906 42.4375 81.7031 42.5156 81.4844 42.5781L80.9219 42.7188C80.7656 42.7188 80.6406 42.7188 80.5469 42.7188C80.4844 42.6875 80.4219 42.6562 80.3594 42.625C79.9844 42.5938 79.6875 42.5938 79.4688 42.625C79.3438 42.625 79.1875 42.625 79 42.625C78.8438 42.625 78.6875 42.5938 78.5312 42.5312C78.2812 42.5312 78.0625 42.5469 77.875 42.5781C77.7188 42.6094 77.5625 42.625 77.4062 42.625C77.2812 42.625 77.1406 42.6094 76.9844 42.5781C76.8594 42.5469 76.7188 42.5 76.5625 42.4375C76.4062 42.375 76.25 42.3125 76.0938 42.25C76 42.125 75.9219 42 75.8594 41.875C75.7969 41.7812 75.7344 41.6875 75.6719 41.5938C75.6406 41.5 75.625 41.4219 75.625 41.3594C75.4688 40.8594 75.3594 40.5 75.2969 40.2812C75.2656 40.0312 75.25 39.8281 75.25 39.6719C75.0312 39.8281 74.8906 39.9375 74.8281 40C74.7656 40.0312 74.7031 40.0781 74.6406 40.1406L73.8906 40.2812C73.7344 40.4375 73.5938 40.5625 73.4688 40.6562C73.375 40.7188 73.1719 40.8125 72.8594 40.9375C72.6406 41.0625 72.4688 41.1562 72.3438 41.2188C72.2188 41.25 72.1094 41.2969 72.0156 41.3594C71.8281 41.4531 71.6875 41.5625 71.5938 41.6875C71.3438 41.75 71.1406 41.8125 70.9844 41.875C70.8594 41.9062 70.75 41.9219 70.6562 41.9219C70.5312 41.9531 70.4219 41.9844 70.3281 42.0156C70.2656 42.0156 70.1875 42.0156 70.0938 42.0156C70.0312 42.0469 69.9688 42.0781 69.9062 42.1094C69.8438 42.1094 69.7812 42.1406 69.7188 42.2031C69.625 42.2656 69.5625 42.3125 69.5312 42.3438L68.9688 42.4375C68.8125 42.4688 68.6719 42.5 68.5469 42.5312C68.4219 42.5312 68.3438 42.5312 68.3125 42.5312C67.9688 42.5312 67.7031 42.5469 67.5156 42.5781C67.3594 42.6094 67.1875 42.5156 67 42.2969C66.6562 42.2344 66.4219 42.2031 66.2969 42.2031C66.1719 42.1719 66.0625 42.1406 65.9688 42.1094C65.9062 42.0781 65.8281 42.0469 65.7344 42.0156C65.6406 41.9844 65.5312 41.9375 65.4062 41.875C65.2812 41.8125 65.1719 41.7656 65.0781 41.7344C64.9844 41.7031 64.875 41.6562 64.75 41.5938C64.625 41.5938 64.4688 41.5312 64.2812 41.4062C64.1562 41.3438 64.0625 41.2812 64 41.2188C63.9375 41.1562 63.8594 41.0938 63.7656 41.0312C63.7031 40.9688 63.625 40.9219 63.5312 40.8906C63.4688 40.8594 63.4219 40.8125 63.3906 40.75C63.2969 40.6875 63.2031 40.625 63.1094 40.5625C63.0156 40.5 62.9219 40.4219 62.8281 40.3281C62.7031 40.2656 62.5469 40.1719 62.3594 40.0469C61.9844 39.7969 61.7969 39.6719 61.7969 39.6719C61.6406 39.5781 61.5156 39.4844 61.4219 39.3906C61.3281 39.2656 61.2344 39.1562 61.1406 39.0625C61.0781 39 61 38.9219 60.9062 38.8281C60.8125 38.7031 60.6875 38.5625 60.5312 38.4062C60.5 38.2188 60.4688 38.0781 60.4375 37.9844C60.4062 37.8594 60.3281 37.7031 60.2031 37.5156C60.1719 37.2656 60.1406 37.1094 60.1094 37.0469C60.1094 36.9531 60.0938 36.875 60.0625 36.8125C60.0312 36.7188 60 36.6094 59.9688 36.4844C59.9375 36.3281 59.9375 36.1719 59.9688 36.0156C59.9062 35.9219 59.8594 35.8281 59.8281 35.7344C59.8281 35.6406 59.8125 35.5625 59.7812 35.5C59.75 35.4062 59.7344 35.3281 59.7344 35.2656C59.7344 35.1719 59.7188 35.0781 59.6875 34.9844C59.6875 34.9219 59.6719 34.8594 59.6406 34.7969C59.6406 34.7344 59.6094 34.625 59.5469 34.4688C59.6094 34.2812 59.6406 34.1719 59.6406 34.1406C59.6406 34.0781 59.625 34.0156 59.5938 33.9531C59.6562 33.4844 59.6719 33.1719 59.6406 33.0156C59.6406 32.8281 59.6094 32.6406 59.5469 32.4531C59.6094 32.2969 59.6562 32.2031 59.6875 32.1719C59.75 32.1094 59.7812 32.0469 59.7812 31.9844C59.7812 31.7344 59.7812 31.5625 59.7812 31.4688C59.8125 31.375 59.8594 31.2969 59.9219 31.2344C59.9531 31.1719 59.9844 31.0938 60.0156 31C60.0469 30.875 60.0781 30.7656 60.1094 30.6719C60.1406 30.5469 60.1719 30.4375 60.2031 30.3438L60.3906 29.9688C60.5156 29.7188 60.6094 29.5625 60.6719 29.5C60.7344 29.2812 60.7812 29.1094 60.8125 28.9844C60.875 28.8594 60.9375 28.7031 61 28.5156C61.0938 28.3281 61.1875 28.1406 61.2812 27.9531C61.4062 27.7344 61.5625 27.5469 61.75 27.3906C61.875 27.1094 61.9844 26.9062 62.0781 26.7812C62.2031 26.625 62.3281 26.4688 62.4531 26.3125C62.6094 26.125 62.7031 26 62.7344 25.9375C62.7656 25.875 62.7812 25.7969 62.7812 25.7031C63 25.5469 63.1406 25.4375 63.2031 25.375C63.2969 25.2812 63.3906 25.1406 63.4844 24.9531C63.7656 24.7656 63.9688 24.625 64.0938 24.5312C64.25 24.4375 64.4062 24.375 64.5625 24.3438C64.6562 24.25 64.7656 24.1562 64.8906 24.0625C65.0156 23.9688 65.1406 23.8906 65.2656 23.8281C65.6406 23.6406 65.875 23.5312 65.9688 23.5C66.0938 23.4688 66.1875 23.4375 66.25 23.4062C66.625 23.2812 66.9375 23.1875 67.1875 23.125C67.4375 23.0625 67.7031 23.0312 67.9844 23.0312C68.0469 23 68.1094 22.9844 68.1719 22.9844C68.2344 22.9531 68.3594 22.9062 68.5469 22.8438C68.7344 22.9062 68.8594 22.9375 68.9219 22.9375C69.0156 22.9062 69.0938 22.8906 69.1562 22.8906C69.6875 22.8906 70.0625 22.8906 70.2812 22.8906C70.5 22.8594 70.7188 22.8594 70.9375 22.8906C71.2188 22.9844 71.4688 23.0781 71.6875 23.1719C71.7188 23.2031 71.8594 23.2188 72.1094 23.2188C72.2344 23.2188 72.3438 23.2344 72.4375 23.2656L73 23.4062C73.2812 23.5312 73.5312 23.6562 73.75 23.7812C74 23.875 74.1875 24 74.3125 24.1562C74.375 23.875 74.3906 23.6562 74.3594 23.5C74.3281 23.3125 74.3125 23.1719 74.3125 23.0781C74.25 22.7344 74.2031 22.5 74.1719 22.375C74.1719 22.25 74.1719 22.125 74.1719 22C74.1719 21.75 74.1562 21.5156 74.125 21.2969C74.125 21.0469 74.1094 20.8281 74.0781 20.6406C73.9219 20.4531 73.875 20.2656 73.9375 20.0781C74 19.8281 74.0312 19.6719 74.0312 19.6094C74.0312 19.5469 74.0156 19.4844 73.9844 19.4219C73.7969 18.9844 73.6719 18.6094 73.6094 18.2969C73.5781 17.9844 73.5469 17.6875 73.5156 17.4062C73.3281 17.375 73.1562 17.3906 73 17.4531C72.8438 17.4844 72.7031 17.5 72.5781 17.5C72.4219 17.5 72.25 17.4688 72.0625 17.4062C71.6562 17.4062 71.4062 17.4062 71.3125 17.4062C71.2188 17.375 71.1406 17.3438 71.0781 17.3125C70.7031 17.2812 70.4375 17.2656 70.2812 17.2656C70.125 17.2344 69.9688 17.1875 69.8125 17.125C69.4688 16.9688 69.2344 16.8281 69.1094 16.7031C68.9844 16.5781 68.8906 16.4844 68.8281 16.4219L68.7812 15.4844C68.8125 15.3906 68.875 15.2969 68.9688 15.2031C69.0938 15.0156 69.2656 14.875 69.4844 14.7812C69.7344 14.6563 69.8906 14.5781 69.9531 14.5469C70.0156 14.4844 70.0938 14.375 70.1875 14.2188C70.3438 14.2188 70.4531 14.2188 70.5156 14.2188C70.5781 14.1875 70.7031 14.0938 70.8906 13.9375C71.1406 13.9375 71.2812 13.9375 71.3125 13.9375C71.375 13.9063 71.4375 13.875 71.5 13.8438C71.8438 13.7812 72.0469 13.75 72.1094 13.75C72.2031 13.7188 72.2812 13.6875 72.3438 13.6562C72.5 13.625 72.625 13.5937 72.7188 13.5625C72.8125 13.5313 72.9375 13.5156 73.0938 13.5156C73.5 13.5156 73.7969 13.4844 73.9844 13.4219C74.1406 13.4531 74.2656 13.4688 74.3594 13.4688C74.4844 13.4688 74.5938 13.4688 74.6875 13.4688C75.0625 13.5313 75.3125 13.5781 75.4375 13.6094C75.5938 13.6094 75.7188 13.6406 75.8125 13.7031C75.9062 13.7344 76 13.7812 76.0938 13.8438C76.2188 13.875 76.3906 13.9219 76.6094 13.9844C76.8594 14.3594 77.0312 14.7187 77.125 15.0625C77.2188 15.4063 77.2969 15.75 77.3594 16.0938C77.4219 16.4062 77.4531 16.7188 77.4531 17.0312C77.4844 17.3438 77.5156 17.625 77.5469 17.875C77.6094 18.0312 77.6719 18.2031 77.7344 18.3906C77.7969 18.5156 77.8281 18.6094 77.8281 18.6719C77.8281 18.7031 77.8438 18.7969 77.875 18.9531C77.9062 19.2656 77.9219 19.4844 77.9219 19.6094C77.9531 19.7344 77.9844 19.8281 78.0156 19.8906C78.0469 19.9844 78.0625 20.0781 78.0625 20.1719C78.0625 20.2344 78.0781 20.3281 78.1094 20.4531V21.0156C78.1094 21.1719 78.0938 21.3281 78.0625 21.4844C78.0625 21.6094 78.0781 21.75 78.1094 21.9062C78.1719 22.2188 78.2031 22.5 78.2031 22.75C78.2344 22.9688 78.2344 23.1875 78.2031 23.4062C78.1406 23.7188 78.1094 23.9219 78.1094 24.0156C78.1094 24.0781 78.1094 24.125 78.1094 24.1562C78.1719 24.4375 78.2188 24.6406 78.25 24.7656C78.2812 24.8906 78.2969 25 78.2969 25.0938C78.2656 25.25 78.25 25.3594 78.25 25.4219C78.2812 25.4844 78.2969 25.5469 78.2969 25.6094C78.2344 25.9219 78.1875 26.1719 78.1562 26.3594C78.1562 26.5156 78.1562 26.6719 78.1562 26.8281C78.2188 27.1094 78.25 27.2969 78.25 27.3906C78.2812 27.4531 78.3281 27.5469 78.3906 27.6719C78.3594 27.9531 78.3438 28.125 78.3438 28.1875C78.3438 28.25 78.3594 28.2812 78.3906 28.2812C78.4219 28.625 78.4375 28.8906 78.4375 29.0781C78.4688 29.2344 78.4688 29.3906 78.4375 29.5469C78.4375 29.7656 78.4219 29.9531 78.3906 30.1094C78.3906 30.2344 78.375 30.3594 78.3438 30.4844C78.375 30.7656 78.3906 30.9844 78.3906 31.1406C78.4219 31.2656 78.4219 31.375 78.3906 31.4688C78.4531 31.7188 78.4844 31.8906 78.4844 31.9844C78.5156 32.0781 78.5312 32.1562 78.5312 32.2188C78.5312 32.5 78.5469 32.7344 78.5781 32.9219C78.6094 33.0781 78.625 33.2812 78.625 33.5312C78.6875 33.7812 78.7188 33.9375 78.7188 34C78.7188 34.0625 78.7188 34.1094 78.7188 34.1406V34.8438C78.6875 35.0938 78.6875 35.2656 78.7188 35.3594C78.7812 35.4219 78.8438 35.5 78.9062 35.5938V36.3438C79.0312 36.8438 79.1094 37.2969 79.1406 37.7031C79.2031 38.0781 79.25 38.4375 79.2812 38.7812C79.7188 38.625 80.1406 38.5625 80.5469 38.5938C80.9844 38.625 81.3281 38.6875 81.5781 38.7812C81.7031 38.8125 81.9219 38.8906 82.2344 39.0156C82.3906 39.0781 82.5469 39.1562 82.7031 39.25C82.8594 39.3438 83.0625 39.5156 83.3125 39.7656C83.3438 40.0781 83.3594 40.2969 83.3594 40.4219C83.3906 40.5469 83.4062 40.6406 83.4062 40.7031ZM74.6875 34.6562C74.6562 34.1562 74.6406 33.75 74.6406 33.4375C74.6406 33.125 74.6094 32.8438 74.5469 32.5938C74.4844 32.4375 74.4531 32.3125 74.4531 32.2188C74.4531 32.125 74.4531 32.0312 74.4531 31.9375C74.4844 31.6875 74.5 31.5312 74.5 31.4688C74.5 31.4062 74.5156 31.3594 74.5469 31.3281C74.4531 31.0781 74.4375 30.7812 74.5 30.4375C74.4688 30.2812 74.4531 30.1406 74.4531 30.0156C74.4531 29.8594 74.4531 29.7344 74.4531 29.6406C74.3906 29.5156 74.3438 29.4062 74.3125 29.3125C74.3125 29.1875 74.2969 29.0938 74.2656 29.0312C74.2344 28.9375 74.2031 28.8594 74.1719 28.7969L73.7031 27.6719C73.5469 27.5781 73.4062 27.4844 73.2812 27.3906C73.1562 27.3281 73.0469 27.2656 72.9531 27.2031C72.8594 27.1406 72.7969 27.0938 72.7656 27.0625C72.4844 26.9375 72.3125 26.8438 72.25 26.7812C72.1875 26.7188 72.1094 26.6562 72.0156 26.5938L71.2188 26.1719C71.1875 26.1719 71.1094 26.1875 70.9844 26.2188C70.8594 26.2188 70.7188 26.1875 70.5625 26.125C70.4062 26.0938 70.2656 26.0781 70.1406 26.0781C70.0469 26.0469 69.9688 26.0312 69.9062 26.0312C69.6875 26.0625 69.5312 26.0938 69.4375 26.125C69.3438 26.125 69.2344 26.125 69.1094 26.125C68.6719 26.125 68.3594 26.1562 68.1719 26.2188C68.1406 26.2188 67.9688 26.3594 67.6562 26.6406C67.5312 26.7656 67.3906 26.8438 67.2344 26.875C67.0781 26.9062 66.9219 26.9688 66.7656 27.0625C66.6719 27.125 66.5938 27.2188 66.5312 27.3438C66.4688 27.4688 66.4062 27.5469 66.3438 27.5781C66.0938 27.7344 65.9219 27.8438 65.8281 27.9062C65.7656 27.9688 65.7031 28.0312 65.6406 28.0938C65.5469 28.2188 65.4531 28.3438 65.3594 28.4688C65.2656 28.5625 65.1562 28.6406 65.0312 28.7031C64.875 28.8906 64.7656 29.0156 64.7031 29.0781C64.6406 29.1406 64.5781 29.2344 64.5156 29.3594L64.1406 29.7344C63.9844 30.0469 63.8594 30.3125 63.7656 30.5312C63.7031 30.7188 63.6406 30.8906 63.5781 31.0469C63.4844 31.4219 63.4219 31.875 63.3906 32.4062C63.3281 32.6562 63.2969 32.7969 63.2969 32.8281C63.2969 32.8594 63.2969 32.8906 63.2969 32.9219V33.5781L63.25 34.4688L63.2969 34.9844C63.3594 35.0781 63.4219 35.1719 63.4844 35.2656C63.5469 35.3594 63.5938 35.4844 63.625 35.6406C63.6875 35.8906 63.7188 36.0625 63.7188 36.1562C63.7812 36.3125 63.8281 36.4219 63.8594 36.4844C63.9219 36.5469 63.9844 36.625 64.0469 36.7188C64.1094 36.8125 64.1719 36.9062 64.2344 37C64.3281 37.0625 64.5312 37.1562 64.8438 37.2812C65 37.4688 65.1094 37.6094 65.1719 37.7031C65.2656 37.7656 65.3438 37.8281 65.4062 37.8906C65.6562 37.9844 65.8438 38.0469 65.9688 38.0781C66.125 38.1094 66.3125 38.1406 66.5312 38.1719C66.625 38.3281 66.7188 38.4219 66.8125 38.4531C66.9375 38.4844 67.0312 38.5 67.0938 38.5C67.1875 38.5 67.2812 38.5156 67.375 38.5469C67.4688 38.5469 67.5625 38.5469 67.6562 38.5469C68.0312 38.4531 68.2812 38.3906 68.4062 38.3594C68.75 38.2969 69.0312 38.2031 69.25 38.0781C69.5938 38.1406 69.8438 38.1406 70 38.0781C70.1875 37.9844 70.2969 37.9219 70.3281 37.8906C70.3906 37.8594 70.4375 37.8281 70.4688 37.7969L70.7969 37.6094L70.9844 37.5156C71.1094 37.4531 71.1875 37.4219 71.2188 37.4219C71.2812 37.3594 71.375 37.2969 71.5 37.2344C71.625 37.1719 71.7656 37.1406 71.9219 37.1406C71.9844 37.0781 72.0625 37.0312 72.1562 37C72.25 36.9375 72.3594 36.8906 72.4844 36.8594C72.6406 36.7656 72.75 36.6875 72.8125 36.625C72.875 36.5625 72.9531 36.4531 73.0469 36.2969C73.1719 36.2031 73.2656 36.125 73.3281 36.0625C73.3906 35.9688 73.4688 35.8906 73.5625 35.8281C73.7812 35.6719 73.9375 35.5469 74.0312 35.4531C74.1562 35.3281 74.25 35.2188 74.3125 35.125C74.5 34.9688 74.6094 34.875 74.6406 34.8438C74.6719 34.7812 74.6875 34.7188 74.6875 34.6562ZM109.516 25.5156C109.422 25.8906 109.375 26.0781 109.375 26.0781C109.25 26.4219 109.172 26.6406 109.141 26.7344C109.109 26.7969 109.062 26.8438 109 26.875C108.75 27.0625 108.578 27.1875 108.484 27.25C108.422 27.2812 108.359 27.3125 108.297 27.3438L107.875 27.4844C107.781 27.5156 107.703 27.5312 107.641 27.5312L107.078 27.5781C106.891 27.5469 106.734 27.5312 106.609 27.5312C106.297 27.5312 106.047 27.5781 105.859 27.6719H105.25C105.125 27.6719 105.031 27.6875 104.969 27.7188C104.906 27.875 104.844 28.0156 104.781 28.1406C104.688 28.3906 104.547 28.6094 104.359 28.7969C104.172 29.2344 104.078 29.5781 104.078 29.8281C103.953 30.1406 103.844 30.375 103.75 30.5312C103.656 30.8125 103.594 31 103.562 31.0938C103.531 31.1562 103.5 31.2031 103.469 31.2344C103.312 31.5781 103.203 31.7969 103.141 31.8906C103.078 31.9531 103.016 32 102.953 32.0312C102.953 32.1875 102.922 32.3594 102.859 32.5469C102.797 32.7969 102.719 33.0312 102.625 33.25C102.562 33.4688 102.453 33.6562 102.297 33.8125C102.266 33.9375 102.219 34.0938 102.156 34.2812C102.125 34.4375 102.047 34.5781 101.922 34.7031C101.922 34.7344 101.906 34.8125 101.875 34.9375C101.844 35.0312 101.797 35.1562 101.734 35.3125C101.672 35.4688 101.609 35.6406 101.547 35.8281C101.516 36.0156 101.469 36.1719 101.406 36.2969C101.344 36.4219 101.281 36.5625 101.219 36.7188C101.156 36.8438 101.078 36.9375 100.984 37C100.859 37.2812 100.766 37.4844 100.703 37.6094C100.672 37.7344 100.625 37.8281 100.562 37.8906C100.531 37.9531 100.5 38.0312 100.469 38.125C100.438 38.2188 100.391 38.3125 100.328 38.4062C100.266 38.6562 100.219 38.8281 100.188 38.9219C100.156 38.9844 100.125 39.0469 100.094 39.1094C100.062 39.4219 99.9219 39.6719 99.6719 39.8594C99.5469 40.1094 99.4688 40.2656 99.4375 40.3281C99.4375 40.3906 99.4531 40.4531 99.4844 40.5156C99.3906 40.6719 99.3125 40.7812 99.25 40.8438C99.2188 40.875 99.1875 40.9219 99.1562 40.9844C99.0312 41.3594 98.9375 41.6094 98.875 41.7344C98.8438 41.8594 98.8125 41.9531 98.7812 42.0156C98.625 42.3594 98.5156 42.5625 98.4531 42.625C98.4219 42.6875 98.3906 42.7344 98.3594 42.7656C98.1719 43.0156 98 43.2031 97.8438 43.3281C97.7188 43.4531 97.5469 43.5469 97.3281 43.6094C96.6719 43.8906 96.2188 44.0312 95.9688 44.0312C95.7812 44 95.6406 43.9844 95.5469 43.9844C95.4531 43.9531 95.375 43.9219 95.3125 43.8906C95.125 43.8594 94.9844 43.7969 94.8906 43.7031C94.8281 43.6094 94.7188 43.4844 94.5625 43.3281C94.4062 43.1094 94.2969 42.9688 94.2344 42.9062C94.1719 42.8438 94.125 42.7969 94.0938 42.7656L93.4844 42.0156C93.4219 41.9219 93.3281 41.75 93.2031 41.5C93.1406 41.375 93.0938 41.2656 93.0625 41.1719L92.5938 40.2344C92.5312 40.0781 92.4531 39.9375 92.3594 39.8125C92.2969 39.6875 92.2344 39.5625 92.1719 39.4375C92.1094 39.3125 92.0781 39.2188 92.0781 39.1562C91.9531 38.9688 91.875 38.7969 91.8438 38.6406C91.8438 38.4844 91.8438 38.375 91.8438 38.3125C91.75 38.25 91.6719 38.2031 91.6094 38.1719C91.5781 38.1406 91.5 38.0781 91.375 37.9844C91.3125 37.6406 91.25 37.4688 91.1875 37.4688C91.125 37.4062 91.0625 37.3594 91 37.3281C90.9375 37.2656 90.875 37.1719 90.8125 37.0469C90.6875 36.7031 90.625 36.5312 90.625 36.5312L90.25 36.0156L89.9688 35.4062C89.7812 35.1562 89.6562 34.9844 89.5938 34.8906C89.5312 34.7969 89.4844 34.7188 89.4531 34.6562C89.4219 34.5625 89.375 34.4688 89.3125 34.375C89.1875 34.1875 89.1406 34.0781 89.1719 34.0469C89.1094 33.8906 89.0469 33.7812 88.9844 33.7188C88.9219 33.6562 88.8125 33.5469 88.6562 33.3906C88.6562 33.2656 88.6094 33.1406 88.5156 33.0156C88.4531 32.8906 88.3906 32.7656 88.3281 32.6406C88.2344 32.5156 88.1406 32.3906 88.0469 32.2656C87.9844 32.1719 87.9375 32.0625 87.9062 31.9375C87.8438 31.75 87.8125 31.625 87.8125 31.5625C87.625 31.2188 87.4531 30.9688 87.2969 30.8125C87.1719 30.6562 87.0938 30.5 87.0625 30.3438C86.9688 30.3125 86.875 30.1562 86.7812 29.875C86.7188 29.75 86.6562 29.6094 86.5938 29.4531H85.9375C85.75 29.4531 85.5312 29.4688 85.2812 29.5C85.0625 29.5 84.875 29.5312 84.7188 29.5938C84.5625 29.5625 84.4531 29.5469 84.3906 29.5469C84.3281 29.5469 84.2656 29.5312 84.2031 29.5C83.8906 29.4375 83.6719 29.375 83.5469 29.3125C83.4219 29.2188 83.3281 29.1406 83.2656 29.0781C83.2344 29.0781 83.1719 29.0312 83.0781 28.9375L82.9844 28.8438C82.9219 28.7812 82.8594 28.7031 82.7969 28.6094C82.6719 28.4844 82.6094 28.3906 82.6094 28.3281L82.3281 27.625C82.2656 27.3125 82.2656 27.0781 82.3281 26.9219C82.3906 26.6719 82.5 26.4375 82.6562 26.2188C82.8125 26 83.0312 25.8594 83.3125 25.7969C83.5312 25.7344 83.6719 25.7031 83.7344 25.7031C83.8281 25.6719 83.9062 25.6562 83.9688 25.6562C84.4062 25.5938 84.7344 25.5469 84.9531 25.5156C85.1719 25.4844 85.375 25.4688 85.5625 25.4688C85.8125 25.4688 85.9844 25.4844 86.0781 25.5156C86.2031 25.5156 86.3281 25.5156 86.4531 25.5156C86.5781 25.5156 86.7031 25.5312 86.8281 25.5625C87.0781 25.5 87.25 25.4531 87.3438 25.4219C87.4688 25.3906 87.625 25.3438 87.8125 25.2812C88.125 25.2812 88.3594 25.25 88.5156 25.1875C88.7344 25.25 88.8906 25.2812 88.9844 25.2812C89.0781 25.2812 89.1562 25.2969 89.2188 25.3281C89.375 25.2969 89.5 25.2656 89.5938 25.2344C89.7188 25.2031 89.8125 25.1719 89.875 25.1406C89.9688 25.1094 90.0469 25.0938 90.1094 25.0938C90.2031 25.125 90.3125 25.1406 90.4375 25.1406C90.5625 25.1719 90.7344 25.1875 90.9531 25.1875C91.0469 25.1875 91.1406 25.1875 91.2344 25.1875C91.3594 25.1875 91.4844 25.2031 91.6094 25.2344C91.8281 25.1719 92.0312 25.1562 92.2188 25.1875C92.4062 25.2188 92.5781 25.2656 92.7344 25.3281C92.8594 25.3594 93.0156 25.4375 93.2031 25.5625C93.5156 25.7188 93.7031 25.8438 93.7656 25.9375C93.8594 26.0312 93.9375 26.125 94 26.2188C94.0625 26.4375 94.1094 26.6094 94.1406 26.7344C94.1719 26.8594 94.1875 26.9688 94.1875 27.0625V27.2969L94.2344 27.9531C94.1719 28.0469 94.0938 28.1562 94 28.2812C93.8438 28.5 93.6406 28.6562 93.3906 28.75C93.1094 28.875 92.8906 28.9375 92.7344 28.9375C92.4844 28.9688 92.2812 29.0156 92.125 29.0781C92.0312 29.1094 91.9531 29.125 91.8906 29.125L90.7656 29.1719L90.8594 29.4531C90.9219 29.6406 90.9531 29.75 90.9531 29.7812L91.375 30.2969L91.6562 30.9062C91.8125 31.125 91.8906 31.2656 91.8906 31.3281C91.9219 31.3594 91.9531 31.3906 91.9844 31.4219L92.2656 31.9375C92.3906 32.0312 92.4688 32.125 92.5 32.2188C92.5625 32.3125 92.6094 32.3906 92.6406 32.4531C92.8281 32.7031 92.9219 32.875 92.9219 32.9688C92.9531 33.0625 92.9844 33.125 93.0156 33.1562C93.2656 33.4688 93.4062 33.6406 93.4375 33.6719C93.5625 33.9219 93.625 34.0781 93.625 34.1406C93.6562 34.2031 93.6875 34.25 93.7188 34.2812L94.2812 34.75L94.4688 35.4531C94.4688 35.4531 94.5312 35.5156 94.6562 35.6406C94.6875 35.7031 94.7344 35.7656 94.7969 35.8281C94.8281 35.8594 94.875 35.8906 94.9375 35.9219C95.0312 36.0156 95.0781 36.0938 95.0781 36.1562C95.1406 36.2812 95.2031 36.3906 95.2656 36.4844C95.3281 36.5781 95.3906 36.6562 95.4531 36.7188C95.5156 36.8125 95.5781 36.875 95.6406 36.9062L96.2969 37.9375C96.3594 37.75 96.4375 37.5781 96.5312 37.4219C96.5938 37.2656 96.6406 37.125 96.6719 37C96.7344 36.8438 96.7812 36.7188 96.8125 36.625C96.875 36.4688 96.9531 36.3125 97.0469 36.1562C97.1406 36 97.2188 35.8438 97.2812 35.6875V35.125C97.4688 34.875 97.5781 34.7188 97.6094 34.6562C97.6719 34.5938 97.7344 34.5312 97.7969 34.4688C97.8594 34.2188 97.9062 34.0625 97.9375 34C97.9688 33.9062 98 33.8281 98.0312 33.7656C98.0938 33.7031 98.125 33.625 98.125 33.5312C98.1562 33.4062 98.1719 33.1875 98.1719 32.875C98.3281 32.625 98.4062 32.4531 98.4062 32.3594C98.4375 32.2344 98.4688 32.125 98.5 32.0312C98.5 31.9375 98.5312 31.8125 98.5938 31.6562C98.6875 31.5 98.8125 31.3906 98.9688 31.3281C99.0312 31.2344 99.0781 31.125 99.1094 31C99.1406 30.8438 99.1875 30.6875 99.25 30.5312C99.3125 30.375 99.3594 30.2031 99.3906 30.0156L99.7188 29.3125C99.7812 29.2188 99.8281 29.125 99.8594 29.0312C99.8906 28.9062 99.9531 28.7969 100.047 28.7031C100.047 28.6406 100.062 28.5625 100.094 28.4688C100.156 28.3438 100.219 28.2188 100.281 28.0938C100.344 27.9688 100.406 27.8281 100.469 27.6719L100 27.7656C99.875 27.7969 99.75 27.8125 99.625 27.8125C99.5 27.8125 99.4062 27.8125 99.3438 27.8125C98.9062 27.75 98.6562 27.7031 98.5938 27.6719C98.5312 27.6406 98.4219 27.5938 98.2656 27.5312C98.1094 27.4688 98.0156 27.4375 97.9844 27.4375C97.9531 27.4375 97.875 27.4375 97.75 27.4375C97.5625 27.3125 97.4219 27.2188 97.3281 27.1562C97.2656 27.125 97.2188 27.1094 97.1875 27.1094C97.125 27.0469 97.0625 26.9688 97 26.875C96.9375 26.8125 96.875 26.7656 96.8125 26.7344C96.7812 26.6719 96.75 26.6094 96.7188 26.5469C96.6562 26.4219 96.5938 26.2812 96.5312 26.125C96.5 25.9375 96.4531 25.7812 96.3906 25.6562C96.3281 25.4375 96.3438 25.2344 96.4375 25.0469C96.5625 24.8594 96.6719 24.7188 96.7656 24.625C97.1094 24.3125 97.3281 24.1406 97.4219 24.1094C97.5156 24.0469 97.5938 24.0156 97.6562 24.0156C98 23.9531 98.2188 23.9219 98.3125 23.9219C98.4062 23.8906 98.4844 23.875 98.5469 23.875C98.9844 23.8438 99.2812 23.8281 99.4375 23.8281C99.625 23.8281 99.7812 23.8438 99.9062 23.875C99.9688 23.875 100.031 23.875 100.094 23.875C100.188 23.8438 100.328 23.7812 100.516 23.6875C100.703 23.7812 100.828 23.8438 100.891 23.875C100.953 23.875 101.047 23.8594 101.172 23.8281C101.328 23.7969 101.484 23.7812 101.641 23.7812C101.828 23.75 102 23.7656 102.156 23.8281C102.406 23.7656 102.703 23.7344 103.047 23.7344C103.422 23.7344 103.672 23.7344 103.797 23.7344C103.953 23.7656 104.109 23.7812 104.266 23.7812C104.328 23.7812 104.359 23.7969 104.359 23.8281C104.672 23.7344 104.891 23.6875 105.016 23.6875C105.328 23.6562 105.547 23.6406 105.672 23.6406C105.797 23.6094 105.922 23.5938 106.047 23.5938C106.297 23.5 106.547 23.4844 106.797 23.5469C107.016 23.5469 107.156 23.5469 107.219 23.5469C107.312 23.5156 107.406 23.5 107.5 23.5C107.656 23.4688 107.812 23.4844 107.969 23.5469C108.125 23.5781 108.25 23.625 108.344 23.6875C108.406 23.7188 108.484 23.7656 108.578 23.8281C108.672 23.8594 108.828 23.9219 109.047 24.0156C109.141 24.2344 109.203 24.3906 109.234 24.4844C109.297 24.5781 109.344 24.6562 109.375 24.7188C109.438 24.8438 109.484 24.9688 109.516 25.0938C109.547 25.2188 109.547 25.3594 109.516 25.5156ZM128.453 37.6562C128.391 38 128.344 38.2188 128.312 38.3125C128.281 38.4062 128.25 38.4844 128.219 38.5469C128.062 38.9219 127.906 39.1875 127.75 39.3438C127.625 39.5 127.5 39.6406 127.375 39.7656C127.312 39.8594 127.25 39.9531 127.188 40.0469C127.125 40.1094 127.062 40.1719 127 40.2344C126.938 40.3281 126.875 40.4062 126.812 40.4688C126.719 40.5312 126.609 40.6094 126.484 40.7031C126.234 40.8906 126.016 41.0781 125.828 41.2656C125.578 41.4219 125.406 41.5156 125.312 41.5469C125.25 41.5469 125.188 41.5469 125.125 41.5469C124.938 41.7031 124.812 41.8125 124.75 41.875C124.688 41.9062 124.625 41.9219 124.562 41.9219C124.469 41.9844 124.391 42.0312 124.328 42.0625C124.266 42.0938 124.156 42.1719 124 42.2969C123.719 42.2969 123.531 42.3125 123.438 42.3438C123.375 42.3438 123.312 42.3438 123.25 42.3438C123.219 42.375 123.172 42.4062 123.109 42.4375C123.047 42.4688 122.922 42.5625 122.734 42.7188C122.391 42.75 122.172 42.7656 122.078 42.7656C122.016 42.7656 121.969 42.7656 121.938 42.7656C121.656 42.8594 121.484 42.9219 121.422 42.9531C120.859 43.0469 120.453 43.1094 120.203 43.1406C119.984 43.1719 119.75 43.1719 119.5 43.1406C119.312 43.1719 119.172 43.1875 119.078 43.1875C119.016 43.1875 118.953 43.1875 118.891 43.1875H116.922C116.578 43.0312 116.359 42.9531 116.266 42.9531C116.109 42.8906 116 42.8594 115.938 42.8594C115.875 42.8594 115.812 42.8281 115.75 42.7656C115.562 42.7031 115.25 42.5781 114.812 42.3906C114.406 42.1719 114.109 42 113.922 41.875C113.797 41.7812 113.641 41.6719 113.453 41.5469C113.359 41.4844 113.25 41.4219 113.125 41.3594C113.031 41.2656 112.938 41.1875 112.844 41.125C112.719 41.0625 112.609 41 112.516 40.9375L111.906 40C111.875 39.875 111.828 39.75 111.766 39.625C111.672 39.4375 111.531 39.25 111.344 39.0625C111.312 38.75 111.281 38.5781 111.25 38.5469C111.188 38.4531 111.125 38.3906 111.062 38.3594C111 38.2969 110.906 38.2031 110.781 38.0781C110.75 37.7656 110.719 37.5938 110.688 37.5625C110.5 37.0312 110.391 36.625 110.359 36.3438C110.297 36.0938 110.234 35.9062 110.172 35.7812C110.141 35.625 110.109 35.5 110.078 35.4062C110.047 35.2812 110.031 35.2031 110.031 35.1719C109.938 34.8281 109.875 34.5469 109.844 34.3281C109.844 34.1094 109.844 33.9531 109.844 33.8594C109.875 33.6719 109.891 33.5469 109.891 33.4844C109.891 33.3906 109.891 33.3125 109.891 33.25C109.891 33.0312 109.875 32.8906 109.844 32.8281C109.844 32.7656 109.844 32.7031 109.844 32.6406C109.844 32.5781 109.828 32.5 109.797 32.4062C109.797 32.2812 109.828 32.1562 109.891 32.0312C109.828 31.7812 109.844 31.5625 109.938 31.375C109.938 31.0625 109.969 30.8438 110.031 30.7188L110.453 29.5938C110.484 29.4688 110.5 29.3594 110.5 29.2656C110.531 29.1406 110.562 29 110.594 28.8438C110.625 28.6875 110.641 28.5312 110.641 28.375C110.672 28.2188 110.719 28.0625 110.781 27.9062C110.875 27.5312 111 27.25 111.156 27.0625C111.219 26.9375 111.266 26.8281 111.297 26.7344C111.359 26.6406 111.422 26.5469 111.484 26.4531C111.547 26.3594 111.609 26.2656 111.672 26.1719C111.766 26.0469 111.844 25.9375 111.906 25.8438L112.281 25.4219C112.5 25.1719 112.641 25 112.703 24.9062C112.797 24.8125 112.891 24.7344 112.984 24.6719C113.109 24.4844 113.219 24.3594 113.312 24.2969C113.406 24.2031 113.5 24.125 113.594 24.0625C113.844 23.8125 114.031 23.6406 114.156 23.5469C114.281 23.4219 114.422 23.3281 114.578 23.2656C114.703 23.1094 114.828 22.9844 114.953 22.8906C115.109 22.7656 115.312 22.6719 115.562 22.6094C115.719 22.4531 115.812 22.3594 115.844 22.3281C115.906 22.2969 115.953 22.2656 115.984 22.2344C116.078 22.1094 116.25 21.9688 116.5 21.8125C116.875 21.6875 117.125 21.6094 117.25 21.5781C117.469 21.5156 117.703 21.4844 117.953 21.4844C118.203 21.4844 118.453 21.4844 118.703 21.4844C118.922 21.4844 119.141 21.5 119.359 21.5312C119.578 21.5312 119.812 21.5312 120.062 21.5312C120.281 21.5938 120.422 21.625 120.484 21.625C120.578 21.5938 120.641 21.5781 120.672 21.5781C120.891 21.5781 121.047 21.5938 121.141 21.625C121.234 21.625 121.328 21.6406 121.422 21.6719L122.078 21.9531C122.297 22.0156 122.438 22.0625 122.5 22.0938C122.562 22.0938 122.625 22.0938 122.688 22.0938C122.688 22.0938 122.781 22.125 122.969 22.1875C123.062 22.2188 123.141 22.25 123.203 22.2812C123.266 22.3125 123.344 22.3438 123.438 22.375C123.625 22.4375 123.719 22.4688 123.719 22.4688C124.156 22.625 124.516 22.8125 124.797 23.0312C125.078 23.2188 125.297 23.3906 125.453 23.5469C125.641 23.8281 125.766 24.0312 125.828 24.1562C125.891 24.25 125.938 24.3281 125.969 24.3906C126.125 24.6094 126.203 24.7656 126.203 24.8594C126.234 24.9219 126.25 24.9844 126.25 25.0469C126.406 25.3594 126.531 25.5938 126.625 25.75C126.719 25.9062 126.797 26.1094 126.859 26.3594C127.109 26.8594 127.234 27.2031 127.234 27.3906C127.359 27.5781 127.453 27.7344 127.516 27.8594C127.578 28.0156 127.609 28.1562 127.609 28.2812C127.609 28.375 127.609 28.4531 127.609 28.5156C127.672 28.7344 127.719 28.9219 127.75 29.0781C127.781 29.2031 127.812 29.3281 127.844 29.4531C127.875 29.6719 127.953 29.8906 128.078 30.1094C128.141 30.3594 128.172 30.5469 128.172 30.6719C128.172 30.7969 128.172 30.9375 128.172 31.0938C128.109 31.3438 128.062 31.5625 128.031 31.75C128 31.9375 127.938 32.1094 127.844 32.2656L127.469 33.0156L126.719 33.4844C126.531 33.5156 126.375 33.5312 126.25 33.5312H125.641C125.359 33.625 125.156 33.6719 125.031 33.6719C124.969 33.7031 124.906 33.7188 124.844 33.7188C124.812 33.6875 124.766 33.6719 124.703 33.6719H124.516H123.859C123.766 33.6406 123.656 33.625 123.531 33.625C123.438 33.625 123.344 33.6094 123.25 33.5781C123.125 33.5781 123 33.5938 122.875 33.625C122.781 33.625 122.656 33.625 122.5 33.625C121.906 33.5938 121.578 33.5625 121.516 33.5312C121.266 33.5312 121.047 33.5469 120.859 33.5781C120.672 33.6094 120.5 33.625 120.344 33.625C120.094 33.625 119.844 33.6094 119.594 33.5781C119.375 33.5156 119.141 33.4531 118.891 33.3906C118.453 33.2969 118.094 33.25 117.812 33.25C117.75 33.25 117.672 33.2656 117.578 33.2969C117.484 33.2969 117.375 33.2969 117.25 33.2969C117.062 33.2656 116.938 33.25 116.875 33.25C116.812 33.25 116.75 33.25 116.688 33.25C116.594 33.25 116.5 33.25 116.406 33.25C116.312 33.2188 116.219 33.2031 116.125 33.2031C115.906 33.2031 115.766 33.2031 115.703 33.2031C115.641 33.2031 115.578 33.2188 115.516 33.25C115.359 33.2812 115.234 33.2969 115.141 33.2969C115.047 33.2656 114.969 33.25 114.906 33.25C114.625 33.2188 114.422 33.2188 114.297 33.25C114.172 33.25 114.062 33.25 113.969 33.25C113.906 33.4062 113.875 33.5312 113.875 33.625C113.906 33.6875 113.922 33.7344 113.922 33.7656C113.984 33.9844 114.016 34.1406 114.016 34.2344C114.047 34.2969 114.062 34.3594 114.062 34.4219C114.094 34.5781 114.109 34.6875 114.109 34.75C114.141 34.8125 114.188 34.8906 114.25 34.9844C114.25 35.4531 114.344 35.9062 114.531 36.3438C114.719 36.7812 114.875 37.0781 115 37.2344C115.062 37.4844 115.094 37.6406 115.094 37.7031C115.125 37.7344 115.141 37.7656 115.141 37.7969C115.266 37.8906 115.344 37.9844 115.375 38.0781C115.438 38.1406 115.5 38.2031 115.562 38.2656C115.688 38.4219 115.766 38.5312 115.797 38.5938C115.859 38.625 115.922 38.6719 115.984 38.7344C116.109 38.7969 116.234 38.8594 116.359 38.9219C116.484 38.9844 116.578 39.0781 116.641 39.2031C116.891 39.2031 117.141 39.25 117.391 39.3438C117.578 39.4062 117.828 39.4531 118.141 39.4844C118.453 39.5156 118.766 39.5312 119.078 39.5312C119.422 39.5 119.734 39.4688 120.016 39.4375C120.328 39.4062 120.547 39.375 120.672 39.3438C120.922 39.25 121.141 39.1875 121.328 39.1562C121.547 39.125 121.734 39.0781 121.891 39.0156C122.141 38.9844 122.359 38.9219 122.547 38.8281C122.859 38.6094 123.109 38.5 123.297 38.5C123.484 38.3438 123.656 38.25 123.812 38.2188C123.969 38.0312 124.141 37.8594 124.328 37.7031C124.547 37.5156 124.688 37.375 124.75 37.2812C124.938 37.0938 125.078 36.9062 125.172 36.7188C125.234 36.5938 125.297 36.5 125.359 36.4375L125.828 35.9688C125.891 35.9375 125.969 35.8906 126.062 35.8281C126.25 35.7031 126.344 35.6406 126.344 35.6406C126.406 35.6094 126.469 35.5781 126.531 35.5469C126.625 35.5156 126.75 35.4688 126.906 35.4062C127.156 35.4688 127.328 35.5312 127.422 35.5938C127.547 35.625 127.641 35.6719 127.703 35.7344C127.953 35.9531 128.094 36.1094 128.125 36.2031C128.188 36.2969 128.234 36.375 128.266 36.4375C128.297 36.5 128.312 36.5625 128.312 36.625C128.344 36.6875 128.375 36.75 128.406 36.8125C128.438 36.9062 128.453 36.9688 128.453 37V37.6562ZM124.188 29.6406C124.125 29.3594 124.062 29.1406 124 28.9844C123.969 28.8281 123.922 28.6875 123.859 28.5625C123.734 28.3125 123.656 28.1562 123.625 28.0938C123.594 28.0312 123.562 27.9844 123.531 27.9531C123.406 27.7969 123.328 27.625 123.297 27.4375C123.172 27.2812 123.047 27.125 122.922 26.9688C122.828 26.7812 122.75 26.625 122.688 26.5C122.375 26.2188 122.203 26.0312 122.172 25.9375C121.922 25.8438 121.734 25.7812 121.609 25.75C121.516 25.6875 121.438 25.625 121.375 25.5625C121.062 25.4688 120.812 25.3906 120.625 25.3281C120.438 25.2656 120.266 25.2188 120.109 25.1875C119.953 25.1562 119.812 25.125 119.688 25.0938L119.125 25.1875C118.969 25.2188 118.828 25.2344 118.703 25.2344C118.578 25.2344 118.484 25.2344 118.422 25.2344C118.141 25.3594 117.969 25.4375 117.906 25.4688C117.844 25.5 117.781 25.5312 117.719 25.5625C117.438 25.7188 117.25 25.8125 117.156 25.8438C117.062 25.875 116.984 25.9062 116.922 25.9375C116.766 26.0938 116.625 26.2031 116.5 26.2656C116.281 26.6094 116.031 26.9375 115.75 27.25C115.469 27.5625 115.219 27.7969 115 27.9531C114.906 28.2031 114.828 28.375 114.766 28.4688C114.734 28.5625 114.688 28.6562 114.625 28.75C114.562 28.8438 114.516 28.9375 114.484 29.0312C114.484 29.125 114.453 29.2344 114.391 29.3594H115C115.469 29.2656 115.812 29.2188 116.031 29.2188C116.188 29.1875 116.297 29.1719 116.359 29.1719C116.422 29.1719 116.531 29.1406 116.688 29.0781C116.906 29.1406 117.031 29.1875 117.062 29.2188C117.125 29.2188 117.172 29.2031 117.203 29.1719C117.547 29.1406 117.812 29.1406 118 29.1719C118.188 29.1719 118.359 29.1875 118.516 29.2188C118.797 29.3125 119 29.3594 119.125 29.3594C119.719 29.5156 120.266 29.625 120.766 29.6875C120.859 29.7188 120.969 29.7344 121.094 29.7344C121.219 29.7031 121.344 29.6875 121.469 29.6875C121.594 29.6875 121.734 29.6719 121.891 29.6406H123.016H123.531C123.781 29.6094 123.938 29.5938 124 29.5938C124.062 29.5938 124.125 29.6094 124.188 29.6406ZM157 41.6406C156.938 41.7969 156.891 41.9219 156.859 42.0156C156.828 42.1094 156.797 42.1875 156.766 42.25C156.734 42.3438 156.719 42.4062 156.719 42.4375C156.656 42.5 156.594 42.5781 156.531 42.6719C156.406 42.8594 156.312 42.9531 156.25 42.9531C156.031 43.1719 155.812 43.3281 155.594 43.4219C155.406 43.5156 155.172 43.5938 154.891 43.6562C154.828 43.6562 154.75 43.6719 154.656 43.7031C154.594 43.7031 154.531 43.7031 154.469 43.7031C154.375 43.7344 154.297 43.75 154.234 43.75C154.078 43.7812 153.938 43.7969 153.812 43.7969C153.688 43.8281 153.578 43.8438 153.484 43.8438C153.422 43.8438 153.359 43.8438 153.297 43.8438H152.594C152.344 43.9062 152.125 43.9219 151.938 43.8906C151.469 43.8906 151.172 43.875 151.047 43.8438C150.797 43.875 150.625 43.9062 150.531 43.9375C150.438 43.9375 150.344 43.9375 150.25 43.9375C150.125 43.9375 150.016 43.9531 149.922 43.9844C149.859 43.9844 149.781 43.9844 149.688 43.9844C149.312 44.0469 149 44.0938 148.75 44.125C148.531 44.125 148.312 44.0469 148.094 43.8906C147.75 43.8281 147.469 43.7188 147.25 43.5625C147.094 43.4062 146.984 43.2969 146.922 43.2344C146.859 43.1719 146.781 43.0781 146.688 42.9531C146.688 42.7031 146.688 42.5312 146.688 42.4375C146.719 42.3438 146.734 42.2656 146.734 42.2031V41.875C146.734 41.7812 146.719 41.6875 146.688 41.5938L147.344 40.6094C147.562 40.5469 147.766 40.4844 147.953 40.4219C148.109 40.3594 148.266 40.3125 148.422 40.2812C148.609 40.2188 148.75 40.1875 148.844 40.1875C149 40.1562 149.125 40.125 149.219 40.0938C149.344 40.0625 149.484 40 149.641 39.9062C149.766 39.7812 149.828 39.6875 149.828 39.625C149.828 39.5625 149.812 39.4844 149.781 39.3906V38.5469C149.75 38.3281 149.719 38.1719 149.688 38.0781C149.688 37.9531 149.688 37.8594 149.688 37.7969C149.656 37.7031 149.625 37.625 149.594 37.5625C149.594 37.4688 149.594 37.375 149.594 37.2812V36.7656C149.656 36.6094 149.688 36.5 149.688 36.4375C149.688 36.3438 149.688 36.2656 149.688 36.2031C149.688 36.1094 149.672 36.0312 149.641 35.9688C149.641 35.875 149.641 35.7812 149.641 35.6875C149.641 35.5312 149.625 35.4062 149.594 35.3125C149.594 35.1875 149.594 35.0469 149.594 34.8906C149.531 34.5781 149.484 34.375 149.453 34.2812C149.453 34.1562 149.469 34.0312 149.5 33.9062C149.438 33.6562 149.391 33.5156 149.359 33.4844C149.359 33.4219 149.359 33.3594 149.359 33.2969C149.234 32.7656 149.172 32.5156 149.172 32.5469C149.047 32.2344 148.984 32.0156 148.984 31.8906C149.016 31.7656 149.016 31.6562 148.984 31.5625L148.422 30.25C148.328 30.1562 148.25 30 148.188 29.7812C148 29.5625 147.844 29.4219 147.719 29.3594C147.594 29.2969 147.5 29.2344 147.438 29.1719C147.156 29.2031 146.953 29.2031 146.828 29.1719C146.422 29.0781 146.141 29.0312 145.984 29.0312C145.859 29.0312 145.703 29.1094 145.516 29.2656H144.859C144.609 29.3906 144.422 29.4844 144.297 29.5469C144.172 29.5781 144.078 29.6094 144.016 29.6406C143.641 29.7969 143.359 29.9062 143.172 29.9688C142.984 30.0312 142.812 30.0938 142.656 30.1562C142.531 30.2188 142.422 30.2656 142.328 30.2969C142.266 30.3281 142.156 30.4219 142 30.5781C141.688 30.6094 141.469 30.7031 141.344 30.8594C141.25 30.9219 141.125 30.9844 140.969 31.0469C140.812 31.0781 140.688 31.0938 140.594 31.0938C140.438 31.2188 140.297 31.3125 140.172 31.375C140.078 31.4375 140 31.5 139.938 31.5625C139.75 31.6562 139.594 31.7344 139.469 31.7969C139.375 31.8594 139.297 31.9219 139.234 31.9844C139.109 32.1094 138.953 32.2188 138.766 32.3125C138.578 32.4688 138.453 32.5625 138.391 32.5938C138.359 32.625 138.328 32.6562 138.297 32.6875V33.25C138.297 33.3125 138.312 33.3438 138.344 33.3438C138.375 33.6875 138.375 33.9688 138.344 34.1875C138.344 34.4062 138.328 34.6094 138.297 34.7969C138.266 35.1719 138.266 35.375 138.297 35.4062C138.266 35.75 138.25 36.0312 138.25 36.25C138.281 36.4688 138.312 36.6562 138.344 36.8125C138.375 36.9688 138.406 37.0938 138.438 37.1875L138.531 38.125C138.812 38.1875 139 38.2188 139.094 38.2188C139.188 38.2188 139.266 38.2031 139.328 38.1719C139.609 38.1719 139.828 38.1875 139.984 38.2188C140.328 38.25 140.547 38.2812 140.641 38.3125C140.766 38.3438 140.859 38.375 140.922 38.4062C140.953 38.4375 141 38.4531 141.062 38.4531C141.125 38.4531 141.188 38.4531 141.25 38.4531H141.438L142.234 39.0625C142.266 39.2188 142.312 39.3594 142.375 39.4844C142.438 39.6094 142.469 39.75 142.469 39.9062C142.5 40.0312 142.531 40.1406 142.562 40.2344C142.531 40.4844 142.484 40.6562 142.422 40.75C142.391 40.8125 142.359 40.8438 142.328 40.8438L142.141 41.125C142.016 41.3125 141.938 41.3906 141.906 41.3594C141.656 41.5781 141.484 41.7188 141.391 41.7812C141.297 41.8438 141.219 41.8906 141.156 41.9219C140.938 42.1094 140.781 42.2188 140.688 42.25C140.625 42.2812 140.562 42.2969 140.5 42.2969C140.375 42.3906 140.219 42.4688 140.031 42.5312H139.281C139.031 42.5312 138.891 42.5469 138.859 42.5781C138.828 42.5781 138.797 42.5781 138.766 42.5781C138.391 42.7031 138.094 42.7812 137.875 42.8125C137.688 42.8125 137.516 42.8125 137.359 42.8125C137.266 42.8125 137.156 42.8125 137.031 42.8125C136.938 42.7812 136.844 42.7812 136.75 42.8125L136.188 42.9531C136.031 42.9844 135.891 43.0156 135.766 43.0469C135.672 43.0469 135.578 43.0469 135.484 43.0469C135.234 43.1094 135.031 43.1562 134.875 43.1875C134.719 43.2188 134.609 43.2344 134.547 43.2344C134.391 43.2656 134.25 43.2969 134.125 43.3281C134.031 43.3281 133.938 43.3125 133.844 43.2812C133.594 43.25 133.375 43.25 133.188 43.2812C133.031 43.2812 132.859 43.2812 132.672 43.2812C132.547 43.2812 132.391 43.25 132.203 43.1875C132.109 43.1562 132.031 43.1406 131.969 43.1406L131.5 43C131.438 42.9688 131.359 42.9375 131.266 42.9062C131.078 42.8438 130.984 42.7656 130.984 42.6719C130.922 42.5469 130.891 42.3906 130.891 42.2031C130.859 42.0781 130.844 41.9688 130.844 41.875V41.4531C130.844 41.3281 130.844 41.2188 130.844 41.125C130.844 41 130.875 40.9062 130.938 40.8438C131 40.5938 131.078 40.375 131.172 40.1875C131.297 39.9688 131.484 39.7812 131.734 39.625C131.922 39.5 132.125 39.4375 132.344 39.4375C132.594 39.4062 132.828 39.375 133.047 39.3438C133.234 39.25 133.422 39.2031 133.609 39.2031L134.172 39.1094C134.359 39.0156 134.453 38.9375 134.453 38.875C134.484 38.7812 134.516 38.7031 134.547 38.6406C134.484 38.1719 134.438 37.8125 134.406 37.5625C134.375 37.3125 134.359 37.0625 134.359 36.8125C134.391 36.5938 134.406 36.4688 134.406 36.4375C134.406 36.4062 134.406 36.3594 134.406 36.2969C134.344 35.9844 134.312 35.6406 134.312 35.2656C134.344 34.8906 134.359 34.6406 134.359 34.5156C134.391 34.2344 134.391 34.0312 134.359 33.9062C134.359 33.7812 134.359 33.6875 134.359 33.625C134.391 33.4688 134.391 33.3438 134.359 33.25C134.359 33.125 134.359 33.0156 134.359 32.9219C134.328 32.7656 134.297 32.625 134.266 32.5C134.234 32.375 134.219 32.25 134.219 32.125V31.4688C134.125 31.0938 134.109 30.7656 134.172 30.4844C134.172 30.1406 134.172 29.9219 134.172 29.8281C134.203 29.7344 134.219 29.6719 134.219 29.6406C134.188 29.1094 134.156 28.7344 134.125 28.5156C134.094 28.2656 134.062 28.0156 134.031 27.7656C134.031 27.4844 134.031 27.2031 134.031 26.9219C134.062 26.6094 134.078 26.3281 134.078 26.0781C133.984 25.9844 133.891 25.9375 133.797 25.9375C133.734 25.9062 133.641 25.8906 133.516 25.8906L133 25.75C132.625 25.8438 132.328 25.8125 132.109 25.6562C131.922 25.5625 131.797 25.5 131.734 25.4688C131.703 25.4375 131.672 25.4062 131.641 25.375C131.547 25.375 131.453 25.2969 131.359 25.1406C131.266 25.0469 131.188 24.9531 131.125 24.8594C131.094 24.7656 131.062 24.6562 131.031 24.5312C131 24.4375 130.969 24.3438 130.938 24.25C130.906 24.1562 130.906 24.0781 130.938 24.0156C130.938 23.9219 130.953 23.7969 130.984 23.6406C131.016 23.4844 131.062 23.3281 131.125 23.1719C131.281 22.9844 131.406 22.8594 131.5 22.7969L132.156 22.2344L132.438 22.0469C132.625 21.9219 132.719 21.8594 132.719 21.8594C132.938 21.8594 133.203 21.8281 133.516 21.7656C133.672 21.7656 133.812 21.7656 133.938 21.7656C134.062 21.7344 134.203 21.7031 134.359 21.6719C134.516 21.6406 134.625 21.625 134.688 21.625C134.781 21.625 134.859 21.625 134.922 21.625C135.172 21.6875 135.328 21.7188 135.391 21.7188C135.453 21.7188 135.5 21.7344 135.531 21.7656C135.594 21.7656 135.688 21.7656 135.812 21.7656C135.969 21.7344 136.125 21.7188 136.281 21.7188C136.5 21.7188 136.625 21.7188 136.656 21.7188C136.719 21.7188 136.766 21.7031 136.797 21.6719C137.078 21.5781 137.297 21.5312 137.453 21.5312C137.641 21.5 137.797 21.5 137.922 21.5312C138.266 21.5938 138.484 21.6406 138.578 21.6719C138.672 21.6719 138.75 21.6875 138.812 21.7188C138.875 21.7812 139 21.8438 139.188 21.9062C139.281 21.9688 139.375 22.0156 139.469 22.0469C139.5 22.1094 139.547 22.1875 139.609 22.2812C139.734 22.4688 139.812 22.5938 139.844 22.6562C139.906 22.7812 139.969 22.9688 140.031 23.2188C140.062 23.3438 140.094 23.4688 140.125 23.5938C140.062 23.75 140.016 23.8906 139.984 24.0156C139.953 24.1406 139.922 24.25 139.891 24.3438C139.859 24.4375 139.844 24.5 139.844 24.5312C139.75 24.7812 139.562 24.9531 139.281 25.0469C139.125 25.1719 139 25.2656 138.906 25.3281C138.844 25.3906 138.781 25.4375 138.719 25.4688L138.625 25.5625C138.5 25.5625 138.375 25.5781 138.25 25.6094C138 25.6719 137.859 25.6875 137.828 25.6562C137.766 25.875 137.734 26 137.734 26.0312C137.734 26.0625 137.734 26.1094 137.734 26.1719C137.797 26.3594 137.828 26.5625 137.828 26.7812C137.891 27.0312 137.906 27.2031 137.875 27.2969C137.875 27.3594 137.875 27.4531 137.875 27.5781C137.875 27.6094 137.859 27.6719 137.828 27.7656C137.828 27.8281 137.844 27.9375 137.875 28.0938C138.094 27.875 138.312 27.7656 138.531 27.7656C138.875 27.6094 139.062 27.5156 139.094 27.4844C139.281 27.3594 139.453 27.2969 139.609 27.2969C139.953 27.0781 140.156 26.9531 140.219 26.9219C140.312 26.8594 140.391 26.8125 140.453 26.7812C140.734 26.5938 140.938 26.4844 141.062 26.4531C141.219 26.3906 141.359 26.3438 141.484 26.3125C141.672 26.1562 141.859 26.0312 142.047 25.9375C142.266 25.8438 142.516 25.7812 142.797 25.75C142.953 25.6875 143.078 25.6562 143.172 25.6562C143.297 25.625 143.406 25.5938 143.5 25.5625C143.75 25.4062 143.922 25.3281 144.016 25.3281C144.109 25.3281 144.172 25.3438 144.203 25.375C144.422 25.25 144.562 25.1719 144.625 25.1406C144.719 25.1094 144.828 25.0938 144.953 25.0938C145.203 25.0312 145.359 25 145.422 25C145.516 25 145.578 25 145.609 25C145.953 24.9375 146.172 24.9219 146.266 24.9531C146.391 24.9531 146.5 24.9688 146.594 25C146.844 24.9375 147.047 24.9062 147.203 24.9062C147.359 24.9062 147.516 24.9375 147.672 25C147.828 25.0312 148.062 25.1094 148.375 25.2344C148.531 25.2656 148.672 25.2969 148.797 25.3281C148.922 25.3594 149.062 25.4062 149.219 25.4688C149.281 25.5 149.359 25.5312 149.453 25.5625C149.578 25.5938 149.703 25.6406 149.828 25.7031L150.297 25.8906L150.531 26.125L150.906 26.5L151.328 26.9219C151.422 27.0156 151.516 27.0938 151.609 27.1562L152.172 27.8125L152.453 28.2812C152.453 28.4062 152.484 28.5312 152.547 28.6562C152.578 28.8438 152.688 29.0469 152.875 29.2656C152.844 29.3281 152.859 29.4219 152.922 29.5469C152.984 29.6719 153.047 29.7969 153.109 29.9219L153.344 30.3906L153.625 31.75V32.2656C153.625 32.4219 153.625 32.5625 153.625 32.6875C153.656 32.8125 153.672 32.9062 153.672 32.9688V33.5312C153.734 33.9688 153.766 34.5 153.766 35.125C153.797 35.7188 153.828 36.3438 153.859 37C153.891 37.7188 153.922 38.2969 153.953 38.7344C154.016 39.1719 154.094 39.4688 154.188 39.625C154.469 39.5625 154.656 39.5312 154.75 39.5312C154.875 39.5 154.984 39.5 155.078 39.5312C155.266 39.5625 155.391 39.5938 155.453 39.625C155.547 39.625 155.625 39.6406 155.688 39.6719C155.812 39.7344 155.891 39.7969 155.922 39.8594C155.984 39.8906 156.047 39.9219 156.109 39.9531L156.203 40.0469C156.266 40.1406 156.344 40.25 156.438 40.375C156.5 40.4688 156.547 40.5625 156.578 40.6562C156.641 40.7188 156.688 40.7656 156.719 40.7969C156.938 41.1406 157.031 41.4219 157 41.6406ZM170.969 41.6406C170.938 41.7344 170.906 41.8438 170.875 41.9688C170.875 42.0625 170.859 42.1562 170.828 42.25C170.797 42.375 170.75 42.4844 170.688 42.5781C170.562 42.6406 170.438 42.7188 170.312 42.8125C170.125 42.9688 169.953 43.0781 169.797 43.1406C169.609 43.2344 169.375 43.2969 169.094 43.3281C168.688 43.4219 168.484 43.4688 168.484 43.4688C168.203 43.5 168.016 43.5156 167.922 43.5156C167.828 43.4844 167.75 43.4688 167.688 43.4688C167.438 43.4062 167.297 43.375 167.266 43.375H167.172C166.891 43.4062 166.641 43.3594 166.422 43.2344C166.172 43.1719 166 43.1406 165.906 43.1406C165.812 43.1406 165.688 43.1094 165.531 43.0469L165.109 42.7188C164.703 42.5312 164.312 42.3438 163.938 42.1562C163.562 41.9688 163.281 41.7812 163.094 41.5938C162.875 41.4688 162.625 41.3125 162.344 41.125C162.094 40.9062 161.906 40.7344 161.781 40.6094C161.719 40.5469 161.656 40.4844 161.594 40.4219C161.562 40.3281 161.531 40.25 161.5 40.1875L161.406 40C161.406 39.9375 161.391 39.8438 161.359 39.7188C161.328 39.625 161.297 39.5312 161.266 39.4375C161.234 39.3438 161.203 39.25 161.172 39.1562C161.172 38.9375 161.141 38.7344 161.078 38.5469C161.047 38.3594 160.984 38.1406 160.891 37.8906C160.766 37.5781 160.688 37.3438 160.656 37.1875C160.594 37.0312 160.547 36.8906 160.516 36.7656C160.516 36.6406 160.5 36.5312 160.469 36.4375L160.375 35.5C160.312 35.3438 160.266 35.2031 160.234 35.0781C160.234 34.9219 160.234 34.7656 160.234 34.6094C160.172 34.3906 160.125 34.1875 160.094 34C160.094 33.8125 160.078 33.6562 160.047 33.5312C160.016 33.4062 160 33.2812 160 33.1562V32.3125L159.859 31.6094C159.797 31.4531 159.766 31.2969 159.766 31.1406C159.766 30.9531 159.766 30.7812 159.766 30.625C159.766 30.5312 159.766 30.4375 159.766 30.3438C159.766 30.2188 159.75 30.1094 159.719 30.0156C159.688 29.8594 159.656 29.7344 159.625 29.6406C159.625 29.5469 159.625 29.4375 159.625 29.3125C159.594 28.9688 159.578 28.7344 159.578 28.6094C159.578 28.4531 159.578 28.3125 159.578 28.1875V27.5781C159.703 26.9531 159.734 26.4844 159.672 26.1719C159.641 25.8281 159.656 25.4844 159.719 25.1406C159.719 25.0156 159.734 24.8594 159.766 24.6719C159.797 24.4844 159.828 24.3125 159.859 24.1562C159.891 23.9688 159.922 23.7656 159.953 23.5469L159.578 23.4531C159.328 23.3906 159.172 23.3594 159.109 23.3594H158.547C158.484 23.3906 158.406 23.4219 158.312 23.4531C158.25 23.4531 158.141 23.4531 157.984 23.4531H157.328C157.016 23.3906 156.797 23.3594 156.672 23.3594C156.516 23.3594 156.406 23.3594 156.344 23.3594C156 23.3594 155.75 23.3281 155.594 23.2656C155.5 23.2031 155.391 23.1562 155.266 23.125C155.141 23.0625 155 23 154.844 22.9375C154.688 22.875 154.562 22.7656 154.469 22.6094C154.344 22.4531 154.219 22.2031 154.094 21.8594C154.125 21.7969 154.141 21.7344 154.141 21.6719C154.109 21.6094 154.094 21.5469 154.094 21.4844C154.062 21.4219 154.047 21.3594 154.047 21.2969C154.109 21.1094 154.188 20.9375 154.281 20.7812C154.344 20.625 154.422 20.4844 154.516 20.3594C154.609 20.2344 154.734 20.1406 154.891 20.0781C155.109 19.7656 155.375 19.6094 155.688 19.6094C156 19.5781 156.219 19.5625 156.344 19.5625C156.438 19.5625 156.516 19.5781 156.578 19.6094C157.047 19.6094 157.359 19.625 157.516 19.6562C157.703 19.6562 157.875 19.6562 158.031 19.6562C158.281 19.5938 158.453 19.5625 158.547 19.5625C158.672 19.5312 158.812 19.5312 158.969 19.5625C159 19.5625 159.078 19.5781 159.203 19.6094C159.359 19.6094 159.516 19.6094 159.672 19.6094H160.281C160.344 19.2031 160.406 18.8281 160.469 18.4844C160.531 18.1719 160.594 17.875 160.656 17.5938C160.719 17.2812 160.781 17.0469 160.844 16.8906C160.781 16.6406 160.781 16.3906 160.844 16.1406C160.875 16.0469 160.891 15.9531 160.891 15.8594C160.891 15.7656 160.906 15.6875 160.938 15.625C161 15.3125 161.047 15.0937 161.078 14.9688C161.109 14.8438 161.141 14.7344 161.172 14.6406C161.203 14.5781 161.219 14.5 161.219 14.4062C161.25 14.3125 161.281 14.1406 161.312 13.8906C161.469 13.7969 161.562 13.7188 161.594 13.6562C161.625 13.5937 161.656 13.4375 161.688 13.1875C161.906 13.0312 162.031 12.9375 162.062 12.9062C162.125 12.875 162.172 12.8437 162.203 12.8125C162.359 12.6562 162.469 12.5625 162.531 12.5312C162.594 12.4687 162.641 12.4375 162.672 12.4375C163.297 12.2812 163.812 12.3125 164.219 12.5312C164.625 12.75 164.859 12.9219 164.922 13.0469C164.984 13.1719 165.031 13.2812 165.062 13.375C165.094 13.4688 165.125 13.5469 165.156 13.6094L165.203 15.2969C165.109 15.6719 165.062 15.8594 165.062 15.8594L164.969 16.4219C164.906 16.6406 164.875 16.7969 164.875 16.8906C164.875 16.9844 164.875 17.0781 164.875 17.1719C164.844 17.2969 164.828 17.4219 164.828 17.5469C164.828 17.6719 164.797 17.7969 164.734 17.9219C164.609 18.3594 164.531 18.7656 164.5 19.1406C164.469 19.3594 164.438 19.5781 164.406 19.7969C164.719 19.8281 165.031 19.8438 165.344 19.8438C165.594 19.875 165.844 19.8906 166.094 19.8906C166.344 19.8906 166.516 19.8906 166.609 19.8906C166.703 19.8906 166.812 19.9062 166.938 19.9375C167.062 19.9375 167.188 19.9375 167.312 19.9375C167.406 19.9688 167.531 20 167.688 20.0312C167.844 20.0312 168 20.0781 168.156 20.1719C168.375 20.3281 168.516 20.4375 168.578 20.5C168.641 20.5312 168.703 20.5781 168.766 20.6406L169.141 21.0625C169.484 21.4688 169.625 21.8594 169.562 22.2344C169.531 22.6094 169.438 22.9062 169.281 23.125C169.188 23.1875 169.047 23.2812 168.859 23.4062C168.703 23.5 168.516 23.6094 168.297 23.7344C168.078 23.8281 167.859 23.9219 167.641 24.0156C167.453 24.0781 167.297 24.1094 167.172 24.1094C167.078 24.1094 166.812 24.0938 166.375 24.0625C165.969 24.0312 165.625 23.9844 165.344 23.9219C165.094 23.9844 164.859 23.9844 164.641 23.9219C164.547 23.9219 164.375 23.8906 164.125 23.8281C164 24.1719 163.938 24.4219 163.938 24.5781C163.875 24.7656 163.844 24.9531 163.844 25.1406C163.844 25.2969 163.844 25.4531 163.844 25.6094C163.812 25.7656 163.781 25.9219 163.75 26.0781C163.75 26.2031 163.719 26.3281 163.656 26.4531C163.656 26.8281 163.656 27.125 163.656 27.3438C163.656 27.5312 163.656 27.7031 163.656 27.8594C163.688 28.0156 163.703 28.1719 163.703 28.3281C163.734 28.4531 163.75 28.6562 163.75 28.9375C163.781 29.0312 163.812 29.1719 163.844 29.3594C163.875 29.5469 163.891 29.7656 163.891 30.0156C163.922 30.2344 163.938 30.4531 163.938 30.6719C163.938 30.8594 163.938 31 163.938 31.0938L164.078 31.9844C164.078 32.1094 164.078 32.2188 164.078 32.3125C164.109 32.4062 164.125 32.5 164.125 32.5938C164.156 32.7188 164.172 32.9062 164.172 33.1562C164.203 33.4062 164.219 33.5781 164.219 33.6719C164.219 33.7344 164.219 33.7812 164.219 33.8125C164.281 34.0312 164.312 34.1875 164.312 34.2812C164.344 34.375 164.359 34.4688 164.359 34.5625L164.453 35.1719C164.516 35.3906 164.609 35.5781 164.734 35.7344L164.828 36.25C164.859 36.375 164.875 36.4844 164.875 36.5781C164.906 36.6719 164.938 36.7812 164.969 36.9062C165 36.9688 165.016 37.0469 165.016 37.1406C165.047 37.2344 165.109 37.375 165.203 37.5625C165.359 37.8125 165.5 38 165.625 38.125C165.781 38.25 165.906 38.3906 166 38.5469C166.312 38.7031 166.547 38.8125 166.703 38.875C166.859 38.9062 167.016 38.9531 167.172 39.0156C167.328 39.0781 167.438 39.1406 167.5 39.2031C167.594 39.2656 167.703 39.3281 167.828 39.3906C167.953 39.4219 168.094 39.4531 168.25 39.4844C168.406 39.4844 168.562 39.5 168.719 39.5312C168.938 39.5625 169.141 39.5938 169.328 39.625C169.547 39.6562 169.781 39.7031 170.031 39.7656C170.188 39.9219 170.297 40.0312 170.359 40.0938C170.422 40.125 170.484 40.1719 170.547 40.2344C170.609 40.2969 170.672 40.3594 170.734 40.4219C170.797 40.4844 170.859 40.5781 170.922 40.7031C170.984 40.9219 171.016 41.1094 171.016 41.2656C171.016 41.3906 171 41.5156 170.969 41.6406Z" fill="black"/>
</svg>
