<svg width="450" height="422" viewBox="0 0 450 422" fill="none" xmlns="http://www.w3.org/2000/svg">
<path fill-rule="evenodd" clip-rule="evenodd" d="M31.7292 201.702C31.7292 201.702 12.612 185.371 39.4321 128.986C66.2522 72.6 120.568 84.9587 155.286 62.7802C206.584 30.0104 185.558 4.36559 249.522 0.231897C330.058 -4.97275 334.619 79.1347 374.912 79.1347C377.563 79.1347 440.307 53.9233 449.49 122.941C454.116 157.698 374.912 210.702 374.912 210.702C374.912 210.702 341.949 240.581 340.139 255.335C332.547 317.213 348.379 388.083 170.958 420.71C148.013 424.929 109.911 409.666 88.8912 381.472C72.4232 359.383 6.36377 375.055 0.197303 302.435C-2.91072 265.833 31.7292 201.702 31.7292 201.702Z" fill="#64FCD9"/>
<path d="M150.073 152.642C150.671 152.289 151.443 152.488 151.796 153.086L153.22 155.489C158.874 164.976 161.136 168.057 163.54 169.449C165.516 170.594 167.559 170.239 171.298 168.046L171.798 167.746C174.149 166.28 184.911 158.887 189.072 156.233C189.658 155.859 190.436 156.031 190.809 156.617C191.183 157.202 191.011 157.98 190.425 158.354L189.785 158.766C185.148 161.772 174.732 168.925 172.888 170.028C168.361 172.735 165.425 173.343 162.484 171.741L162.279 171.626C159.119 169.795 156.661 166.283 149.629 154.365C149.276 153.766 149.475 152.995 150.073 152.642Z" fill="white"/>
<path d="M170.445 167.182C171.133 167.09 171.766 167.574 171.858 168.262C172.287 171.462 173.313 174.671 174.942 177.892C175.256 178.512 175.007 179.268 174.387 179.582C173.767 179.896 173.011 179.647 172.697 179.027C170.944 175.561 169.832 172.083 169.365 168.596C169.273 167.907 169.756 167.275 170.445 167.182Z" fill="white"/>
<path fill-rule="evenodd" clip-rule="evenodd" d="M316.992 244.014C316.789 244.527 316.345 245.238 315.828 245.911L316.273 246.373L316.789 246.923L316.904 247.033C316.954 247.077 316.993 247.104 317.022 247.111C317.189 247.136 317.305 247.289 317.282 247.458C317.258 247.622 317.105 247.741 316.939 247.716C316.787 247.713 316.238 247.499 315.584 246.967C315.466 246.871 315.348 246.76 315.228 246.638C314.85 247.059 314.469 247.421 314.14 247.645C313.655 247.98 313.235 248.007 313.035 247.871C312.837 247.739 312.648 247.296 312.969 246.401C313.019 246.239 313.192 246.154 313.352 246.204C313.512 246.255 313.6 246.425 313.55 246.587C313.501 246.753 313.494 246.905 313.494 247.026L313.68 246.9C313.746 246.853 313.813 246.8 313.875 246.738C314.099 246.516 314.35 246.248 314.602 245.956C314.203 245.492 313.796 244.948 313.467 244.319C313.306 244.012 313.178 243.687 313.057 243.345C312.973 243.154 313.06 242.929 313.252 242.844C313.443 242.76 313.667 242.848 313.752 243.039C314.118 243.806 314.586 244.468 315.048 245.035L315.202 245.22C315.624 244.669 315.985 244.112 316.149 243.687C316.24 243.456 316.503 243.34 316.735 243.429C316.969 243.521 317.084 243.783 316.992 244.014Z" fill="white"/>
<path fill-rule="evenodd" clip-rule="evenodd" d="M129.821 85.3207L129.054 85.1819C124.772 84.3859 121.49 83.4087 115.357 81.2825C114.654 81.0387 114.281 80.2709 114.525 79.5676C114.769 78.8643 115.537 78.4919 116.24 78.7357L117.768 79.2617C123.148 81.0976 126.166 81.9393 130.289 82.6661C144.16 85.112 154.546 77.9905 155.396 64.4085C155.442 63.6657 156.082 63.1011 156.825 63.1476C157.568 63.1941 158.132 63.834 158.086 64.5769C157.13 79.8518 145.2 88.0324 129.821 85.3207Z" fill="#00160A"/>
<path fill-rule="evenodd" clip-rule="evenodd" d="M164.481 99.8659L165.255 101.586L167.019 102.092C167.115 102.12 167.17 102.219 167.142 102.315C167.134 102.344 167.118 102.371 167.096 102.392L165.756 103.727L165.831 105.647C165.835 105.746 165.758 105.83 165.658 105.834C165.625 105.835 165.592 105.827 165.562 105.81L164.045 104.946C163.997 104.919 163.94 104.915 163.89 104.935L162.267 105.58C162.174 105.617 162.07 105.571 162.033 105.479C162.021 105.448 162.017 105.414 162.023 105.381L162.365 103.49L161.223 101.982C161.163 101.902 161.179 101.79 161.258 101.73C161.283 101.711 161.311 101.699 161.342 101.695L163.159 101.439L164.165 99.8438C164.218 99.7599 164.329 99.7347 164.413 99.7877C164.443 99.8065 164.466 99.8337 164.481 99.8659Z" fill="#00160A"/>
<path d="M341.77 56.638C342.463 56.5886 343.064 57.1103 343.114 57.8033C343.163 58.4962 342.642 59.0981 341.949 59.1475C336.985 59.5016 333.086 61.4252 331.355 66.1835C331.25 66.4699 331.164 66.7463 331.094 67.0091L331.047 67.1896L331.123 67.0311C333.304 62.5788 337.509 59.4852 342.383 58.7001L342.702 58.6522C343.39 58.5561 344.025 59.0361 344.121 59.7241C344.217 60.4122 343.737 61.0478 343.049 61.1439C338.522 61.7759 334.649 64.7848 332.959 69.1007L332.85 69.3904C332.047 71.5962 330.12 72.654 328.879 70.7662C328.123 69.6148 328.173 67.5699 328.99 65.323C331.065 59.6238 335.825 57.0622 341.77 56.638Z" fill="white"/>
<path d="M336.04 47.2666C336.733 47.2172 337.335 47.7389 337.384 48.4318C337.434 49.1248 336.912 49.7266 336.219 49.7761C328.323 50.3394 321.399 55.4673 318.644 63.0364C317.827 65.2801 317.676 67.1985 317.968 68.17L318.004 68.2784L318.059 68.1982C318.2 67.9851 318.358 67.6791 318.513 67.2824L318.579 67.1068C321.489 59.1117 328.545 53.5126 336.82 52.3576C337.508 52.2615 338.143 52.7414 338.24 53.4295C338.336 54.1175 337.856 54.7532 337.168 54.8492C329.928 55.8597 323.741 60.691 321.076 67.6134L320.943 67.9672C319.864 70.932 317.531 72.2128 316.039 69.9426C315.017 68.3869 315.088 65.4501 316.28 62.1759C319.377 53.6659 327.163 47.9 336.04 47.2666Z" fill="white"/>
<path d="M328.318 34.7713C329.011 34.7218 329.613 35.2435 329.663 35.9365C329.712 36.6294 329.19 37.2313 328.498 37.2807C317.236 38.0842 307.36 45.3981 303.431 56.1938C302.094 59.8678 301.982 62.9818 302.712 64.2762L302.779 64.3856C302.887 64.5502 302.851 64.555 302.879 64.5323L302.895 64.5213C303.265 64.3182 303.754 63.6263 304.2 62.4787L304.289 62.2431C308.302 51.2167 318.032 43.4949 329.445 41.9018C330.133 41.8057 330.769 42.2857 330.865 42.9737C330.961 43.6618 330.481 44.2974 329.793 44.3935C319.43 45.84 310.577 52.7773 306.799 62.7099L306.653 63.1035C305.257 66.9395 302.457 68.4764 300.676 65.7672C299.349 63.7474 299.446 59.7869 301.067 55.3333C305.339 43.5967 316.075 35.6447 328.318 34.7713Z" fill="white"/>
<path d="M314.534 23.028C315.216 22.8945 315.877 23.3389 316.01 24.0207C316.144 24.7024 315.699 25.3634 315.017 25.4969C304.822 27.4936 296.623 35.2808 294.245 45.581C293.44 49.067 293.684 51.9015 294.473 52.983L294.578 53.1185L294.586 53.1374L294.601 53.126C294.884 52.8708 295.215 52.2188 295.471 51.2081L295.525 50.986C297.97 40.3924 306.047 32.1923 316.363 29.4385C317.034 29.2593 317.724 29.6582 317.903 30.3294C318.082 31.0006 317.683 31.69 317.012 31.8692C307.718 34.3502 300.416 41.6675 298.072 51.15L297.976 51.5519C297.113 55.2882 294.637 57.0717 292.631 54.7067C291.163 52.9768 290.803 49.3063 291.794 45.0151C294.397 33.7391 303.373 25.2137 314.534 23.028Z" fill="white"/>
<path d="M175.092 178.169L175.818 177.905C182.681 175.442 188.472 174.355 189.943 175.852C191.233 177.164 192.382 179.541 193.472 183.027C193.679 183.69 193.31 184.396 192.647 184.603C191.984 184.811 191.278 184.441 191.071 183.778C190.129 180.763 189.167 178.734 188.257 177.731L188.22 177.691L188.188 177.693C188.015 177.658 187.757 177.64 187.428 177.647C186.703 177.661 185.712 177.788 184.529 178.023C182.095 178.505 179.018 179.402 175.962 180.529C170.853 182.414 166.597 184.628 164.246 186.628C163.383 187.363 161.807 185.317 163.324 184.145C166.052 182.037 170.191 179.977 175.092 178.169Z" fill="white"/>
<path d="M171.638 154.405C171.638 158.601 176.075 163.144 177.019 163.403C177.689 163.586 166.145 171.108 166.145 171.108C161.973 171.657 159.524 168.131 159.524 162.878C159.524 162.184 171.638 153.711 171.638 154.405Z" fill="white"/>
<path fill-rule="evenodd" clip-rule="evenodd" d="M158.025 156.61C159.486 156.326 160.479 155.109 160.242 153.891C160.006 152.673 158.629 151.916 157.168 152.2C155.706 152.484 154.714 153.702 154.95 154.92C155.187 156.137 156.564 156.894 158.025 156.61Z" fill="#FFB61D"/>
<path d="M306.925 16.0524C307.609 15.9332 308.261 16.3914 308.38 17.0758C308.499 17.7602 308.041 18.4117 307.357 18.5309C304.101 19.0979 300.819 21.0682 297.435 24.2021C293.04 28.2715 290.137 33.8945 288.537 41.3918C287.247 47.432 288.437 54.9796 291.808 61.6147C295.642 69.1634 302.426 71.029 310.336 72.4737C318.455 73.9568 320.699 73.0409 328.372 70.3132L329.078 70.0567C330.127 69.6595 335.03 67.7412 336.208 67.3847C338.689 66.6345 340.381 66.6973 341.608 68.0048C342.083 68.5114 342.058 69.3075 341.552 69.7829C341.077 70.2286 340.347 70.2342 339.866 69.8157L339.774 69.7264C339.412 69.3407 338.663 69.296 337.157 69.7279L336.937 69.7928C335.803 70.1357 330.486 72.2224 329.798 72.4737C321.51 75.4988 318.7 76.5589 309.884 74.9486C301.147 73.3529 293.735 70.9641 289.565 62.7541C285.94 55.6189 284.663 47.4867 286.076 40.8665C287.785 32.8649 290.948 26.7798 295.725 22.3561C299.465 18.8933 303.191 16.7028 306.925 16.0524Z" fill="white"/>
<path d="M366.102 116.145C358.93 115.778 353.283 121.317 353.224 128.751C353.174 135.015 356.702 140.174 361.549 141.173C363.51 141.577 367.273 141.091 370.064 139.526C374.302 137.253 377.542 132.58 377.95 128.598C378.616 122.112 373.365 116.516 366.102 116.145Z" fill="white"/>
<path d="M236.156 114.835C238.447 119.461 242.004 130.147 240.465 130.095C236.192 129.953 230.475 123.385 226.476 114.505L226.16 113.791C222.668 105.729 220.577 100.663 223.006 99.6931C225.517 98.6895 231.429 105.287 236.156 114.835Z" fill="white"/>
<path fill-rule="evenodd" clip-rule="evenodd" d="M223.005 99.5924C225.517 98.5888 231.515 104.885 236.243 114.433C238.534 119.059 240.087 123.497 240.493 126.68C240.493 126.68 232.757 110.38 228.039 104.41C226.227 102.117 223.005 99.5924 223.005 99.5924Z" fill="#E7EAEE"/>
<path d="M221.688 140.642C221.872 139.972 222.564 139.578 223.234 139.763C223.904 139.947 224.298 140.639 224.114 141.309C223.877 142.171 220.545 144.431 213.274 148.912L208.685 151.721C199.626 157.236 193.581 160.765 192.826 160.765C187.824 160.765 183.317 156.046 180.026 148.601C177.153 142.1 175.661 134.362 176.335 129.291C176.545 127.708 181.818 123.611 189.96 118.122L191.126 117.34C198.329 112.542 204.486 108.983 206.714 108.534C207.395 108.396 208.058 108.837 208.195 109.518C208.281 109.944 188.427 126.68 186.487 137.787C185.174 145.308 190.139 158.128 192.603 158.243L192.826 158.249C192.625 158.249 192.69 158.202 192.713 158.189L192.94 158.072C193.107 157.984 193.305 157.877 193.534 157.752L194.58 157.166C194.981 156.939 195.427 156.684 195.915 156.402L197.164 155.677C199.547 154.285 202.521 152.513 205.554 150.678L208.439 148.924C211.948 146.781 215.117 144.804 217.5 143.269L218.727 142.472C219.487 141.973 220.129 141.542 220.642 141.184L220.829 141.054C221.112 140.854 221.347 140.682 221.531 140.542C221.531 140.542 221.738 140.459 221.688 140.642Z" fill="white"/>
<path fill-rule="evenodd" clip-rule="evenodd" d="M224.182 115.538C221.142 108.789 219.799 102.604 220.817 98.8589C218.978 99.4433 216.678 100.494 214.396 101.803C211.362 103.544 208.954 105.489 208.898 105.912C208.312 110.326 210.562 118.915 214.303 126.571C218.303 134.761 223.063 140.022 226.748 140.022C227.1 140.022 228.11 139.814 229.122 139.46C230.561 138.958 231.91 138.225 233.014 137.265C233.563 136.788 234.132 136.249 234.726 135.647L235.441 134.907C235.863 134.461 236.299 133.981 236.978 133.219L237.925 132.162L237.966 132.117C233.226 130.385 228.269 124.28 224.56 116.363L224.182 115.538ZM206.404 105.58C206.795 102.635 217.821 96.2692 222.853 95.858C223.064 95.7259 223.289 95.6115 223.529 95.5155C227.886 93.7743 234.526 101.233 239.852 111.728L240.218 112.456C242.622 117.312 244.262 121.997 244.709 125.501C245.243 129.689 244.03 132.465 240.851 132.608C240.766 132.938 240.55 133.214 240.265 133.38L240.216 133.405L240.092 133.529C239.967 133.657 239.82 133.816 239.593 134.068L238.031 135.812C237.463 136.438 237.061 136.862 236.517 137.414C235.88 138.059 235.266 138.642 234.664 139.165C232.229 141.28 228.629 142.538 226.748 142.538C225.75 142.538 224.741 142.306 223.73 141.863C222.651 142.989 219.328 145.181 213.274 148.912L208.685 151.721C199.626 157.236 193.581 160.764 192.826 160.764C191.113 160.764 189.458 160.211 187.89 159.184C187.875 159.194 187.86 159.204 187.845 159.214L187.205 159.626C184.977 161.071 181.413 163.473 178.108 165.702L178.107 165.702L177.9 165.842C178.328 168.897 179.301 171.959 180.823 175.033C186.225 173.363 190.505 172.798 191.74 174.055C193.03 175.367 194.179 177.744 195.269 181.23C195.476 181.893 195.107 182.599 194.444 182.806C193.781 183.014 193.075 182.644 192.868 181.981C191.926 178.966 190.964 176.937 190.054 175.934L190.017 175.894L189.985 175.896C189.812 175.861 189.554 175.843 189.225 175.85C188.5 175.864 187.509 175.991 186.326 176.226C183.892 176.708 180.815 177.605 177.759 178.732C170.775 181.309 165.384 184.502 164.276 186.921C163.952 187.629 163.993 188.666 164.381 190.252L164.453 190.538C164.511 190.763 164.572 190.986 164.651 191.268L165.106 192.875L165.134 192.983L165.167 193.108C165.341 193.781 164.938 194.467 164.265 194.642C163.593 194.816 162.906 194.413 162.732 193.74L162.508 192.927L162.136 191.614C162.094 191.459 162.056 191.315 162.018 191.17C161.428 188.897 161.334 187.304 161.989 185.874C163.099 183.448 166.574 180.936 171.412 178.651L170.36 175.933L170.1 175.245C169.701 174.174 169.237 172.72 168.953 171.66C165.174 173.697 162.541 174.038 159.904 172.602L159.699 172.486C159.177 172.184 158.675 171.836 158.168 171.412L143.425 180.366C143.562 180.662 143.7 180.959 143.84 181.26C144.501 182.678 143.335 183.683 141.545 184.464L141.352 184.546C139.814 185.184 138.426 185.33 137.6 184.423C134.172 180.66 130.542 171.658 132.495 169.6C132.87 169.204 133.859 168.616 135.731 167.634L135.88 167.557C135.918 167.53 135.958 167.505 136 167.483L149.782 160.016C149.813 159.999 149.845 159.984 149.878 159.969C149.026 158.562 148.093 156.994 147.061 155.245C147.008 155.159 146.966 155.068 146.936 154.975C146.874 154.786 146.86 154.589 146.888 154.4C146.914 154.223 146.979 154.05 147.08 153.896C147.137 153.809 147.205 153.728 147.284 153.656C150.118 150.969 153.979 148.167 158.822 145.15L159.409 144.786C161.505 143.494 165.754 141.07 169.365 139.011L169.366 139.01L169.367 139.01L169.367 139.01L169.367 139.01L169.368 139.009C172.169 137.412 174.586 136.033 175.313 135.573L175.489 135.456C175.753 135.264 176.066 135.188 176.366 135.221C176.127 133.039 176.106 131.011 176.335 129.291C176.545 127.708 181.818 123.611 189.96 118.122L191.126 117.34C197.95 112.794 203.836 109.361 206.33 108.63C206.263 107.504 206.285 106.477 206.404 105.58ZM206.606 111.181C204.162 112.074 198.043 115.707 191.366 120.208L190.297 120.933C187.292 122.983 184.517 124.982 182.42 126.611L181.837 127.068C180.902 127.81 180.145 128.449 179.596 128.961C179.32 129.218 179.103 129.438 178.95 129.613L178.843 129.739C178.82 129.764 178.813 129.754 178.822 129.675L178.829 129.622C178.826 129.642 178.824 129.66 178.822 129.675L178.789 129.945C177.579 140.561 185.255 157.898 192.603 158.243L192.776 158.248C192.79 158.248 192.807 158.249 192.826 158.249L192.776 158.248C192.637 158.24 192.692 158.201 192.713 158.189L192.94 158.072C193.107 157.984 193.305 157.877 193.534 157.752L194.58 157.166C194.981 156.939 195.427 156.684 195.915 156.402L197.164 155.677C199.547 154.285 202.521 152.513 205.554 150.678L208.439 148.924C211.948 146.781 215.117 144.804 217.5 143.269L218.727 142.472C219.487 141.973 220.129 141.542 220.642 141.184L220.829 141.054C221.101 140.862 221.329 140.696 221.509 140.558C218.269 138.181 215.078 133.789 212.246 128.089L212.042 127.676C209.312 122.088 207.338 116.036 206.606 111.181ZM176.713 137.66C175.806 138.231 173.128 139.76 170.149 141.461L170.149 141.461C166.619 143.477 162.665 145.734 160.729 146.928C156.157 149.746 152.47 152.359 149.733 154.819L150.64 156.349C154.607 163.005 156.904 166.507 158.752 168.486C158.138 167.03 157.82 165.182 157.82 162.865C157.82 162.758 157.833 162.654 157.858 162.555C157.736 162.073 157.908 161.544 158.333 161.232L159.19 160.595C159.704 160.207 160.548 159.562 161.508 158.828L161.511 158.826C163.615 157.218 166.273 155.187 167.222 154.507C170.205 152.37 172.404 151.171 174.406 150.755C175.362 150.556 176.105 151.122 176.32 151.998L176.356 152.158C176.406 152.418 176.415 152.675 176.414 153.235L176.413 153.413C176.403 155.506 176.61 156.714 177.497 158.109C178.103 159.064 178.995 159.935 180.237 160.715C180.367 160.797 180.477 160.899 180.565 161.014C182.569 159.668 184.445 158.417 185.83 157.519C183.648 155.407 181.683 152.35 180.026 148.601C178.483 145.109 177.338 141.26 176.713 137.66ZM242.213 125.82C241.807 122.637 240.254 118.199 237.963 113.573C233.235 104.025 226.974 96.8481 224.462 97.8517C222.034 98.8219 222.668 105.729 226.16 113.791L226.475 114.505C230.475 123.385 236.192 129.953 240.465 130.095C242.004 130.147 242.605 128.89 242.213 125.82ZM151.177 162.096C153.36 165.624 154.954 167.955 156.343 169.577L142.367 178.066C140.935 174.927 139.654 172.006 138.411 169.038L150.98 162.228C151.051 162.19 151.117 162.146 151.177 162.096ZM178.41 175.827C177.054 173.022 176.117 170.209 175.602 167.39C173.796 168.606 172.225 169.658 171.214 170.314C171.387 171.182 172.031 173.242 172.585 174.707L173.617 177.364L173.715 177.624C174.73 177.195 175.79 176.777 176.889 176.372L177.615 176.108C177.882 176.012 178.147 175.918 178.41 175.827ZM178.365 162.494C177.077 161.601 176.089 160.584 175.373 159.458C174.215 157.635 173.911 156.078 173.897 153.726L173.897 153.515L173.719 153.582C172.443 154.077 170.921 154.973 169.009 156.323L168.687 156.552C167.776 157.205 165.185 159.185 163.095 160.782C161.932 161.67 160.925 162.44 160.448 162.797L160.336 162.88C160.338 167.065 161.383 168.985 163.326 169.917L163.481 169.989C163.944 170.193 164.275 170.296 165.219 170.555C165.238 170.56 165.256 170.566 165.274 170.572C166.254 170.242 167.377 169.692 168.718 168.906L169.218 168.606C170.325 167.915 173.298 165.911 176.568 163.705L176.569 163.705L176.574 163.701L176.585 163.694L176.588 163.692C177.174 163.297 177.769 162.895 178.365 162.494ZM136.188 170.241L136.381 170.7C137.717 173.868 139.105 177.005 140.681 180.426L141.294 181.754C141.093 181.889 140.829 182.032 140.538 182.159C140.121 182.341 139.698 182.469 139.38 182.512L139.278 182.522L139.125 182.338C137.934 180.872 136.552 178.381 135.553 175.904C135.022 174.585 134.643 173.375 134.472 172.445C134.402 172.066 134.37 171.748 134.373 171.507L134.38 171.348C134.383 171.309 134.383 171.289 134.373 171.286L134.411 171.261C134.624 171.114 135.167 170.796 135.974 170.357L136.188 170.241ZM153.54 167.47C153.054 166.974 152.258 166.966 151.762 167.453C150.889 168.308 149.667 169.105 147.532 170.291L145.359 171.496C144.785 171.823 144.314 172.106 143.889 172.382C143.533 172.612 143.215 172.835 142.929 173.056C142.38 173.481 142.278 174.271 142.703 174.82C143.128 175.37 143.918 175.471 144.468 175.047C144.695 174.871 144.957 174.688 145.258 174.492C145.536 174.312 145.841 174.125 146.195 173.918L146.887 173.522L149.095 172.299C151.215 171.109 152.493 170.259 153.523 169.249C154.019 168.762 154.027 167.966 153.54 167.47Z" fill="#00160A"/>
<path d="M125.403 295.212C131.693 330.284 155.27 356.65 185.355 362.866C190.878 364.007 200.44 364.157 210.343 362.875C223.1 361.224 235.517 357.436 246.437 351.298C276.434 335.175 299.196 302.272 302.147 273.468C304.738 248.168 295.072 224.794 277.574 208.12C277.574 208.12 222.607 235.118 195.624 250.464C172.145 263.817 125.403 295.212 125.403 295.212Z" fill="white"/>
<path d="M253.414 190.626C242.139 185.063 228.013 180.669 214.162 179.961C163.359 177.363 123.404 217.947 122.988 270.294C122.988 270.294 179.688 234.178 209.146 216.753C223.801 208.083 253.414 190.626 253.414 190.626Z" fill="white"/>
<path fill-rule="evenodd" clip-rule="evenodd" d="M357.908 163.948C357.737 172.694 348.483 187.25 333.606 203.723C322.829 215.655 310.289 227.19 299.775 234.962L299.12 235.441L299.555 237.373C302.112 248.579 305.45 260.761 304.189 273.045C301.128 302.862 277.805 336.502 246.986 353.03C235.745 359.335 222.968 363.224 209.862 364.917L208.613 365.071C198.84 366.222 189.489 366.031 183.774 364.853C161.592 360.28 142.812 344.774 131.458 322.333C131.42 322.257 131.39 322.18 131.369 322.101C129.874 322.954 127.863 323.907 126.944 324.219L124.428 325.069C97.31 334.19 70.4259 341.821 59.4433 337.058C55.2623 335.245 53.8333 331.758 55.5818 327.074C57.2811 322.521 61.9926 316.654 69.8973 309.354L70.3316 308.954C77.8219 302.088 94.4558 289.541 120.233 271.314L120.24 270.979C121.498 216.97 163.45 175.797 216.184 179.158C232.313 180.186 245.158 185.918 251.574 189.437L254.395 187.923C280.857 173.774 302.09 163.828 318.29 157.874C344.932 148.084 358.107 152.662 357.908 163.948ZM319.158 163.676C289.368 174.623 242.287 199.244 176.737 238.848L174.745 240.053C123.703 270.951 89.9035 294.426 72.0316 310.809L71.1508 311.622L70.3156 312.405C56.8996 325.081 54.5217 332.182 60.4442 334.75C70.5827 339.147 97.8094 331.735 124.473 322.989L126.944 322.174C129.322 321.386 130.899 320.934 131.875 320.725C131.917 320.695 131.964 320.667 132.013 320.642C132.346 320.474 132.72 320.468 133.042 320.594C133.112 320.608 133.157 320.63 133.181 320.66C133.399 320.777 133.583 320.96 133.703 321.197C144.725 342.982 162.888 356.258 184.282 360.669C189.836 361.814 199.205 361.982 208.955 360.776L209.54 360.702C222.344 359.048 234.815 356.972 245.776 350.824C275.893 334.672 298.712 301.759 301.686 272.789C302.957 260.407 301.335 248.254 297.023 236.942C296.667 237.191 296.314 237.435 295.963 237.674C295.301 238.125 295.549 237.394 296.705 235.48C296.766 235.231 296.904 235.003 297.102 234.832L297.458 234.268C297.582 234.072 297.714 233.867 297.851 233.655L299.342 232.397C313.394 220.512 324.193 210.392 331.739 202.037L332.6 201.078C346.562 185.454 355.24 171.653 355.383 163.901C355.541 155.397 344.321 154.429 319.158 163.676ZM192.842 322.759C196.217 333.075 191.111 339.709 182.123 340.052C173.818 340.369 166.256 335.136 166.641 327.7C166.974 321.273 171.375 314.402 176.793 311.879C183.345 308.827 189.495 312.529 192.842 322.759ZM178.12 314.73C173.785 316.749 170.056 322.57 169.782 327.863C169.509 333.133 175.334 337.164 182.003 336.91C188.975 336.644 192.555 331.993 189.853 323.737C187.041 315.141 182.764 312.567 178.12 314.73ZM261.465 301.738C265.771 309.876 264.644 317.87 258.022 321.454L257.836 321.551L257.74 321.648C248.86 330.441 237.767 331.508 230.532 325.134L230.284 324.911C221.951 317.278 223.937 304.163 237.197 293.882C245.73 287.266 256.154 291.702 261.465 301.738ZM238.848 296.012C226.81 305.346 225.118 316.523 232.105 322.924C237.116 327.514 244.521 327.768 251.436 323.312L251.571 323.223L251.521 323.212C251.042 323.086 250.658 322.699 250.549 322.196L250.527 322.068C250.44 321.329 250.968 320.658 251.707 320.571C253.398 320.37 254.865 319.962 256.109 319.378L256.279 319.295L256.485 319.082C257.297 318.228 258.089 317.298 258.857 316.293L259.112 315.956C259.4 315.57 259.855 315.382 260.302 315.418L260.337 315.422L260.355 315.388C261.97 312.197 261.587 307.873 259.224 303.27L259.082 302.999C254.464 294.272 245.831 290.598 238.848 296.012ZM319.008 199.283C318.316 201.744 316.207 205.122 312.976 209.121C307.342 216.093 298.879 224.208 291.481 229.758L293.122 227.953C293.106 227.938 293.092 227.919 293.08 227.897L292.514 226.857C288.812 220.1 284.688 213.435 278.023 208.001C260.77 215.115 240.988 224.838 222.965 235.005L217.058 238.344C173.554 262.987 150.666 277.741 126.191 295.878C127.115 300.038 128.279 304.098 129.673 308.031C129.892 308.649 127.033 310.959 126.51 310.674C121.628 313.945 113.982 316.321 109.629 316.445C105.387 316.565 102.936 314.848 104.198 311.424C105.255 308.559 109.233 304.474 116.394 298.999L117.21 298.379L118.86 297.139C145.809 276.964 172.487 260.592 221.729 232.814L223.79 231.657C257.564 212.805 296.674 195.82 314.589 194.253C318.271 193.931 319.941 195.969 319.008 199.283ZM122.914 298.318L117.268 302.579C112.231 306.398 108.6 309.223 106.638 311.035L106.494 311.169C104.1 313.414 106.81 314.008 109.558 313.93C113.72 313.812 120.095 310.656 125.492 307.784C124.495 304.694 123.634 301.535 122.914 298.318ZM211.231 284.66C211.904 284.831 212.311 285.515 212.14 286.189C211.969 286.862 211.285 287.269 210.611 287.098C207.229 286.239 205.231 286.569 204.582 287.48C204.152 288.085 204.39 289.115 205.195 289.773C205.823 290.287 206.66 290.532 207.236 290.407C207.736 290.298 208.017 289.912 208.017 288.946C208.017 288.251 208.58 287.688 209.275 287.688C209.97 287.688 210.533 288.251 210.533 288.946C210.533 291.047 209.482 292.493 207.771 292.865C206.395 293.165 204.793 292.694 203.602 291.72C201.843 290.281 201.269 287.797 202.533 286.021C203.918 284.075 206.954 283.574 211.231 284.66ZM155.974 280.042C157.914 280.623 158.749 282.113 159.013 284.348L159.039 284.59L159.071 284.957C159.076 285.019 159.08 285.082 159.084 285.149L159.15 286.426L159.17 286.713C159.18 286.84 159.191 286.944 159.204 287.035L159.238 287.228L159.258 287.312L159.293 287.343C159.682 287.723 159.785 288.319 159.534 288.812L159.47 288.923C159.093 289.507 158.314 289.675 157.731 289.299C156.927 288.78 156.745 288.247 156.647 286.717L156.567 285.219C156.558 285.084 156.548 284.967 156.535 284.834C156.392 283.369 156.035 282.686 155.252 282.452C153.055 281.794 151.794 282.466 151.394 283.934C151.039 285.243 151.553 286.618 152.455 287L152.683 287.085C153.273 287.337 153.585 288.001 153.386 288.624C153.175 289.285 152.467 289.651 151.805 289.44C149.41 288.676 148.272 285.83 148.967 283.274C149.742 280.421 152.44 278.983 155.974 280.042ZM246.729 260.78C250.212 265.677 249.564 271.909 243.975 274.728C243.355 275.041 242.599 274.792 242.286 274.172C241.973 273.552 242.222 272.795 242.842 272.482C246.889 270.441 247.351 265.995 244.678 262.238C242.082 258.589 238.469 258.187 235.986 262.131C233.353 266.312 233.544 268.766 235.44 269.871C236.944 270.748 239.367 270.564 240.033 269.847L240.098 269.768C240.501 269.202 241.286 269.07 241.852 269.473C242.418 269.876 242.55 270.661 242.147 271.227C240.749 273.191 236.758 273.552 234.172 272.044C230.862 270.114 230.545 266.05 233.857 260.79C237.403 255.159 243.187 255.801 246.729 260.78ZM194.575 253.567C195.229 253.567 195.766 254.066 195.827 254.704L195.833 254.825C195.833 255.047 196.038 255.294 196.777 255.836L197.475 256.336C198.237 256.892 198.604 257.236 198.951 257.785C199.744 259.039 200.194 260.316 200.194 261.817C200.194 265.662 194.418 270.891 188.114 273.217C180.557 276.007 174.365 273.938 172.681 266.184C172.533 265.505 172.964 264.835 173.643 264.687C174.322 264.54 174.992 264.971 175.139 265.649C176.447 271.668 180.961 273.176 187.243 270.857C192.667 268.855 197.678 264.319 197.678 261.817C197.678 260.85 197.383 260.013 196.824 259.13L196.749 259.023C196.621 258.862 196.42 258.687 196.06 258.419L195.23 257.821C193.851 256.804 193.317 256.118 193.317 254.825C193.317 254.13 193.88 253.567 194.575 253.567ZM200.48 183.845L199.685 183.934C156.761 189.097 124.559 223.429 122.803 269.5L127.409 266.259C140.628 256.98 155.973 246.38 173.442 234.461L176.846 232.403C187.008 226.272 196.725 220.502 206.001 215.089C205.831 214.792 205.784 214.428 205.899 214.078C206.547 212.098 207.146 210.768 208.245 209.436C211.682 205.266 216.39 203.23 219.726 205.848C220.055 206.106 220.22 206.494 220.207 206.882L223.171 205.191C232.502 199.879 241.332 194.973 249.666 190.466L246.411 189.54C241.584 188.181 235.578 186.569 229.596 185.329C229.651 189.31 226.671 192.488 221.721 194.675C217.513 196.533 212.029 197.533 208.13 197.301C200.835 196.866 196.729 190.468 200.48 183.845ZM275.777 238.474C278.855 246.884 276.316 254.532 268.629 254.482C257.678 254.41 246.984 244.848 248.713 236.282C249.484 232.46 252.357 229.08 257.352 227.393C265.331 224.699 272.643 229.913 275.777 238.474ZM258.157 229.777C254.029 231.171 251.776 233.822 251.179 236.78C249.807 243.579 259.117 251.904 268.646 251.966C274.104 252.001 275.981 246.35 273.414 239.339C270.699 231.92 264.628 227.591 258.157 229.777ZM165.66 199.997L165.75 200.127L166.355 201.09C166.652 201.579 166.917 202.058 167.17 202.575C169.956 208.272 169.884 215.739 165.17 226.104C163.034 230.8 157.592 237.111 152.841 240.877C146.774 245.686 142.244 246.778 136.837 246.184L135.232 245.996L135.037 245.978C134.929 245.97 134.861 245.969 134.785 245.972L134.675 245.976C134.592 245.98 134.563 245.976 134.558 245.965L134.557 245.956L134.517 246.022C134.152 246.545 133.444 246.717 132.875 246.4C132.267 246.063 132.049 245.297 132.387 244.69C132.839 243.877 133.595 243.509 134.556 243.463C134.811 243.451 135.08 243.46 135.401 243.487L135.776 243.523L136.814 243.649C141.739 244.246 145.658 243.36 151.278 238.905C155.741 235.368 160.929 229.351 162.879 225.063C167.292 215.363 167.356 208.681 164.91 203.681C164.747 203.348 164.578 203.031 164.393 202.714L164.13 202.274L163.603 201.44C163.234 200.851 163.411 200.075 164 199.706C164.552 199.36 165.269 199.494 165.66 199.997ZM314.808 196.759C306.766 197.463 294.16 201.435 279.627 207.344L280.051 207.72C284.096 211.349 292.256 219.953 294.811 226.091L297.355 223.27C303.632 216.287 308.187 211.044 311.019 207.54L311.592 206.821C314.299 203.387 316.048 200.517 316.587 198.602L316.663 198.311C316.999 196.929 316.61 196.602 314.808 196.759ZM194.359 200.846C197.49 202.359 198.761 205.729 196.701 208.784C196.313 209.36 195.531 209.512 194.955 209.124C194.379 208.736 194.227 207.954 194.615 207.378C195.748 205.697 195.109 204.002 193.264 203.111C191.322 202.171 189.194 202.712 188.095 204.762C187.083 206.651 187.013 209.208 187.822 210.883C188.531 212.354 189.564 212.636 191.139 211.45C191.694 211.032 192.483 211.143 192.9 211.698C193.318 212.253 193.207 213.042 192.652 213.46C189.781 215.621 186.94 214.845 185.556 211.977C184.396 209.572 184.488 206.167 185.878 203.574C187.65 200.266 191.263 199.349 194.359 200.846ZM210.186 211.036C209.6 211.748 209.18 212.498 208.792 213.462C212.034 211.579 215.22 209.739 218.352 207.943L218.261 207.89L218.173 207.827C216.253 206.32 212.867 207.784 210.186 211.036ZM204.822 183.46L203.721 183.538L203.648 183.631C199.299 189.126 200.974 193.586 206.913 194.22C211.178 194.675 222.5 191.51 223.828 190.4C225.121 189.318 226.757 186.83 227.009 184.815C223.167 184.093 219.408 183.562 216.055 183.39C212.629 183.215 209.25 183.219 205.927 183.395L204.822 183.46Z" fill="#00160A"/>
<path d="M318.395 163.988C345.036 154.198 344.426 157.102 319.262 166.349C289.472 177.296 177.021 245.891 177.021 245.891C125.979 276.789 122.16 272.02 171.634 241.952L174.683 240.103C175.258 239.755 231.584 204.205 271.833 185.186C276.362 183.046 315.362 165.102 318.395 163.988Z" fill="white"/>
<path fill-rule="evenodd" clip-rule="evenodd" d="M364.396 115.249C356.141 114.827 349.697 121.242 349.63 129.636C349.574 136.668 353.609 142.64 359.39 143.831C360.913 144.145 365.305 144.145 369.116 142.008L369.431 141.834C374.236 139.113 377.504 133.938 377.941 129.68C378.716 122.132 372.652 115.671 364.396 115.249ZM351.427 129.65C351.428 129.596 351.428 129.542 351.429 129.488C351.481 129.471 351.531 129.45 351.58 129.423C358.053 125.937 362.049 123.28 363.644 121.361C364.697 120.094 365.211 118.665 365.169 117.113C366.256 117.233 367.292 117.472 368.263 117.813C368.258 117.86 368.255 117.907 368.257 117.956C368.336 120.19 367.74 121.976 366.474 123.366C365.019 124.964 363.256 126.485 361.252 127.919C359.11 129.452 356.809 130.806 354.508 131.965C353.971 132.236 353.46 132.482 352.981 132.705L352.287 133.02C352.187 133.064 352.095 133.104 352.01 133.141L351.803 133.228C351.549 132.095 351.417 130.894 351.427 129.65ZM352.308 134.965C352.877 136.543 353.702 137.941 354.722 139.08L355.259 138.772C363.705 133.881 368.949 130.04 370.933 127.33C372.94 124.59 373.655 122.486 373.206 121.055C373.196 121.022 373.187 120.988 373.181 120.954C372.297 120.026 371.244 119.228 370.058 118.599C370.008 120.973 369.257 122.979 367.803 124.576C366.256 126.275 364.399 127.877 362.298 129.381C360.074 130.972 357.695 132.372 355.317 133.57C354.623 133.92 353.97 134.231 353.369 134.504L352.669 134.814L352.308 134.965ZM359.035 141.89C357.974 141.573 356.985 141.053 356.096 140.364C364.791 135.334 370.201 131.372 372.383 128.392C373.737 126.543 374.602 124.881 374.954 123.397C375.391 124.214 375.723 125.085 375.935 125.995C375.89 126.087 375.859 126.189 375.848 126.298C375.629 128.399 374.546 130.484 372.567 132.56C370.667 134.553 366.566 137.428 360.3 141.146L359.035 141.89ZM362.072 142.181C364.001 142.059 366.361 141.493 368.267 140.424C371.812 138.523 374.658 134.942 375.734 131.492C375.214 132.271 374.591 133.041 373.867 133.8C371.916 135.847 367.995 138.628 362.072 142.181ZM351.95 127.177L351.63 127.35C352.65 121.413 357.394 117.152 363.368 117.029C363.431 118.195 363.069 119.242 362.262 120.212C360.959 121.78 357.501 124.126 351.95 127.177Z" fill="#00160A"/>
<path fill-rule="evenodd" clip-rule="evenodd" d="M429.263 98.031C429.431 98.0503 429.547 98.2018 429.529 98.3684C429.528 98.6136 429.37 98.7461 429.158 98.8323C428.966 98.909 428.661 98.8796 428.483 98.9037C426.537 99.0539 425.008 97.622 424.335 95.7766C423.689 94.0038 423.861 91.884 425.034 90.5767C425.169 90.4225 425.403 90.4071 425.557 90.5421C425.711 90.6772 426.587 90.9119 426.452 91.066C425.484 92.1954 424.83 92.8806 425.742 95.5612C426.655 98.2418 429.138 98.0166 429.263 98.031Z" fill="#E7EAEE"/>
<path fill-rule="evenodd" clip-rule="evenodd" d="M119.443 117.223C118.932 116.872 118.233 117.002 117.881 117.514C117.53 118.025 117.66 118.724 118.172 119.075C118.733 119.461 119.23 119.817 119.668 120.148C119.196 120.523 118.725 120.954 118.235 121.443L117.242 122.452C116.805 122.893 116.808 123.604 117.249 124.04C117.689 124.477 118.4 124.474 118.837 124.033L120.029 122.829C120.514 122.357 120.968 121.961 121.425 121.633C122.441 122.64 122.75 123.378 122.767 124.112L122.767 124.3L122.773 124.415C122.83 124.981 123.308 125.423 123.89 125.423C124.51 125.423 125.013 124.92 125.013 124.3L125.013 124.079C124.992 122.935 124.588 121.847 123.501 120.603C124.219 120.39 125.028 120.27 126.009 120.219C126.629 120.186 127.105 119.658 127.072 119.038C127.04 118.419 126.512 117.943 125.892 117.975C124.189 118.064 122.865 118.348 121.686 118.888C121.193 118.485 120.636 118.063 120.005 117.616L119.443 117.223Z" fill="#00160A"/>
<path fill-rule="evenodd" clip-rule="evenodd" d="M287.734 363.329L288.513 363.332C292.868 363.373 296.27 363.765 302.679 364.794C303.414 364.912 303.914 365.604 303.796 366.339C303.678 367.073 302.987 367.574 302.252 367.456L300.151 367.125C294.849 366.311 291.793 366.024 287.734 366.024C273.649 366.024 264.657 374.841 266.179 388.364C266.262 389.104 265.73 389.771 264.99 389.854C264.25 389.938 263.583 389.405 263.5 388.666C261.789 373.457 272.118 363.329 287.734 363.329ZM298.642 368.771L298.511 368.655C298.384 368.546 298.189 368.561 298.082 368.689C297.971 368.817 297.988 369.009 298.114 369.118L298.25 369.233C298.377 369.342 298.568 369.328 298.679 369.2C298.786 369.072 298.774 368.88 298.642 368.771ZM274.219 371.589C273.736 371.201 273.029 371.278 272.64 371.761C271.072 373.714 269.928 375.616 269.214 377.473C268.521 379.279 268.284 382.314 268.464 386.653L268.508 387.569C268.54 388.189 269.069 388.664 269.688 388.632C270.308 388.599 270.783 388.071 270.751 387.451C270.512 382.918 270.715 379.83 271.311 378.279C271.935 376.654 272.96 374.949 274.391 373.168C274.78 372.685 274.703 371.978 274.219 371.589ZM286.477 367.874C287.028 367.588 287.705 367.804 287.991 368.354C288.276 368.905 288.061 369.583 287.51 369.868C285.229 371.05 283.487 373.031 282.272 375.855C280.969 378.886 279.903 381.591 279.073 383.968C278.869 384.554 278.229 384.863 277.643 384.659C277.057 384.455 276.748 383.814 276.953 383.228C277.801 380.798 278.886 378.045 280.209 374.968C281.62 371.685 283.713 369.305 286.477 367.874ZM293.006 367.815C292.597 367.348 291.888 367.301 291.421 367.71C289.547 369.352 288.106 370.846 287.098 372.201C286.097 373.546 284.925 375.558 283.569 378.249C283.29 378.803 283.512 379.478 284.066 379.758C284.62 380.037 285.295 379.814 285.575 379.26C286.878 376.675 287.991 374.764 288.9 373.542C289.802 372.33 291.137 370.945 292.902 369.399C293.368 368.991 293.415 368.281 293.006 367.815ZM288.906 380.498C288.439 380.907 287.729 380.86 287.321 380.394C286.912 379.927 286.959 379.217 287.425 378.809C289.19 377.263 290.525 375.879 291.427 374.666C292.336 373.444 293.449 371.533 294.752 368.948C295.032 368.394 295.707 368.171 296.261 368.45C296.815 368.73 297.037 369.405 296.758 369.959C295.402 372.65 294.23 374.662 293.229 376.007C292.221 377.362 290.78 378.856 288.906 380.498ZM280.402 368.789C279.892 368.437 279.192 368.565 278.84 369.075C276.329 372.712 274.725 375.428 274.016 377.274C273.305 379.126 272.813 381.623 272.528 384.778C272.472 385.396 272.928 385.942 273.546 385.998C274.163 386.054 274.709 385.598 274.765 384.981C275.033 382.014 275.487 379.709 276.113 378.08C276.697 376.56 278.057 374.217 280.184 371.088L280.688 370.352C281.04 369.841 280.912 369.142 280.402 368.789Z" fill="#00160A"/>
<path fill-rule="evenodd" clip-rule="evenodd" d="M259.081 362.166L259.855 363.886L261.619 364.392C261.715 364.42 261.77 364.519 261.742 364.615C261.734 364.644 261.718 364.671 261.696 364.692L260.356 366.027L260.431 367.947C260.435 368.046 260.358 368.13 260.258 368.134C260.225 368.135 260.192 368.127 260.162 368.11L258.645 367.246C258.597 367.219 258.54 367.215 258.49 367.235L256.867 367.88C256.774 367.917 256.67 367.872 256.633 367.779C256.621 367.748 256.617 367.714 256.623 367.681L256.965 365.79L255.823 364.282C255.763 364.203 255.779 364.09 255.858 364.03C255.883 364.012 255.911 364 255.942 363.995L257.759 363.739L258.765 362.144C258.818 362.06 258.929 362.035 259.013 362.088C259.043 362.107 259.066 362.134 259.081 362.166Z" fill="#00160A"/>
<path fill-rule="evenodd" clip-rule="evenodd" d="M321.578 121.378C321.991 121.745 322.507 122.406 322.962 123.121L323.548 122.861L324.241 122.564C324.381 122.5 324.471 122.45 324.498 122.41C324.578 122.261 324.762 122.205 324.913 122.283C325.059 122.362 325.118 122.547 325.038 122.695C324.984 122.836 324.594 123.279 323.871 123.712C323.74 123.79 323.595 123.863 323.44 123.934C323.707 124.433 323.916 124.915 324.014 125.301C324.163 125.871 324.044 126.274 323.849 126.416C323.657 126.557 323.177 126.583 322.445 125.975C322.31 125.873 322.288 125.681 322.391 125.548C322.493 125.415 322.684 125.391 322.818 125.493C322.958 125.596 323.098 125.654 323.212 125.696L323.156 125.478C323.135 125.4 323.108 125.319 323.071 125.239C322.94 124.953 322.773 124.625 322.586 124.288C322.013 124.505 321.362 124.701 320.658 124.795C320.316 124.841 319.966 124.85 319.603 124.847C319.394 124.861 319.213 124.703 319.199 124.493C319.186 124.285 319.344 124.104 319.553 124.09C320.399 124.008 321.182 123.795 321.872 123.554L322.099 123.473C321.725 122.889 321.325 122.358 320.982 122.059C320.796 121.894 320.777 121.608 320.94 121.42C321.107 121.232 321.392 121.213 321.578 121.378Z" fill="#00160A"/>
<path fill-rule="evenodd" clip-rule="evenodd" d="M74.2798 273.43C73.1051 273.507 71.2423 273.806 69.7195 274.41C68.417 274.927 68.417 288.989 72.8701 290.11C77.2975 291.586 82.1386 289.632 81.5605 282.107C81.5501 281.949 81.4227 281.521 81.2767 281.031C81.0628 280.312 80.8089 279.46 80.8242 279.126C80.8843 277.945 80.5739 276.948 79.7545 276.323C78.8717 274.452 77.1417 273.245 74.2798 273.43ZM73.6423 286.687C71.4629 285.058 71.5394 277.458 74.0267 276.951C75.5746 278.141 76.9875 279.859 77.4642 283.169C76.9308 284.992 75.8049 286.047 74.8204 286.969C74.715 287.068 74.6113 287.165 74.5102 287.261C74.2291 287.102 73.9396 286.907 73.6423 286.687Z" fill="white"/>
<path fill-rule="evenodd" clip-rule="evenodd" d="M70.9958 282.256C70.7982 281.074 70.933 279.751 71.5274 278.338C71.7969 277.698 72.5056 277.177 73.3922 276.827C74.4286 276.418 75.6964 276.215 76.4958 276.162C78.4435 276.037 79.6205 276.852 80.2207 278.118C80.7782 278.54 80.9892 279.214 80.948 280.013C80.9303 280.393 81.4309 281.767 81.4482 282.029C81.8395 287.118 78.5444 288.442 75.5319 287.444C74.3873 288.026 73.2833 288.123 72.4524 287.505C71.7071 286.953 71.135 285.79 71.0039 283.739C70.969 283.21 70.9663 282.716 70.9958 282.256ZM76.3394 278.905C74.6108 279.245 74.5385 284.234 76.0479 285.298C76.2539 285.441 76.4544 285.569 76.6492 285.673C77.3788 285.015 77.9229 284.483 78.2316 283.395C78.5403 282.307 77.4114 279.683 76.3394 278.905Z" fill="#FFB61D"/>
<path fill-rule="evenodd" clip-rule="evenodd" d="M188.955 406.878C188.444 406.527 187.744 406.657 187.393 407.169C187.042 407.68 187.172 408.379 187.683 408.73C188.245 409.116 188.742 409.472 189.18 409.803C188.708 410.178 188.237 410.609 187.747 411.098L186.753 412.107C186.317 412.548 186.32 413.259 186.76 413.696C187.201 414.132 187.912 414.129 188.349 413.689L189.541 412.484C190.026 412.012 190.48 411.617 190.937 411.288C191.953 412.295 192.262 413.033 192.279 413.767L192.279 413.955L192.284 414.07C192.342 414.637 192.82 415.078 193.402 415.078C194.022 415.078 194.525 414.576 194.525 413.955L194.525 413.734C194.504 412.59 194.1 411.502 193.013 410.259C193.731 410.045 194.54 409.925 195.521 409.874C196.141 409.841 196.617 409.313 196.584 408.693C196.552 408.074 196.024 407.598 195.404 407.63C193.701 407.719 192.377 408.003 191.198 408.543C190.705 408.14 190.147 407.718 189.517 407.271L188.955 406.878Z" fill="#00160A"/>
<path fill-rule="evenodd" clip-rule="evenodd" d="M188.955 406.878C188.444 406.527 187.744 406.657 187.393 407.169C187.042 407.68 187.172 408.379 187.683 408.73C188.245 409.116 188.742 409.472 189.18 409.803C188.708 410.178 188.237 410.609 187.747 411.098L186.753 412.107C186.317 412.548 186.32 413.259 186.76 413.696C187.201 414.132 187.912 414.129 188.349 413.689L189.541 412.484C190.026 412.012 190.48 411.617 190.937 411.288C191.953 412.295 192.262 413.033 192.279 413.767L192.279 413.955L192.284 414.07C192.342 414.637 192.82 415.078 193.402 415.078C194.022 415.078 194.525 414.576 194.525 413.955L194.525 413.734C194.504 412.59 194.1 411.502 193.013 410.259C193.731 410.045 194.54 409.925 195.521 409.874C196.141 409.841 196.617 409.313 196.584 408.693C196.552 408.074 196.024 407.598 195.404 407.63C193.701 407.719 192.377 408.003 191.198 408.543C190.705 408.14 190.147 407.718 189.517 407.271L188.955 406.878Z" fill="#00160A"/>
<path fill-rule="evenodd" clip-rule="evenodd" d="M227.34 376.109L228.114 377.829L229.878 378.335C229.974 378.363 230.029 378.462 230.001 378.558C229.993 378.587 229.977 378.614 229.955 378.636L228.615 379.97L228.69 381.89C228.694 381.99 228.617 382.073 228.518 382.077C228.484 382.078 228.451 382.07 228.422 382.054L226.904 381.189C226.857 381.162 226.8 381.158 226.749 381.178L225.126 381.823C225.034 381.86 224.929 381.815 224.892 381.722C224.88 381.691 224.877 381.657 224.883 381.624L225.224 379.733L224.083 378.225C224.023 378.146 224.038 378.033 224.117 377.973C224.142 377.955 224.17 377.943 224.201 377.938L226.018 377.683L227.024 376.087C227.077 376.003 227.188 375.978 227.272 376.031C227.302 376.05 227.326 376.077 227.34 376.109Z" fill="#00160A"/>
<path fill-rule="evenodd" clip-rule="evenodd" d="M129.971 364.291L131.286 365.643L133.118 365.515C133.217 365.508 133.302 365.583 133.309 365.682C133.311 365.713 133.306 365.743 133.293 365.771L132.489 367.483L133.217 369.262C133.254 369.354 133.21 369.459 133.119 369.497C133.087 369.509 133.053 369.513 133.02 369.507L131.299 369.214C131.245 369.205 131.19 369.221 131.149 369.257L129.844 370.418C129.77 370.484 129.657 370.477 129.591 370.403C129.568 370.378 129.554 370.347 129.548 370.314L129.222 368.42L127.633 367.394C127.55 367.34 127.526 367.228 127.58 367.145C127.597 367.119 127.62 367.098 127.647 367.084L129.267 366.222L129.667 364.379C129.688 364.282 129.783 364.22 129.88 364.241C129.915 364.249 129.946 364.266 129.971 364.291Z" fill="#00160A"/>
<path fill-rule="evenodd" clip-rule="evenodd" d="M109.428 241.126L110.202 242.846L111.966 243.352C112.062 243.38 112.117 243.479 112.089 243.575C112.081 243.604 112.065 243.631 112.044 243.653L110.703 244.987L110.778 246.907C110.782 247.007 110.705 247.09 110.606 247.094C110.572 247.095 110.539 247.087 110.51 247.071L108.992 246.206C108.945 246.179 108.888 246.175 108.837 246.195L107.214 246.84C107.122 246.877 107.017 246.832 106.98 246.739C106.968 246.708 106.965 246.674 106.971 246.641L107.312 244.75L106.171 243.242C106.111 243.163 106.126 243.05 106.205 242.99C106.23 242.972 106.259 242.96 106.289 242.955L108.106 242.699L109.112 241.104C109.165 241.02 109.276 240.995 109.36 241.048C109.39 241.067 109.414 241.094 109.428 241.126Z" fill="#00160A"/>
<path fill-rule="evenodd" clip-rule="evenodd" d="M109.248 242.839L109.577 243.57L110.326 243.785C110.367 243.796 110.39 243.839 110.379 243.879C110.375 243.892 110.368 243.903 110.359 243.912L109.79 244.479L109.822 245.295C109.823 245.337 109.79 245.372 109.748 245.374C109.734 245.375 109.72 245.371 109.708 245.364L109.063 244.997C109.043 244.986 109.019 244.984 108.997 244.992L108.308 245.266C108.268 245.282 108.224 245.263 108.208 245.223C108.203 245.21 108.202 245.196 108.204 245.182L108.349 244.378L107.864 243.738C107.839 243.704 107.846 243.656 107.879 243.631C107.89 243.623 107.902 243.618 107.915 243.616L108.687 243.507L109.114 242.83C109.136 242.794 109.184 242.783 109.219 242.806C109.232 242.814 109.242 242.825 109.248 242.839Z" fill="#E7EAEE"/>
<path fill-rule="evenodd" clip-rule="evenodd" d="M17.4209 316.586L18.1949 318.306L19.9592 318.812C20.0546 318.84 20.1097 318.939 20.0823 319.035C20.0739 319.064 20.0581 319.091 20.0364 319.112L18.6959 320.447L18.771 322.367C18.7749 322.466 18.6976 322.55 18.5985 322.554C18.5649 322.555 18.5317 322.547 18.5025 322.53L16.985 321.666C16.9375 321.639 16.8804 321.635 16.8297 321.655L15.2066 322.3C15.1144 322.337 15.0099 322.291 14.9733 322.199C14.9609 322.168 14.9575 322.134 14.9635 322.101L15.3051 320.21L14.1634 318.702C14.1035 318.623 14.1191 318.51 14.1982 318.45C14.2226 318.431 14.2513 318.42 14.2816 318.415L16.0992 318.159L17.105 316.564C17.1579 316.48 17.2689 316.455 17.3529 316.508C17.3827 316.527 17.4064 316.554 17.4209 316.586Z" fill="#00160A"/>
<path fill-rule="evenodd" clip-rule="evenodd" d="M95.1834 162.149L95.7456 162.541C96.3765 162.989 98.7318 165.208 99.2244 165.611C100.402 165.071 101.726 164.787 103.43 164.698C104.049 164.665 104.577 165.141 104.61 165.761C104.642 166.38 104.166 166.909 103.547 166.941C102.565 166.992 101.756 167.112 101.038 167.326C102.126 168.57 102.529 169.658 102.55 170.802L102.55 171.023C102.55 171.643 102.048 172.146 101.427 172.146C100.846 172.146 100.367 171.704 100.31 171.137L100.304 171.023L100.304 170.834C100.288 170.101 99.9784 169.362 98.9629 168.356C98.5056 168.684 98.0511 169.079 97.566 169.551L96.3743 170.756C95.9377 171.196 95.2265 171.199 94.786 170.763C94.3454 170.326 94.3423 169.615 94.779 169.174L95.7723 168.166C96.262 167.676 96.7333 167.246 97.2052 166.87C96.3765 164.979 93.2707 162.95 93.6218 162.439C93.9729 161.928 94.6721 161.798 95.1834 162.149Z" fill="#00160A"/>
<path fill-rule="evenodd" clip-rule="evenodd" d="M311.882 291.679L313.412 292.781L315.193 292.338C315.289 292.314 315.387 292.372 315.411 292.469C315.418 292.498 315.418 292.529 315.41 292.559L314.916 294.385L315.942 296.01C315.995 296.094 315.969 296.205 315.885 296.258C315.857 296.276 315.824 296.286 315.791 296.286L314.044 296.296C313.99 296.297 313.938 296.322 313.904 296.365L312.821 297.734C312.76 297.812 312.647 297.825 312.569 297.764C312.542 297.743 312.522 297.715 312.511 297.684L311.861 295.875L310.119 295.14C310.027 295.101 309.984 294.996 310.023 294.904C310.035 294.876 310.054 294.851 310.078 294.833L311.524 293.702L311.597 291.818C311.601 291.718 311.685 291.641 311.784 291.645C311.819 291.646 311.853 291.658 311.882 291.679Z" fill="#00160A"/>
<path fill-rule="evenodd" clip-rule="evenodd" d="M329.459 221.287L329.923 223.116L331.572 223.921C331.662 223.964 331.699 224.072 331.655 224.161C331.642 224.189 331.621 224.212 331.596 224.23L330.044 225.311L329.785 227.215C329.772 227.314 329.681 227.383 329.583 227.369C329.549 227.365 329.518 227.351 329.492 227.329L328.148 226.215C328.106 226.18 328.05 226.166 327.997 226.177L326.286 226.53C326.189 226.55 326.094 226.488 326.074 226.39C326.067 226.358 326.07 226.323 326.081 226.292L326.746 224.489L325.884 222.805C325.839 222.717 325.873 222.609 325.962 222.563C325.989 222.55 326.019 222.543 326.05 222.544L327.884 222.607L329.152 221.211C329.219 221.137 329.332 221.132 329.406 221.199C329.432 221.222 329.451 221.253 329.459 221.287Z" fill="#00160A"/>
<path fill-rule="evenodd" clip-rule="evenodd" d="M289.431 147.711L289.894 149.539L291.544 150.344C291.633 150.388 291.67 150.495 291.626 150.584C291.613 150.612 291.593 150.635 291.568 150.653L290.016 151.734L289.756 153.639C289.743 153.737 289.652 153.806 289.554 153.792C289.521 153.788 289.489 153.774 289.464 153.753L288.119 152.638C288.077 152.603 288.022 152.589 287.968 152.6L286.258 152.953C286.161 152.973 286.066 152.911 286.045 152.814C286.039 152.781 286.041 152.747 286.053 152.715L286.718 150.912L285.855 149.229C285.81 149.14 285.845 149.032 285.933 148.987C285.96 148.973 285.991 148.966 286.021 148.967L287.856 149.031L289.123 147.634C289.19 147.561 289.304 147.555 289.377 147.622C289.403 147.646 289.422 147.677 289.431 147.711Z" fill="#00160A"/>
<path fill-rule="evenodd" clip-rule="evenodd" d="M407.686 165.624L408.369 165.563C409.14 165.5 409.839 165.465 410.476 165.457C411.03 164.286 411.862 163.218 413.11 162.054C413.563 161.631 414.274 161.656 414.697 162.11C415.12 162.564 415.095 163.274 414.641 163.697C413.922 164.368 413.38 164.98 412.967 165.605C414.6 165.859 415.609 166.433 416.36 167.296L416.502 167.465C416.901 167.94 416.839 168.648 416.363 169.047C415.918 169.421 415.267 169.39 414.859 168.993L414.781 168.908L414.66 168.764C414.176 168.213 413.464 167.846 412.039 167.728C411.9 168.273 411.806 168.868 411.738 169.541L411.599 171.23C411.548 171.848 411.005 172.308 410.387 172.256C409.769 172.205 409.309 171.662 409.361 171.044L409.473 169.633C409.533 168.943 409.618 168.311 409.738 167.72C409.191 167.748 408.581 167.794 407.902 167.86C407.285 167.919 406.736 167.467 406.676 166.85C406.617 166.232 407.069 165.684 407.686 165.624Z" fill="#00160A"/>
<path fill-rule="evenodd" clip-rule="evenodd" d="M316.992 243.154C316.789 243.667 316.345 244.378 315.828 245.051L316.273 245.513L316.789 246.063L316.904 246.173C316.954 246.217 316.993 246.244 317.022 246.251C317.189 246.276 317.305 246.429 317.282 246.598C317.258 246.762 317.105 246.881 316.939 246.856C316.787 246.853 316.238 246.639 315.584 246.107C315.466 246.011 315.348 245.9 315.228 245.778C314.85 246.199 314.469 246.561 314.14 246.785C313.655 247.12 313.235 247.147 313.035 247.011C312.837 246.879 312.648 246.436 312.969 245.541C313.019 245.379 313.192 245.294 313.352 245.344C313.512 245.395 313.6 245.565 313.55 245.727C313.501 245.893 313.494 246.045 313.494 246.166L313.68 246.04C313.746 245.993 313.813 245.94 313.875 245.878C314.099 245.656 314.35 245.388 314.602 245.096C314.203 244.632 313.796 244.087 313.467 243.459C313.306 243.152 313.178 242.827 313.057 242.485C312.973 242.293 313.06 242.069 313.252 241.984C313.443 241.9 313.667 241.988 313.752 242.179C314.118 242.946 314.586 243.608 315.048 244.175L315.202 244.36C315.624 243.809 315.985 243.252 316.149 242.827C316.24 242.596 316.503 242.48 316.735 242.569C316.969 242.661 317.084 242.923 316.992 243.154Z" fill="#E7EAEE"/>
<path fill-rule="evenodd" clip-rule="evenodd" d="M306.026 14.2554C306.711 14.1362 307.362 14.5944 307.482 15.2788C307.601 15.9632 307.143 16.6147 306.458 16.7339C303.203 17.3009 299.285 19.2467 295.901 22.3806C291.506 26.45 288.264 32.1935 286.664 39.6907C285.374 45.731 286.559 53.6838 289.93 60.3189C293.764 67.8676 299.928 73 307.838 74.4447C315.957 75.9278 322.827 75.0067 330.5 72.279L331.206 72.0225C331.43 71.9376 331.831 71.7831 332.333 71.5892C334.181 70.8764 337.409 69.6308 338.336 69.3505C340.817 68.6003 342.509 68.6631 343.736 69.9706C344.211 70.4772 344.186 71.2733 343.679 71.7487C343.204 72.1944 342.475 72.2 341.994 71.7815L341.901 71.6922C341.539 71.3065 340.791 71.2618 339.285 71.6937L339.064 71.7586C338.247 72.0057 335.257 73.1587 333.393 73.8775C332.671 74.156 332.117 74.3693 331.925 74.4395C323.638 77.4646 316.202 78.5298 307.386 76.9196C298.649 75.3239 291.857 69.6683 287.687 61.4583C284.062 54.3232 282.79 45.7856 284.203 39.1655C285.911 31.1639 289.414 24.9583 294.191 20.5346C297.931 17.0718 302.292 14.9058 306.026 14.2554ZM314.534 20.3324C315.216 20.1989 315.877 20.6433 316.01 21.3251C316.144 22.0069 315.699 22.6678 315.017 22.8013C304.822 24.798 296.623 32.5852 294.245 42.8855C293.44 46.3715 293.684 49.206 294.473 50.2874L294.578 50.4229L294.586 50.4418L294.601 50.4304C294.884 50.1752 295.215 49.5233 295.471 48.5125L295.525 48.2904C297.97 37.6968 306.047 29.4967 316.363 26.7429C317.034 26.5637 317.723 26.9626 317.903 27.6338C318.082 28.3051 317.683 28.9945 317.012 29.1736C307.718 31.6547 300.416 38.9719 298.072 48.4544L297.976 48.8564C297.113 52.5926 294.637 54.3761 292.631 52.0111C291.163 50.2812 290.803 46.6107 291.794 42.3195C294.397 31.0436 303.373 22.5181 314.534 20.3324ZM329.663 34.1395C329.613 33.4465 329.011 32.9248 328.318 32.9743C316.075 33.8477 305.339 41.7997 301.067 53.5363C299.446 57.9898 299.349 61.9504 300.676 63.9701C302.457 66.6793 305.257 65.1425 306.653 61.3065L306.799 60.9129C310.577 50.9802 319.43 44.043 329.793 42.5964C330.481 42.5004 330.961 41.8648 330.865 41.1767C330.769 40.4887 330.133 40.0087 329.445 40.1048C318.032 41.6979 308.302 49.4197 304.289 60.4461L304.2 60.6817C303.754 61.8293 303.265 62.5212 302.895 62.7243L302.879 62.7353C302.871 62.7413 302.868 62.7454 302.866 62.7451C302.864 62.7448 302.863 62.7412 302.859 62.7329C302.851 62.7143 302.834 62.6719 302.779 62.5886L302.712 62.4791C301.982 61.1847 302.094 58.0708 303.431 54.3968C307.36 43.6011 317.236 36.2872 328.497 35.4837C329.19 35.4343 329.712 34.8324 329.663 34.1395ZM335.141 46.3681C335.834 46.3187 336.436 46.8404 336.486 47.5333C336.535 48.2263 336.013 48.8281 335.32 48.8775C327.424 49.4409 320.5 54.5688 317.746 62.1379C316.929 64.3816 316.777 66.2999 317.069 67.2715L317.105 67.3799L317.161 67.2997C317.301 67.0866 317.459 66.7806 317.614 66.3839L317.681 66.2082C320.591 58.2132 327.646 52.6141 335.921 51.459C336.609 51.363 337.245 51.8429 337.341 52.531C337.437 53.219 336.957 53.8546 336.269 53.9507C329.03 54.9612 322.843 59.7924 320.177 66.7149L320.045 67.0687C318.966 70.0335 316.632 71.3143 315.14 69.0441C314.118 67.4884 314.19 64.5516 315.381 61.2774C318.479 52.7673 326.264 47.0014 335.141 46.3681ZM341.771 56.5033C341.722 55.8103 341.12 55.2886 340.427 55.3381C334.482 55.7622 329.268 59.6238 327.193 65.323C326.376 67.5699 326.326 69.6148 327.082 70.7662C328.323 72.654 330.25 71.5963 331.053 69.3904L331.162 69.1007C332.852 64.7849 336.725 61.7759 341.252 61.1439C341.94 61.0478 342.42 60.4122 342.324 59.7241C342.228 59.0361 341.593 58.5562 340.905 58.6522L340.586 58.7001C335.712 59.4852 331.506 62.5788 329.326 67.0312L329.25 67.1896L329.297 67.0091C329.367 66.7464 329.453 66.4699 329.558 66.1835C331.289 61.4252 335.642 58.2016 340.606 57.8475C341.299 57.7981 341.82 57.1962 341.771 56.5033Z" fill="#00160A"/>
<path fill-rule="evenodd" clip-rule="evenodd" d="M335.141 46.3681C335.834 46.3187 336.436 46.8404 336.486 47.5333C336.535 48.2263 336.013 48.8281 335.32 48.8776C327.424 49.4409 320.5 54.5688 317.746 62.1379C316.929 64.3816 316.777 66.3 317.069 67.2715L317.105 67.3799L317.161 67.2997C317.301 67.0866 317.459 66.7806 317.614 66.3839L317.681 66.2083C320.591 58.2132 327.646 52.6141 335.921 51.4591C336.609 51.363 337.245 51.8429 337.341 52.531C337.437 53.219 336.957 53.8547 336.269 53.9507C329.03 54.9612 322.843 59.7925 320.177 66.7149L320.045 67.0687C318.966 70.0335 316.632 71.3143 315.14 69.0441C314.118 67.4884 314.19 64.5516 315.381 61.2774C318.479 52.7674 326.264 47.0015 335.141 46.3681Z" fill="#00160A"/>
<path d="M256.8 210.145C283.172 197.81 305.221 191.294 318.948 190.098C323.152 189.731 325.059 192.049 323.994 195.819C323.204 198.618 320.797 202.46 317.107 207.008C310.674 214.938 302.193 221.724 293.747 228.036C307.259 215.565 310.705 210.347 314.873 205.21L315.527 204.393C318.617 200.486 320.614 197.222 321.229 195.044L321.317 194.713C321.7 193.141 321.256 192.769 319.199 192.948C305.782 194.118 283.817 200.646 257.542 212.965C231.224 225.304 230.471 222.461 256.8 210.145Z" fill="white"/>
<path d="M136.188 170.241L136.381 170.7C137.717 173.868 139.105 177.005 140.681 180.426L141.294 181.754C141.093 181.889 140.829 182.032 140.538 182.159C140.121 182.341 139.698 182.469 139.38 182.512L139.278 182.522L139.125 182.338C137.934 180.872 136.552 178.381 135.554 175.904C135.022 174.585 134.643 173.375 134.472 172.445C134.402 172.066 134.37 171.748 134.373 171.507L134.38 171.348C134.383 171.309 134.383 171.289 134.373 171.286L134.411 171.261C134.624 171.114 135.167 170.796 135.974 170.357L136.188 170.241Z" fill="white"/>
<path fill-rule="evenodd" clip-rule="evenodd" d="M169.526 158.766C170.352 157.755 171.422 157.906 172.778 158.728L173.126 158.948L174.1 159.594C174.373 159.768 174.491 159.829 174.65 159.892C175.019 160.039 175.199 160.457 175.052 160.826C174.905 161.195 174.487 161.375 174.118 161.228L173.987 161.174C173.738 161.067 173.549 160.956 173.044 160.621L172.345 160.155C172.23 160.08 172.13 160.017 172.032 159.957C171.221 159.465 170.853 159.414 170.639 159.675C170.505 159.84 170.538 160.191 170.805 160.911L171.098 161.667C171.681 163.214 171.685 163.906 170.646 164.497C169.752 165.005 169.294 164.768 168.01 163.51L167.698 163.201C166.876 162.38 166.445 162.094 166.167 162.153C166.075 162.172 165.968 162.238 165.836 162.378C165.682 162.542 165.639 163.067 165.733 163.999L165.878 165.215C166.047 166.703 165.979 167.088 165.365 167.499C164.519 168.065 163.394 167.425 161.309 165.553C161.014 165.287 160.989 164.833 161.254 164.538C161.52 164.242 161.974 164.218 162.27 164.483C163.161 165.284 163.834 165.805 164.304 166.072L164.41 166.13L164.498 166.173L164.5 166.083L164.494 165.868C164.485 165.692 164.463 165.478 164.419 165.116L164.327 164.37C164.152 162.855 164.207 162.013 164.788 161.394C165.11 161.05 165.472 160.83 165.87 160.746C166.793 160.551 167.449 160.946 168.539 162.01L169.088 162.551C169.681 163.121 169.901 163.267 169.936 163.247C170.07 163.171 170.05 162.933 169.686 161.998L169.526 161.592C169.018 160.287 168.921 159.505 169.526 158.766Z" fill="#00160A"/>
<path fill-rule="evenodd" clip-rule="evenodd" d="M248 41.7675L247.317 41.8285C246.699 41.8882 246.247 42.4371 246.307 43.0545C246.343 43.4277 246.558 43.7405 246.859 43.9163L246.74 44.0008C246.233 44.3589 246.113 45.0597 246.471 45.5663C246.829 46.0728 247.53 46.1932 248.036 45.8352L249.191 45.0175C249.157 45.2819 249.129 45.555 249.104 45.8376L248.991 47.2489C248.94 47.8671 249.4 48.4098 250.018 48.4611C250.636 48.5125 251.179 48.053 251.23 47.4348L251.369 45.746C251.405 45.3848 251.449 45.0463 251.503 44.7259C251.898 45.4738 251.976 46.05 251.893 46.595L251.86 46.7804L251.846 46.8945C251.804 47.4622 252.199 47.9805 252.771 48.0815C253.382 48.1892 253.965 47.7813 254.072 47.1704L254.111 46.9529C254.23 46.1949 254.175 45.4317 253.868 44.5845C254.029 44.6999 254.167 44.8285 254.291 44.969L254.412 45.1132L254.49 45.1974C254.898 45.5943 255.549 45.6254 255.994 45.2516C256.469 44.8529 256.531 44.1445 256.133 43.6693L255.991 43.5002C255.94 43.4423 255.889 43.3857 255.836 43.3304C256.422 43.3643 256.941 42.9372 257.014 42.3461C257.09 41.7304 256.652 41.17 256.036 41.0943C254.978 40.9641 254.052 40.9348 253.2 41.0112C253.505 40.6516 253.86 40.2864 254.272 39.9021C254.726 39.4791 254.751 38.7684 254.328 38.3147C253.905 37.861 253.194 37.836 252.741 38.259C251.979 38.9686 251.373 39.643 250.89 40.3269C250.703 40.1289 250.507 39.926 250.301 39.7178L249.816 39.2339C249.373 38.7993 248.662 38.8059 248.228 39.2485C247.793 39.6911 247.799 40.4022 248.242 40.8368C248.549 41.1385 248.833 41.4241 249.095 41.6947C248.746 41.7122 248.382 41.7365 248 41.7675Z" fill="#00160A"/>
<path fill-rule="evenodd" clip-rule="evenodd" d="M204.715 49.5495C204.445 49.2731 204.009 49.2808 203.74 49.5667C203.471 49.8527 203.471 50.3085 203.741 50.5849C203.996 50.8471 204.225 51.0901 204.429 51.3162C203.997 51.4993 203.564 51.7365 203.1 52.0292L202.395 52.481C202.086 52.678 202.019 53.0721 202.245 53.3613C202.471 53.6505 202.904 53.7252 203.214 53.5282L204.058 52.9893C204.499 52.7192 204.897 52.5148 205.296 52.3713C205.904 53.2156 206.031 53.7568 205.953 54.2586L205.932 54.3776L205.923 54.4508C205.895 54.815 206.134 55.1453 206.485 55.2072C206.86 55.2733 207.219 55.0089 207.288 54.6167L207.313 54.477C207.428 53.7493 207.305 53.0161 206.783 52.1104C207.137 52.1049 207.522 52.1311 207.96 52.187C208.341 52.2357 208.682 51.9943 208.723 51.6478C208.764 51.3013 208.488 50.981 208.107 50.9323C207.272 50.8256 206.572 50.8134 205.932 50.8999C205.668 50.5758 205.363 50.2298 205.01 49.8573L204.715 49.5495Z" fill="#E7EAEE"/>
<path fill-rule="evenodd" clip-rule="evenodd" d="M59.9761 236.789L60.75 238.509L62.5143 239.015C62.6097 239.043 62.6648 239.142 62.6375 239.238C62.629 239.267 62.6132 239.294 62.5915 239.315L61.2511 240.65L61.3262 242.57C61.33 242.67 61.2528 242.753 61.1536 242.757C61.1201 242.758 61.0868 242.75 61.0577 242.734L59.5401 241.869C59.4927 241.842 59.4356 241.838 59.3849 241.858L57.7618 242.503C57.6696 242.54 57.5651 242.495 57.5285 242.402C57.5161 242.371 57.5127 242.337 57.5186 242.304L57.8603 240.413L56.7186 238.905C56.6587 238.826 56.6742 238.713 56.7534 238.653C56.7778 238.635 56.8065 238.623 56.8368 238.618L58.6544 238.362L59.6602 236.767C59.7131 236.683 59.8241 236.658 59.908 236.711C59.9379 236.73 59.9616 236.757 59.9761 236.789Z" fill="#00160A"/>
<path fill-rule="evenodd" clip-rule="evenodd" d="M70.2961 141.329L71.0701 143.049L72.8344 143.555C72.9298 143.583 72.9849 143.682 72.9576 143.778C72.9491 143.807 72.9333 143.834 72.9116 143.855L71.5712 145.19L71.6462 147.11C71.6501 147.21 71.5729 147.293 71.4737 147.297C71.4402 147.298 71.4069 147.29 71.3777 147.274L69.8602 146.409C69.8128 146.382 69.7557 146.378 69.7049 146.398L68.0819 147.043C67.9896 147.08 67.8852 147.035 67.8485 146.942C67.8361 146.911 67.8327 146.877 67.8387 146.844L68.1803 144.953L67.0386 143.445C66.9787 143.366 66.9943 143.253 67.0734 143.193C67.0978 143.175 67.1266 143.163 67.1569 143.158L68.9745 142.902L69.9803 141.307C70.0332 141.223 70.1442 141.198 70.2281 141.251C70.258 141.27 70.2817 141.297 70.2961 141.329Z" fill="#00160A"/>
<path d="M93.6726 293.312C94.2491 292.894 95.0557 293.022 95.4744 293.598C95.893 294.175 77.6426 309.04 70.5628 315.852L69.7399 316.65C65.6961 320.607 62.7145 324.033 61.034 326.742C59.2532 329.612 59.1389 331.171 60.2886 331.808C64.6507 334.225 70.9224 335.403 79.9047 333.915L80.8277 333.758C84.2468 333.159 109.966 327.55 109.559 327.699L109.401 327.746C108.59 327.961 98.1176 331.583 94.503 332.503L94.0661 332.613C88.5404 334.003 84.2163 334.956 80.3263 335.601C70.821 337.175 64.0298 336.831 59.038 334.065C56.1575 332.468 56.3869 329.338 58.8417 325.382C60.7724 322.27 64.1686 318.424 68.7739 313.993C75.9484 307.09 86.0395 298.855 93.6726 293.312Z" fill="white"/>
</svg>
