<svg width="459" height="412" viewBox="0 0 459 412" fill="none" xmlns="http://www.w3.org/2000/svg">
<path fill-rule="evenodd" clip-rule="evenodd" d="M61.4123 329.037C-4.41024 283.373 74.422 222.864 55.165 150.509C35.908 78.1547 -10.739 -29.7274 173.288 8.71381C359.745 47.6627 478.003 97.8157 450.056 253.165C422.109 408.515 127.235 374.701 61.4123 329.037Z" fill="#64FCD9"/>
<path fill-rule="evenodd" clip-rule="evenodd" d="M347.107 391.586C342.98 387.471 341.025 381.718 339.201 376.183C334.422 383.103 323.754 383.326 316.427 379.196C309.101 375.067 304.157 367.856 298.896 361.295C289.477 349.547 249.131 320.535 248.468 311.783C248.116 307.141 261.616 298.69 261.616 298.69L237.357 284.417C237.357 284.417 224.776 294.068 217.542 295.216C197.418 298.407 183.185 296.507 183.168 300.129C183.106 313.234 262.392 379.718 237.109 379.196C199.164 378.414 129.86 304.559 107.411 298.69C98.0096 296.232 33.5276 300.129 33.5276 284.521C33.5276 263.558 91.1231 249.135 91.1231 249.135C91.1231 249.135 76.1121 198.516 94.2804 157.122C98.4414 147.642 103.593 136.627 104.095 127.313C104.233 124.757 176.869 55.9555 186.201 52.5183C207.958 44.5041 231.102 40.2688 254.287 40.0582C257.378 40.0301 345.506 52.5183 385.135 117.931C392.297 129.752 424.831 217.543 391.799 272.614C386.588 281.302 387.227 292.085 390.83 301.65C394.433 311.215 398.863 321.854 394.78 331.224C392.55 316.211 388.634 301.45 383.13 287.306C375.454 292.887 379.341 304.894 383.917 313.208C389.683 323.685 395.45 334.162 401.217 344.639C403.615 348.997 406.095 353.798 405.232 358.696C404.246 364.297 399.254 368.173 394.631 371.485C384.077 379.049 373.522 386.612 362.968 394.176C358.231 397.571 351.235 395.701 347.107 391.586Z" fill="white"/>
<path fill-rule="evenodd" clip-rule="evenodd" d="M204.531 159.757C205.339 157.569 208.249 156.665 210.396 157.577C212.543 158.489 213.876 160.769 214.212 163.078C214.548 165.386 214.038 167.732 213.381 169.97C212.782 172.011 212.058 174.016 211.217 175.969C211.138 176.15 211.034 176.354 210.841 176.397C210.635 176.443 210.446 176.283 210.298 176.134C206.65 172.437 204.45 167.347 204.259 162.157C204.229 161.347 204.25 160.517 204.531 159.757ZM210.837 160.291C210.239 159.778 209.466 159.442 208.678 159.466C206.838 159.522 205.554 161.528 205.595 163.369C205.636 165.209 206.616 166.879 207.568 168.455C208.249 169.584 208.93 170.712 209.612 171.841C209.844 172.225 210.301 172.664 210.663 172.398C210.808 172.29 210.865 172.102 210.912 171.927C211.191 170.902 211.47 169.877 211.749 168.852C212.148 167.386 212.55 165.896 212.525 164.378C212.5 162.859 211.991 161.28 210.837 160.291L210.837 160.291Z" fill="#FFB61D"/>
<path fill-rule="evenodd" clip-rule="evenodd" d="M209.634 166.182C209.186 166.308 208.696 166.284 208.263 166.115C207.421 165.787 206.839 164.885 206.888 163.983C206.937 163.081 207.612 162.247 208.484 162.012C209.806 161.655 211.294 162.873 211.206 164.239C211.149 165.125 210.489 165.941 209.634 166.182Z" fill="#FFB61D"/>
<path fill-rule="evenodd" clip-rule="evenodd" d="M233.721 380.672C235.23 380.871 234.673 383.214 233.694 384.38C224.342 395.514 212.13 404.227 198.559 409.448C195.516 410.619 192.367 411.626 189.114 411.85C183.081 412.265 177.072 409.909 172.301 406.193C167.53 402.477 163.895 397.482 160.932 392.21C152.83 377.793 149.434 360.781 151.379 344.359C151.562 342.813 152.616 340.764 154.04 341.391C153.627 346.882 153.563 352.398 153.849 357.897C154.129 363.298 154.752 368.714 156.303 373.895C157.739 378.691 159.948 383.217 162.252 387.662C164.619 392.232 167.128 396.789 170.548 400.636C173.967 404.483 178.405 407.609 183.454 408.607C189.784 409.857 196.281 407.676 202.117 404.925C214.22 399.218 225.077 390.887 233.721 380.672Z" fill="#00160A"/>
<path fill-rule="evenodd" clip-rule="evenodd" d="M277.51 318.095C288.502 307.281 299.493 296.467 310.485 285.652C311.101 285.047 312.012 284.401 312.739 284.865C313.71 285.484 312.934 286.974 312.115 287.784C300.285 299.484 288.454 311.185 276.624 322.885C275.771 322.453 275.523 321.287 275.824 320.379C276.124 319.472 276.828 318.766 277.51 318.095H277.51Z" fill="#00160A"/>
<path fill-rule="evenodd" clip-rule="evenodd" d="M193.362 255.9C192.692 256.015 192.022 256.131 191.352 256.247C190.051 254.295 188.72 252.27 188.312 249.96C187.904 247.65 188.668 244.962 190.718 243.822C193.038 242.533 193.737 239.362 192.998 236.813C192.259 234.264 190.429 232.198 188.635 230.242C186.814 228.255 183.893 226.145 181.731 227.755C180.322 228.804 178.212 228.211 176.95 226.988C175.688 225.765 175.021 224.075 174.205 222.518C172.662 219.574 170.411 216.918 167.467 215.374C164.522 213.83 160.837 213.524 157.874 215.031C154.934 216.525 153.08 219.499 150.574 221.643C148.068 223.787 143.929 224.926 141.672 222.522C141.097 221.911 140.712 221.004 141.038 220.231C141.365 219.459 142.632 219.194 143.036 219.928C144.067 221.8 146.915 221.773 148.696 220.592C150.477 219.411 151.591 217.48 153.052 215.921C155.91 212.87 160.254 211.282 164.406 211.77C168.557 212.258 172.415 214.81 174.488 218.439C175.487 220.188 176.102 222.177 177.407 223.712C178.711 225.247 181.081 226.187 182.754 225.066C184.644 223.799 187.109 225.373 188.767 226.931C191.012 229.038 193.198 231.316 194.462 234.124C195.726 236.931 195.927 240.386 194.275 242.984C192.9 245.147 190.269 246.899 190.497 249.452C190.709 251.832 193.449 253.511 193.362 255.9V255.9Z" fill="#00160A"/>
<path fill-rule="evenodd" clip-rule="evenodd" d="M222.378 148.71C226.402 150.595 229.983 153.608 232.051 157.54C234.12 161.472 234.541 166.356 232.686 170.394C228.849 178.747 216.649 181.998 215.304 191.091C214.961 193.407 215.427 195.815 214.855 198.085C214.46 199.654 213.593 201.054 212.9 202.516C211.413 205.653 210.711 209.157 210.875 212.624C209.324 213.464 207.501 211.676 207.303 209.924C207.105 208.172 207.806 206.432 207.769 204.669C207.698 201.355 205.135 198.718 202.948 196.227C199.668 192.49 196.818 188.091 196.286 183.148C196.114 181.556 196.186 179.931 195.828 178.37C195.443 176.691 194.58 175.168 193.817 173.623C191.761 169.457 190.368 164.648 191.635 160.178C192.901 155.707 197.621 152.008 202.102 153.239C203.375 153.588 204.62 154.302 205.925 154.108C208.218 153.766 209.143 151.031 210.741 149.351C213.606 146.341 218.615 146.948 222.378 148.71M202.893 192.154C205.433 195.497 207.974 198.84 210.515 202.183C213.429 199.114 212.224 194.15 213.11 190.012C214.317 184.375 219.359 180.549 223.728 176.787C228.096 173.026 232.434 167.88 231.453 162.199C230.664 157.635 226.681 154.391 222.862 151.77C220.709 150.292 218.223 148.806 215.655 149.281C213.059 149.761 211.28 152.063 209.409 153.927C207.538 155.79 204.717 157.409 202.376 156.188C199.081 154.47 194.886 157.401 193.956 160.999C193.027 164.597 194.363 168.361 195.831 171.776C197.298 175.19 198.954 178.728 198.675 182.434C198.404 186.039 200.705 189.276 202.893 192.154Z" fill="#00160A"/>
<path fill-rule="evenodd" clip-rule="evenodd" d="M0.222418 115.373C0.0574622 114.926 0.841033 114.8 1.26115 115.025C1.24306 115.49 0.528556 115.725 0.238175 115.361L0.222418 115.373Z" fill="#00160A"/>
<path fill-rule="evenodd" clip-rule="evenodd" d="M304.969 298.44C305.831 298.56 306.289 299.622 306.093 300.47C305.897 301.319 305.259 301.984 304.646 302.603C299.694 307.608 294.742 312.613 289.791 317.618C289.425 317.988 288.995 318.384 288.476 318.368C287.777 318.346 287.32 317.538 287.405 316.844C287.49 316.15 287.946 315.566 288.389 315.025C292.942 309.454 297.884 304.2 303.166 299.313C303.673 298.844 304.284 298.344 304.969 298.44V298.44Z" fill="#00160A"/>
<path fill-rule="evenodd" clip-rule="evenodd" d="M159.366 226.054C162.094 226.301 164.193 228.865 164.661 231.565C165.129 234.264 164.288 237.023 163.146 239.514C162.517 240.886 161.795 242.215 160.985 243.488C160.402 244.405 159.66 245.368 158.589 245.546C156.8 245.843 155.544 243.874 154.854 242.197C153.882 239.837 152.991 237.445 152.182 235.024C151.784 233.836 151.402 232.586 151.605 231.349C151.916 229.459 153.522 228.045 155.205 227.13C156.483 226.436 157.918 225.923 159.366 226.054M156.803 239.953C157.013 240.28 157.235 240.614 157.563 240.821C157.832 240.991 158.162 241.062 158.477 241.018C159.289 240.906 159.81 240.124 160.224 239.418C161.309 237.568 162.422 235.628 162.544 233.487C162.666 231.347 161.45 228.965 159.352 228.524C156.897 228.008 154.61 230.468 154.402 232.967C154.194 235.467 155.449 237.842 156.803 239.953Z" fill="#FFB61D"/>
<path fill-rule="evenodd" clip-rule="evenodd" d="M159.249 231.127C159.922 231.345 160.503 231.836 160.828 232.465C161.118 233.024 161.205 233.686 161.07 234.301C160.759 235.722 159.153 236.713 157.743 236.356C156.333 235.999 155.393 234.362 155.796 232.964C156.198 231.566 157.865 230.68 159.249 231.127ZM158.936 234.076C159.45 233.806 158.991 232.822 158.454 233.041C158.038 233.096 157.762 233.62 157.952 233.994C158.143 234.369 158.728 234.455 159.018 234.151L158.936 234.076Z" fill="#FFB61D"/>
<path fill-rule="evenodd" clip-rule="evenodd" d="M303.644 258.02C302.123 256.377 300.756 254.592 299.567 252.696C299.186 252.09 299.974 251.3 300.684 251.395C301.393 251.489 301.914 252.084 302.367 252.639C303.943 254.572 305.519 256.504 307.095 258.437C306.914 259.127 306.043 259.439 305.354 259.256C304.664 259.073 304.129 258.543 303.644 258.02L303.644 258.02Z" fill="#00160A"/>
<path fill-rule="evenodd" clip-rule="evenodd" d="M355.57 347.58C355.587 347.806 355.504 348.026 355.418 348.235C354.552 350.342 353.264 352.275 351.652 353.884C349.088 356.445 345.612 358.342 344.238 361.696C343.913 362.491 342.7 362.606 342.069 362.023C341.438 361.441 341.351 360.442 341.631 359.63C341.91 358.818 342.488 358.149 343.052 357.502C344.89 355.394 346.728 353.286 348.567 351.178C349.975 349.563 351.446 347.9 353.398 347.015C354.201 346.65 355.502 346.701 355.57 347.58V347.58Z" fill="#00160A"/>
<path fill-rule="evenodd" clip-rule="evenodd" d="M305.518 249.242C307.332 251.374 309.147 253.506 310.961 255.638C311.266 255.997 311.589 256.404 311.568 256.874C311.536 257.604 310.639 258.039 309.928 257.869C309.217 257.699 308.679 257.131 308.202 256.577C306.665 254.794 305.288 252.872 304.093 250.843C303.627 250.052 303.446 248.669 304.357 248.551C304.824 248.49 305.213 248.884 305.518 249.242L305.518 249.242Z" fill="#00160A"/>
<path fill-rule="evenodd" clip-rule="evenodd" d="M284.619 261.126C284.343 260.739 284.058 260.234 284.292 259.819C284.677 259.135 285.722 259.666 286.243 260.253C288.087 262.332 289.656 264.655 290.897 267.141C289.715 267.74 288.458 266.521 287.69 265.441C286.666 264.003 285.643 262.565 284.619 261.126Z" fill="#00160A"/>
<path fill-rule="evenodd" clip-rule="evenodd" d="M286.254 267.248C286.993 268.016 287.74 269.278 286.97 270.015C286.188 270.765 284.937 269.919 284.246 269.085C282.574 267.066 281.12 264.867 279.917 262.538C280.689 261.876 281.832 262.646 282.537 263.38C283.776 264.669 285.015 265.959 286.254 267.248Z" fill="#00160A"/>
<path fill-rule="evenodd" clip-rule="evenodd" d="M288.266 259.69C287.932 259.198 287.618 258.524 287.98 258.053C288.497 257.38 289.548 257.998 290.127 258.618C291.806 260.417 293.485 262.217 295.164 264.016C295.088 264.667 294.326 265.056 293.679 264.96C293.031 264.864 292.492 264.427 292.006 263.988C290.595 262.71 289.337 261.264 288.266 259.69L288.266 259.69Z" fill="#00160A"/>
<path fill-rule="evenodd" clip-rule="evenodd" d="M298.85 255.699C299.895 257.033 300.941 258.367 301.986 259.701C302.401 260.23 302.838 260.909 302.568 261.524C302.308 262.117 301.484 262.273 300.889 262.018C300.293 261.763 299.876 261.224 299.487 260.706C298.396 259.249 297.315 257.785 296.244 256.313C296.008 255.988 295.76 255.624 295.796 255.223C295.856 254.556 296.709 254.21 297.347 254.414C297.985 254.617 298.437 255.172 298.85 255.699H298.85Z" fill="#00160A"/>
<path fill-rule="evenodd" clip-rule="evenodd" d="M298.062 261.851C298.279 262.087 298.511 262.362 298.487 262.682C298.456 263.108 297.956 263.372 297.534 263.309C297.111 263.245 296.761 262.956 296.444 262.671C294.357 260.794 292.598 258.554 291.271 256.082C291.532 255.403 292.559 255.864 293.052 256.4C294.722 258.217 296.392 260.034 298.062 261.851Z" fill="#00160A"/>
<path fill-rule="evenodd" clip-rule="evenodd" d="M318.326 249.821C318.489 250.009 318.66 250.223 318.65 250.471C318.635 250.845 318.19 251.08 317.821 251.016C317.452 250.953 317.153 250.689 316.878 250.435C314.914 248.62 313.035 246.712 311.249 244.721C311.88 243.873 313.214 244.553 313.98 245.281C315.5 246.725 316.95 248.24 318.326 249.821V249.821Z" fill="#00160A"/>
<path fill-rule="evenodd" clip-rule="evenodd" d="M312.102 251.635C311.003 250.13 309.904 248.626 308.806 247.121C308.604 246.845 308.392 246.51 308.5 246.186C308.713 245.548 309.681 245.832 310.202 246.257C311.854 247.605 313.257 249.258 314.317 251.108C314.523 251.467 314.721 251.892 314.575 252.279C314.39 252.772 313.715 252.917 313.23 252.711C312.746 252.504 312.412 252.06 312.102 251.635L312.102 251.635Z" fill="#00160A"/>
<path fill-rule="evenodd" clip-rule="evenodd" d="M320.868 246.106C319.783 244.939 318.698 243.772 317.613 242.605C317.226 242.189 317.694 241.451 318.258 241.391C318.823 241.33 319.34 241.687 319.787 242.037C320.61 242.68 321.404 243.361 322.165 244.076C322.587 244.471 323.014 244.904 323.173 245.459C323.331 246.015 323.114 246.721 322.567 246.909C321.939 247.126 321.321 246.593 320.868 246.106L320.868 246.106Z" fill="#00160A"/>
<path fill-rule="evenodd" clip-rule="evenodd" d="M318.762 248.416C317.26 246.876 315.821 245.274 314.451 243.615C314.212 243.327 313.961 242.971 314.062 242.61C314.177 242.203 314.71 242.044 315.11 242.18C315.511 242.316 315.804 242.653 316.077 242.976C317.332 244.462 318.588 245.948 319.843 247.433C320.183 247.835 320.517 248.467 320.131 248.825C319.743 249.186 319.132 248.796 318.762 248.416V248.416Z" fill="#00160A"/>
<path fill-rule="evenodd" clip-rule="evenodd" d="M390.215 343.638C391.91 343.115 396.203 341.951 397.898 341.428C398.658 341.193 399.787 341.163 399.93 341.945C400.047 342.589 399.307 343.027 398.687 343.236C396.974 343.811 392.606 344.852 390.813 345.069C390.175 345.146 389.248 344.908 389.377 344.278C389.451 343.916 389.862 343.747 390.215 343.638Z" fill="#00160A"/>
<path fill-rule="evenodd" clip-rule="evenodd" d="M200.783 272.738C203.467 272.777 206.641 273.401 207.711 275.863C208.717 278.175 207.136 280.955 204.918 282.155C202.701 283.355 200.059 283.384 197.538 283.381C163.137 283.337 128.738 282.507 94.3749 280.891C92.2337 280.79 92.0308 277.7 92.5201 275.613C92.8122 274.368 93.1402 273.055 94.0388 272.144C95.3316 270.833 97.382 270.744 99.2228 270.738C123.926 270.659 148.674 270.581 173.272 272.854C177.169 273.214 181.069 273.633 184.982 273.595C190.258 273.544 195.507 272.661 200.783 272.738M204.636 278.982C205.212 277.857 204.364 276.426 203.21 275.91C202.056 275.393 200.73 275.527 199.472 275.651C183.346 277.238 167.111 275.407 150.934 274.461C139.177 273.774 127.398 273.555 115.622 273.337C110.713 273.245 105.804 273.154 100.896 273.063C99.3295 273.034 97.6141 273.055 96.4109 274.057C95.2077 275.06 95.1674 277.424 96.6606 277.897C96.9306 277.982 97.217 277.997 97.4998 278.011C132.06 279.691 166.666 280.445 201.267 280.272C202.535 280.265 204.057 280.111 204.636 278.982V278.982Z" fill="#00160A"/>
<path fill-rule="evenodd" clip-rule="evenodd" d="M178.822 300.544C181.889 307.259 188.498 312.23 195.801 313.315C199.236 313.826 201.582 316.951 203.538 319.821C205.572 322.804 207.064 327.86 203.702 329.177C216.749 343.564 229.795 357.951 242.842 372.338C244.358 374.01 245.83 376.799 244.073 378.214C243.42 378.739 242.526 378.822 241.688 378.85C230.939 379.211 220.797 374.179 211.495 368.781C198.099 361.008 185.305 352.199 173.264 342.458C164.468 335.341 151.831 333.305 141.244 337.299C135.752 339.371 128.867 335.147 128.226 329.312C127.585 323.477 133.389 317.859 139.2 318.69C130.463 305.727 114.838 297.716 99.2134 298.188C80.3545 298.757 61.4202 296.779 43.0865 292.322C41.4762 291.931 39.7471 291.442 38.7371 290.128C36.7232 287.509 38.8359 283.784 41.0496 281.331C57.3593 263.256 82.4551 253.505 106.69 255.826C107.723 255.925 108.284 254.671 108.526 253.662C114.687 227.987 120.848 202.313 127.008 176.638C127.751 173.542 132.463 173.114 134.798 175.279C137.133 177.443 137.646 180.894 137.915 184.066C139.922 207.715 136.418 233.175 148.174 253.793C148.722 254.753 149.34 255.737 150.302 256.282C151.25 256.819 152.391 256.852 153.48 256.871C175.247 257.257 197.014 257.642 218.781 258.028C221.493 258.076 224.823 257.754 225.918 255.272C228.726 248.914 231.533 242.556 234.341 236.197C235.234 234.174 236.466 231.879 238.652 231.546C241.783 231.069 243.764 235.001 243.663 238.167C243.561 241.333 242.496 244.696 243.891 247.54C249.005 242.104 254.205 236.599 260.6 232.751C266.994 228.903 274.848 226.859 282.019 228.927C275.679 239.006 269.34 249.085 263.001 259.164C268.296 262.668 268.713 271.529 263.771 275.514C261.661 277.216 263.335 280.574 265.083 282.646C270.559 289.137 276.036 295.628 281.512 302.119C276.838 304.286 271.394 302.056 266.798 299.727C258.584 295.566 250.566 291.017 242.779 286.103C239.001 283.718 234.836 288.189 231.406 291.053C225.962 295.6 218.445 296.506 211.388 297.225C200.533 298.331 189.677 299.437 178.822 300.544ZM197.757 286.434C204.426 286.799 211.222 287.261 217.693 285.608C224.319 283.915 230.349 279.974 234.559 274.585C235.582 273.276 237.373 272.906 239.009 272.624C244.659 271.652 250.61 270.702 256.008 272.635C258.443 273.507 261.414 272.509 262.828 270.343C264.243 268.177 263.963 265.056 262.186 263.176C260.263 263.123 259.912 265.853 258.892 267.484C257.552 269.627 254.628 269.977 252.104 270.104C242.841 270.569 233.579 271.035 224.316 271.501C222.068 271.614 218.97 270.959 219.037 268.709C219.067 267.718 219.79 266.901 220.499 266.208C222.986 263.781 225.825 261.714 228.899 260.093C191.29 260.378 153.676 259.955 116.083 258.825C97.597 258.269 77.8844 257.848 62.1327 267.539C60.6622 268.444 59.5124 271.112 61.2187 271.375C66.2434 272.15 71.268 272.926 76.2927 273.701C76.8913 273.793 77.5314 273.906 77.9647 274.329C79.2631 275.597 77.4439 277.637 75.7711 278.341C68.8689 281.247 60.6439 280.803 54.094 277.172C52.6096 276.349 50.8486 275.349 49.3362 276.119C47.5092 277.05 47.7602 279.987 49.31 281.329C50.8598 282.672 53.067 282.861 55.1135 282.987C73.498 284.122 91.8825 285.256 110.267 286.391C115.435 286.709 120.618 287.028 125.786 286.706C149.743 285.213 173.788 285.122 197.757 286.434ZM224.593 357.704C218.159 348.851 210.829 340.649 202.753 333.263C200.109 330.845 197.779 328.108 195.458 325.378C185.307 313.444 175.155 301.51 165.004 289.576C163.991 288.385 162.239 288.228 160.676 288.179C147.343 287.756 133.966 288.747 120.841 291.129C119.87 291.305 118.823 291.532 118.182 292.282C116.696 294.021 118.553 296.562 120.295 298.044C137.722 312.883 155.789 326.969 174.43 340.25C177.861 342.695 181.343 345.13 185.217 346.784C192.526 349.905 199.835 353.027 207.144 356.148C212.736 358.536 219.402 360.871 224.593 357.704M137.312 225.943C137.043 222.457 137.042 218.91 136.084 215.547C134.358 209.489 129.755 204.732 125.174 200.409C124.819 200.073 124.349 199.713 123.89 199.881C123.473 200.033 123.322 200.534 123.226 200.969C119.812 216.517 116.398 232.066 112.983 247.615C112.339 250.549 111.691 253.525 111.83 256.527C123.8 256.677 135.771 256.828 147.741 256.979C141.777 247.706 138.158 236.937 137.312 225.943ZM277.96 231.107C270.524 230.471 262.866 233.204 257.512 238.403C247.707 247.927 237.236 256.765 226.201 264.832C224.69 265.936 223.072 267.16 222.559 268.96C231.804 268.543 241.049 268.126 250.294 267.709C252.732 267.599 255.603 267.233 256.768 265.089C263.148 253.353 270.228 241.999 277.96 231.107ZM40.6633 286.158C40.4113 286.697 40.1882 287.297 40.3281 287.875C40.5754 288.897 41.7692 289.322 42.7912 289.57C63.4619 294.586 84.9068 295.232 106.168 295.854C108.284 295.916 110.479 295.963 112.421 295.123C114.364 294.283 115.978 292.285 115.663 290.192C101.842 288.277 87.8926 287.296 73.9402 287.257C65.5819 287.234 56.9856 287.511 49.1498 284.602C47.2595 283.9 45.1202 282.493 45.361 280.492C43.3479 281.94 41.7139 283.911 40.6633 286.158ZM237.771 282.425C237.029 280.816 234.94 280.221 233.207 280.592C231.475 280.964 230.004 282.061 228.551 283.075C225.197 285.417 221.571 287.482 217.591 288.426C214.122 289.248 210.512 289.189 206.947 289.126C193.932 288.896 180.917 288.665 167.902 288.434C170.8 292.759 174.772 297.618 179.947 297.049C190.071 295.937 200.326 296.203 210.402 294.716C220.477 293.229 230.686 289.741 237.771 282.425ZM267.884 293.559C268.357 293.495 268.909 293.336 269.058 292.882C269.183 292.501 268.955 292.102 268.732 291.768C264.984 286.128 260.367 281.126 255.771 276.152C255.07 275.393 254.339 274.612 253.387 274.212C252.401 273.797 251.29 273.837 250.224 273.916C245.864 274.243 241.547 275.132 237.413 276.554C237.075 276.67 236.683 276.857 236.645 277.212C236.615 277.488 236.822 277.728 237.016 277.926C241.36 282.341 246.793 285.496 252.155 288.596C257.007 291.402 262.329 294.307 267.884 293.559ZM144.288 321.922C143.883 321.609 143.452 321.284 142.944 321.218C142.532 321.165 142.12 321.289 141.723 321.413C140.804 321.698 139.886 321.983 138.967 322.268C138.067 322.547 136.942 323.375 137.462 324.162C139.081 326.615 139.739 329.685 139.266 332.586C139.112 333.528 140.466 333.864 141.417 333.797C146.335 333.45 151.252 333.103 156.169 332.756C156.682 332.719 157.374 332.46 157.255 331.959C152.933 328.614 148.61 325.268 144.288 321.922ZM228.547 255.419C228.201 256.323 229.122 257.304 230.084 257.403C231.047 257.503 231.962 257.017 232.807 256.547C235.854 254.851 239.14 252.881 240.291 249.59C240.666 248.517 240.782 247.374 240.895 246.243C241.089 244.303 241.283 242.363 241.477 240.423C241.52 239.992 241.556 239.525 241.328 239.157C241.099 238.789 240.494 238.64 240.241 238.992C239.219 240.412 237.718 241.481 236.042 241.982C235.317 242.2 234.538 242.324 233.927 242.771C233.199 243.303 232.842 244.192 232.52 245.034C231.196 248.496 229.871 251.957 228.547 255.419ZM198.247 317.592C196.92 315.116 193.262 314.284 190.995 315.942C193.918 318.227 195.567 321.752 198.049 324.511C198.903 325.46 200.013 326.378 201.287 326.295C202.562 326.211 203.615 324.508 202.712 323.605C200.941 321.833 199.431 319.8 198.247 317.592ZM133.242 324.345C131.268 326.272 131.941 329.535 132.755 332.171C133.03 333.059 133.905 334.164 134.631 333.584C134.878 333.387 134.966 333.056 135.04 332.749C135.404 331.235 135.771 329.685 135.608 328.137C135.445 326.588 134.648 325.014 133.242 324.345Z" fill="#00160A"/>
<path fill-rule="evenodd" clip-rule="evenodd" d="M351.507 395.253C347.38 391.138 345.425 385.384 343.601 379.849C338.822 386.769 332.624 391.682 325.297 387.553C317.971 383.423 308.556 371.523 303.296 364.962C293.877 353.214 282.688 342.887 270.223 334.44C276.88 341.743 280.861 351.434 281.26 361.308C286.31 361.255 291.359 361.203 296.409 361.15C279.432 366.935 261.244 369.14 243.377 367.578C253.086 359.414 260.678 348.754 265.219 336.909C264.206 333.704 259.39 334.447 256.578 336.288C253.766 338.128 250.127 340.465 247.418 338.476C244.084 336.026 244.313 328.353 240.354 329.553C230.073 332.668 217.885 326.479 214.334 316.341C211.909 317.857 209.484 319.373 207.059 320.888C205.892 317.133 211.298 314.231 214.942 315.712C218.585 317.193 220.72 320.878 223.247 323.893C225.773 326.907 229.828 329.568 233.434 327.997C240.153 325.07 248.991 330.357 249.591 337.661C254.802 333.479 261.949 331.822 268.469 333.283C264.31 327.258 259.668 321.567 254.604 316.281C258.454 311.15 263.215 306.704 268.598 303.215C265.956 308.209 262.294 312.66 257.904 316.216C280.423 338.294 302.942 360.372 325.461 382.45C326.879 383.84 328.504 385.321 330.489 385.348C332.664 385.379 334.419 383.665 335.901 382.074C346.471 370.732 357.04 359.39 367.609 348.048C370.363 345.093 373.26 341.835 373.673 337.817C374.192 332.771 370.669 328.296 367.306 324.499C353.772 309.221 339.373 294.71 324.2 281.058C317.545 275.071 308.772 268.844 300.4 272.015C290.298 275.841 287.894 291.043 277.518 294.046C280.621 289.782 283.723 285.517 286.826 281.253C280.674 276.803 272.98 266.873 272.58 259.291C277.518 254.793 283.606 251.387 288.655 248.775C283.606 236.887 284.205 234.414 290.958 232.791C297.711 231.168 303.561 229.559 309.766 227.483C326.972 221.729 335.184 194.446 320.742 183.113C312.797 176.879 253.252 115.683 227.685 93.1207C229.622 101.756 218.246 109.899 210.696 105.28C212.144 110.258 208.663 116.282 203.52 116.939C198.377 117.596 193.361 111.894 195.161 107.032C196.71 102.847 201.667 101.116 204.546 97.7061C207.425 94.2963 204.914 86.8024 201.001 88.9487C198.935 97.2648 186.774 100.808 180.564 94.9026C178.379 92.8239 175.515 92.3127 172.587 92.8039C169.001 93.4058 162.796 94.798 160.143 97.37C155.986 101.399 155.048 107.285 150.099 110.02C149.311 110.456 148.484 110.83 147.61 111.128C141.257 113.293 132.362 107.006 135.661 101.161C117.585 117.828 105.175 140.534 100.91 164.748C110.345 167.439 112.136 179.829 112.109 189.64C101.466 192.34 111.478 212.656 102.273 218.643C91.7796 225.467 94.697 241.338 98.8523 253.145C88.2153 230.253 86.9355 203.176 95.3659 179.383C94.5327 194.478 93.6995 209.573 92.8663 224.668C100.004 223.624 102.887 214.926 103.477 207.736C104.067 200.547 104.516 192.088 110.56 188.151C108.304 182.399 107.378 176.13 107.876 169.972C105.249 169.124 102.622 168.276 99.9949 167.428C98.4169 178.542 86.0723 184.009 75.8928 188.741C64.9034 193.85 54.5645 200.356 45.2042 208.054C35.1642 216.31 25.6033 227.661 26.7152 240.612C27.7844 253.065 38.5151 262.587 49.7807 267.999C37.7169 267.973 27.3627 257.241 25.418 245.335C23.4733 233.429 28.661 221.181 36.7716 212.25C44.8822 203.32 55.637 197.249 66.5429 192.091C80.8244 185.338 98.1474 176.578 98.6803 160.789C99.1246 147.627 113.56 134.727 106.645 123.52C96.9312 107.778 91.513 89.4134 91.1256 70.9194C90.9345 61.7956 92.5998 51.4675 100.079 46.2385C103.803 43.6352 108.435 42.7261 112.949 42.2078C129.689 40.2856 146.933 42.9678 162.298 49.8833C171.366 53.9649 181.269 59.6221 190.601 56.1849C212.358 48.1708 235.502 43.9354 258.687 43.7248C261.778 43.6967 264.343 41.4272 266.495 39.2086C274.963 30.4781 282.03 20.3758 291.246 12.4381C300.461 4.50053 312.72 -1.21394 324.632 1.24265C337.103 3.81438 346.412 14.9196 350.486 26.9832C354.56 39.0468 354.328 52.0796 354.054 64.8095C353.561 87.6068 382.155 100.022 389.535 121.598C393.886 134.318 408.241 140.213 421.151 143.966C434.061 147.719 448.523 151.877 455.177 163.56C461.374 174.441 458.309 188.696 450.993 198.858C443.677 209.021 432.844 215.985 422.277 222.703C405.167 233.58 409.97 261.4 396.199 276.28C389.257 283.782 391.627 295.751 395.23 305.316C398.833 314.881 403.263 325.52 399.18 334.89C396.95 319.878 393.034 305.116 387.53 290.973C379.854 296.553 383.741 308.561 388.317 316.875C394.083 327.352 399.85 337.829 405.617 348.306C408.015 352.663 410.495 357.465 409.632 362.363C408.646 367.964 403.654 371.839 399.031 375.152C388.477 382.716 377.922 390.279 367.368 397.843C362.63 401.237 355.635 399.368 351.507 395.253ZM374.033 298.687C373.107 297.646 371.413 298.154 370.148 298.738C368.881 299.324 367.613 299.909 366.345 300.495C366.067 300.623 365.76 300.754 365.465 300.674C364.909 300.523 364.815 299.699 365.165 299.24C365.514 298.782 366.106 298.598 366.655 298.42C367.823 298.041 368.963 297.575 370.062 297.027C370.691 296.715 371.366 296.301 371.537 295.62C371.707 294.939 370.926 294.112 370.348 294.51C368.646 295.683 366.731 296.546 364.726 297.044C364.124 297.194 363.186 297.006 363.328 296.402C363.382 296.171 363.598 296.019 363.799 295.893C365.588 294.768 367.541 293.903 369.576 293.334C370.31 293.129 370.127 291.896 369.429 291.593C368.73 291.29 367.932 291.597 367.234 291.901C365.547 292.637 363.859 293.372 362.172 294.108C361.809 294.266 361.403 294.473 361.306 294.856C361.22 295.2 361.419 295.544 361.609 295.843C362.836 297.763 364.062 299.684 365.289 301.604C365.476 301.897 365.688 302.21 366.018 302.317C366.377 302.433 366.76 302.272 367.102 302.112C369.437 301.022 371.749 299.88 374.033 298.687ZM258.742 89.7889C254.77 89.8566 251.788 85.341 252.527 81.4378C253.266 77.5347 256.775 74.6139 260.575 73.4568C265.739 71.8845 271.905 72.8045 276.021 69.3121C277.87 67.7432 278.999 65.4897 280.683 63.7448C284.353 59.9416 290.738 59.137 295.237 61.9106C296.248 59.2598 293.258 56.6968 290.461 56.2247C287.664 55.7527 284.648 56.3165 282.071 55.1301C277.544 53.0459 272.213 55.7233 268.591 59.1452C264.968 62.567 261.997 66.8775 257.532 69.0903C253.067 71.303 246.31 70.0689 245.082 65.2391C244.7 63.734 244.653 61.7399 243.185 61.2325C240.87 60.4322 239.666 57.7294 239.803 55.2839C239.941 52.8384 241.113 50.5872 242.26 48.4231C237.724 48.1944 233.168 48.3352 228.654 48.8437C227.572 48.9656 226.195 49.4227 226.197 50.5123C226.202 52.7642 224.112 54.3796 222.233 55.6213C218.257 58.2495 214.281 60.8776 210.305 63.5058C210.43 66.1309 214.3 66.7588 216.567 65.4294C218.834 64.1 220.431 61.7234 222.875 60.7572C224.18 60.2411 225.614 60.1778 227.016 60.1207C229.412 60.0233 231.807 59.9259 234.203 59.8284C237.272 59.7035 241.413 60.4829 241.575 63.5507C241.709 66.0667 238.915 67.5367 237.127 69.3114C233.056 73.3511 233.071 81.1701 227.728 83.2553C225.83 83.9962 225.319 86.6258 226.152 88.4859C226.985 90.346 228.721 91.6101 230.365 92.8158C259.044 113.859 309.004 168.111 310.098 168.256C311.191 168.401 312.473 167.616 312.412 166.515C312.254 163.668 312.101 160.77 312.797 158.005C313.493 155.24 315.183 152.579 317.79 151.423C320.192 150.357 323.687 150.116 324.207 147.54C325.371 141.778 331.139 137.322 337.008 137.652C339.892 137.814 343.074 138.914 345.473 137.307C343.538 135.472 340.678 135.093 338.278 133.927C335.879 132.762 333.768 129.811 335.202 127.562C337.319 124.24 334.235 119.895 334.869 116.007C335.138 114.357 336.07 112.896 337.056 111.545C340.396 106.967 344.616 103.032 349.416 100.018C350.532 99.318 350.812 97.843 350.988 96.5371C351.412 93.384 351.836 90.2308 352.261 87.0777C352.557 84.8778 352.758 82.3534 351.248 80.7261C346.335 75.4305 338.157 75.2571 330.937 75.4927C323.717 75.7283 315.56 75.6354 310.558 70.4235C309.006 68.8059 306.171 69.3559 304.488 70.8363C302.804 72.3167 301.873 74.4485 300.62 76.3075C296.705 82.115 289.125 85.1932 282.269 83.7592C278.598 82.9911 274.896 81.0562 271.29 82.0924C266.484 83.4737 263.742 89.7036 258.742 89.7889ZM396.718 232.726C396.939 233.528 397.262 234.443 398.048 234.713C398.678 234.929 399.358 234.634 399.959 234.344C401.953 233.384 403.948 232.423 405.942 231.463C406.966 230.97 408.116 230.315 408.298 229.194C411.991 206.45 410.921 182.944 405.178 160.629C403.82 155.352 402.2 150.131 400.041 145.127C397.284 138.736 393.671 132.754 389.962 126.864C384.623 118.386 379.06 110.049 373.281 101.865C372.208 103.537 371.889 105.563 371.344 107.473C370.798 109.383 369.883 111.363 368.129 112.295C366.374 113.226 363.679 112.436 363.368 110.474C362.695 106.232 358.143 103.025 353.923 103.819C353.015 103.989 352.715 105.118 352.602 106.035C351.575 114.367 350.547 122.698 349.52 131.03C349.445 131.636 349.414 132.357 349.891 132.738C350.287 133.056 350.853 132.985 351.361 132.977C354.234 132.934 356.739 135.934 356.184 138.753C355.629 141.572 352.173 143.399 349.531 142.27C348.391 141.783 347.498 143.329 347.212 144.535C345.487 151.819 343.761 159.102 342.036 166.386C341.527 168.534 343.382 170.561 345.378 171.505C347.373 172.45 349.653 172.791 351.485 174.024C356.071 177.113 355.874 184.138 359.582 188.24C362.604 191.581 368.195 192.189 371.863 189.575C375.146 187.236 376.572 182.965 376.574 178.934C376.575 176.186 378.282 173.51 380.774 172.35C383.266 171.191 386.413 171.608 388.516 173.377C390.565 175.1 391.493 177.778 392.332 180.32C392.702 181.441 393.073 182.664 392.675 183.776C392.026 185.593 389.792 186.132 387.965 186.756C384.609 187.903 381.669 190.224 379.775 193.222C378.851 194.685 378.224 196.736 379.368 198.035C382.164 201.207 384.96 204.379 387.756 207.552C389.218 209.211 390.724 210.949 391.311 213.081C393.113 219.629 394.916 226.178 396.718 232.726ZM111.911 128.44C116.292 120.262 120.717 112.02 126.669 104.904C131.882 98.6721 138.16 93.4319 144.43 88.2641C152.69 81.4557 161 74.7083 169.36 68.0227C172.839 65.2398 176.373 62.4393 180.43 60.5964C168.267 55.237 156.028 49.8509 143.115 46.7027C130.203 43.5546 116.449 42.7339 103.708 46.5167C102.481 46.8812 101.248 47.2959 100.189 48.0147C98.3991 49.2286 97.2689 51.1951 96.4211 53.1843C93.0889 61.002 93.2759 69.8597 94.3599 78.2885C96.6354 95.9834 102.656 113.188 111.911 128.44ZM386.517 371.126C386.402 372.314 385.121 373.431 384.045 372.914C383.537 372.671 383.228 372.154 382.947 371.665C378.658 364.175 374.368 356.686 370.078 349.197C367.31 350.238 365.98 353.575 366.291 356.517C366.602 359.458 368.17 362.095 369.701 364.626C372.042 368.496 374.384 372.366 376.726 376.237C375.494 377.504 373.512 375.819 372.601 374.306C369.351 368.911 366.102 363.517 362.853 358.123C356.647 364.506 350.441 370.889 344.235 377.272C348.277 383.59 352.318 389.907 356.36 396.224C357.312 397.713 359.351 398.188 361.079 397.814C362.806 397.44 364.299 396.392 365.739 395.368C376.57 387.664 387.401 379.961 398.232 372.258C399.055 371.672 399.937 371.004 400.179 370.023C400.432 368.997 399.906 367.957 399.397 367.031C374.897 322.46 348.748 278.795 321.022 236.156C320.206 234.901 319.174 233.514 317.68 233.415C316.685 233.349 315.762 233.891 314.911 234.414C303.915 241.181 292.919 247.948 281.923 254.715C279.887 255.968 277.851 257.22 275.815 258.473C275.285 258.799 274.714 259.177 274.537 259.773C274.327 260.478 274.744 261.202 275.145 261.819C279.15 267.972 283.378 273.981 287.819 279.828C293.066 274.18 299.31 268.097 307.017 268.289C313.671 268.454 319.16 273.293 324.007 277.856C326.842 280.524 329.677 283.193 332.512 285.861C328.031 277.467 322.734 269.51 316.718 262.137C316.458 260.896 318.644 261.235 319.487 262.183C327.882 271.626 332.502 284.036 341.342 293.063C350.376 302.287 359.409 311.512 368.443 320.737C372.28 324.655 376.351 329.082 376.654 334.558C376.93 339.559 373.965 344.108 370.985 348.132C376.239 354.335 381.046 360.918 385.354 367.812C385.986 368.824 386.631 369.938 386.517 371.126ZM290.847 49.4523C294.651 50.2061 298.46 50.9612 302.192 52.0149C311.805 54.7292 320.742 59.3738 329.601 63.9871C337.333 68.0133 345.108 72.0663 352.047 77.3419C352.802 58.4824 352.054 39.7563 345.779 21.9555C343.969 16.8222 339.599 11.2869 335.347 7.88874C330.355 3.89879 323.425 3.19664 317.099 4.10165C306.048 5.68256 295.982 11.6011 287.692 19.0777C279.402 26.5542 272.68 35.5749 266.016 44.5311C274.293 46.1715 282.57 47.8119 290.847 49.4523ZM401.864 140.993C412.542 168.235 416.029 198.259 411.878 227.223C425.429 219.457 437.54 209.189 447.419 197.092C452.341 191.064 456.903 183.968 456.582 176.192C456.319 169.802 452.683 163.903 447.883 159.676C443.083 155.449 437.188 152.686 431.263 150.277C421.733 146.402 411.891 143.294 401.864 140.993ZM380.923 187.571C383.432 185.73 386.117 184.129 388.93 182.796C388.922 181.002 388.903 179.149 388.183 177.505C387.463 175.861 385.847 174.47 384.057 174.594C382.175 174.723 380.755 176.442 380.158 178.231C379.56 180.021 379.55 181.95 379.137 183.79C377.994 188.88 373.483 193.035 368.316 193.757C363.15 194.479 357.673 191.719 355.179 187.137C353.17 183.444 352.868 178.666 349.666 175.942C347.892 174.432 345.531 173.853 343.264 173.32C342.738 173.196 342.178 173.074 341.666 173.249C340.843 173.53 340.457 174.449 340.168 175.268C338.226 180.757 336.285 186.246 334.344 191.734C333.626 193.764 333.035 196.36 334.64 197.796C349.459 211.058 355.49 232.151 370.561 245.125C371.007 245.51 371.557 245.911 372.13 245.775C379.319 244.068 386.289 241.44 392.814 237.974C393.333 237.698 393.875 237.393 394.173 236.887C394.475 236.372 394.474 235.74 394.443 235.144C394.228 231.043 393.009 226.998 390.921 223.461C389.934 221.789 388.723 220.137 388.535 218.204C388.374 216.554 388.987 214.861 388.595 213.25C388.275 211.934 387.332 210.873 386.421 209.87C383.848 207.038 381.275 204.206 378.702 201.373C377.429 199.972 376.107 198.478 375.717 196.626C374.956 193.017 377.95 189.753 380.923 187.571ZM219.639 104.184C222.674 102.358 224.514 98.7153 224.182 95.1882C223.697 90.0413 219.265 86.2906 215.173 83.131C208.469 77.9541 193.138 65.3757 186.398 62.672C179.657 59.9684 149.835 86.5698 139.472 96.7693C138.949 97.2844 138.403 97.8461 138.257 98.5658C138.112 99.2855 134.945 107.03 141.321 108.913C147.697 110.795 148.38 109.345 150.985 107.03C153.59 104.716 155.106 101.433 156.33 98.1703C157.375 95.3839 160.536 94.0505 163.452 93.4566C166.368 92.8626 169.51 92.6413 171.922 90.8982C174.434 89.0829 177.942 89.1884 180.805 90.3753C183.668 91.5621 186.033 93.6734 188.337 95.7461C190.262 97.4778 193.375 95.5415 194.561 93.24C195.748 90.9386 196.246 88.099 198.322 86.5508C201.29 84.3373 205.844 86.3185 207.671 89.5384C210.27 94.1176 208.432 100.656 203.829 103.212C201.161 104.692 197.258 105.685 197.151 108.734C197.098 110.25 198.157 111.584 199.336 112.538C201.452 114.249 204.897 115.062 206.699 113.023C209.268 110.117 206.399 103.978 209.957 102.434C213.099 101.072 216.704 105.95 219.639 104.184ZM300.762 71.6823C301.826 70.0312 302.893 68.2227 304.668 67.3812C306.937 66.3057 309.661 67.16 311.813 68.4531C313.965 69.7461 315.887 71.4766 318.248 72.3318C320.651 73.2023 323.283 73.0847 325.835 72.9559C330.08 72.7417 334.325 72.5275 338.569 72.3133C312.911 57.4467 284.05 47.0205 254.397 46.7275C251.898 46.7028 249.341 46.7598 246.995 47.6245C244.65 48.4892 242.52 50.3093 241.919 52.7356C241.003 56.4305 244.364 60.38 248.169 60.4978C246.182 61.9528 246.488 65.3321 248.381 66.9076C250.275 68.4831 253.108 68.4708 255.381 67.5221C257.654 66.5734 259.496 64.8434 261.284 63.1492C264.612 59.9961 267.939 56.843 271.266 53.6899C273.358 51.7081 276.614 51.624 279.441 52.1833C282.267 52.7426 285.034 53.8251 287.914 53.7551C293.962 53.6082 299.319 59.8174 298.288 65.7786C295.573 63.2187 291.625 62.0322 287.949 62.672C284.273 63.3118 280.957 65.7628 279.267 69.0893C277.897 71.7863 274.839 73.2115 271.866 73.7664C268.892 74.3213 265.82 74.2052 262.857 74.8173C259.895 75.4294 256.875 76.9888 255.663 79.7605C254.451 82.5321 256.034 86.4852 259.047 86.7645C262.555 87.09 264.603 82.9703 267.554 81.0453C270.363 79.2134 274.029 79.4533 277.306 80.1654C280.582 80.8775 283.858 82.0005 287.199 81.7116C293.005 81.2094 297.605 76.5802 300.762 71.6823ZM394.725 240.624C388.002 243.217 381.278 245.809 374.555 248.401C373.62 248.762 372.481 249.683 373.044 250.513C379.457 259.978 384.393 270.441 387.62 281.408C387.934 282.476 389.554 281.677 390.188 280.762C396.068 272.261 400.756 262.936 404.072 253.146C404.672 251.374 405.232 249.46 404.717 247.661C403.908 244.835 400.87 243.41 398.631 241.504C398.013 240.978 397.387 240.369 396.584 240.252C395.951 240.16 395.321 240.394 394.725 240.624ZM317.166 156.557C314.077 159.836 316.672 165.391 315.085 169.607C314.733 170.542 314.165 171.528 314.489 172.472C314.651 172.943 315.013 173.312 315.364 173.664C316.463 174.764 317.561 175.865 318.659 176.965C319.521 177.829 320.92 178.724 321.818 177.898C325.511 174.501 329.985 171.958 334.794 170.523C336.179 170.11 337.677 169.737 338.643 168.662C339.496 167.715 339.771 166.397 340.013 165.146C341.371 158.142 342.72 151.135 344.059 144.127C344.163 143.58 344.264 142.994 344.041 142.484C343.805 141.942 343.258 141.611 342.725 141.357C337.316 138.781 330.042 141.421 327.545 146.867C326.697 148.715 326.306 150.855 324.882 152.308C322.808 154.424 319.197 154.399 317.166 156.557ZM209.318 66.9579C208.272 66.0088 207.191 64.8176 207.294 63.4093C207.404 61.9082 208.794 60.873 210.054 60.0491C214.517 57.1298 218.98 54.2106 223.443 51.2914C223.335 50.4245 222.12 50.3328 221.26 50.4891C209.703 52.5908 198.38 55.9785 187.568 60.5696C199.626 68.0027 211.194 76.2307 222.171 85.1826C223.504 82.1584 226.932 80.6698 228.962 78.0621C231.527 74.7677 231.719 69.8755 234.872 67.1401C236.42 65.7978 238.719 64.8673 239.028 62.8423C236.321 62.8612 233.614 62.8801 230.906 62.8991C227.613 62.9221 224.106 63.0074 221.37 64.84C218.981 66.4395 217.146 69.3484 214.273 69.4305C212.38 69.4846 210.72 68.2309 209.318 66.9579ZM344.295 247.072C346.397 250.84 348.498 254.608 350.6 258.375C346.75 246.127 342.159 234.112 336.861 222.417C336.673 222.002 336.457 221.558 336.054 221.344C335.557 221.081 334.951 221.255 334.418 221.433C319.492 226.424 304.565 231.415 289.638 236.405C289.185 236.557 288.693 236.738 288.45 237.15C288.157 237.644 288.333 238.272 288.528 238.812C289.403 241.226 290.547 243.542 291.934 245.702C301.296 240.255 310.657 234.808 320.018 229.361C321.459 228.523 322.976 227.661 324.642 227.598C326.021 227.546 327.361 228.052 328.592 228.673C335.906 232.362 340.305 239.919 344.295 247.072ZM276.524 349.001C274.643 344.982 271.414 341.692 267.707 339.252C263.155 347.708 257.932 355.802 252.102 363.434C251.656 364.018 251.492 365.212 252.225 365.16C259.333 364.661 266.442 364.161 273.55 363.661C274.977 363.561 276.692 363.261 277.216 361.93C278.842 357.801 278.406 353.019 276.524 349.001ZM383.845 289.714C384.421 288.832 385.007 287.926 385.24 286.899C385.548 285.541 385.208 284.128 384.841 282.784C382.022 272.453 377.587 262.591 372.051 253.424C371.406 252.357 370.712 251.263 369.663 250.59C368.614 249.917 367.105 249.794 366.189 250.64C364.966 251.77 365.431 253.766 365.988 255.336C370.401 267.77 374.814 280.203 379.228 292.637C379.491 293.378 380.09 294.289 380.823 294.005C381.108 293.895 381.294 293.623 381.461 293.367C382.256 292.149 383.051 290.931 383.845 289.714ZM339.552 131.571C340.829 132.648 342.525 133.056 344.153 133.431C345.459 133.732 346.231 132.029 346.457 130.708C347.967 121.886 348.937 112.981 349.906 104.084C349.165 103.769 348.379 104.374 347.801 104.934C345.725 106.949 343.649 108.963 341.572 110.978C340.127 112.38 338.616 113.895 338.157 115.856C337.285 119.588 340.466 123.841 338.455 127.105C337.578 128.527 338.274 130.493 339.552 131.571ZM335.029 202.144C334.531 201.584 333.993 201.006 333.279 200.775C332.566 200.544 331.635 200.806 331.387 201.514C329.177 207.837 326.966 214.16 324.756 220.484C324.546 221.085 324.687 222.097 325.297 221.917C329.026 220.816 332.465 218.869 336.209 217.824C339.953 216.778 344.331 216.791 347.323 219.274C343.834 213.158 339.707 207.407 335.029 202.144ZM366.963 109.678C368.084 106.636 369.205 103.594 370.327 100.553C370.544 99.9629 370.114 99.3492 369.71 98.8679C365.706 94.0991 361.669 89.2974 356.822 85.3889C356.616 85.2224 356.382 85.0488 356.117 85.0629C355.613 85.0898 355.412 85.7164 355.341 86.2157C354.738 90.4571 354.134 94.6985 353.531 98.9399C353.355 100.176 354.494 101.25 355.687 101.616C356.881 101.981 358.166 101.879 359.394 102.108C361.657 102.529 363.661 104.149 364.548 106.274C365.11 107.622 365.526 109.415 366.963 109.678ZM331.171 191.608C333.291 186.187 335.235 180.697 336.999 175.15C337.118 174.777 337.237 174.371 337.111 174C336.774 173.009 335.308 173.266 334.372 173.735C330.697 175.576 327.162 177.698 323.81 180.078C323.393 180.373 322.939 180.746 322.923 181.256C322.911 181.642 323.159 181.982 323.397 182.286C325.887 185.476 328.48 188.586 331.171 191.608ZM362.266 280.961C361.869 280.527 361.216 280.46 360.629 280.47C359.3 280.492 357.975 280.763 356.745 281.265C356.139 281.511 355.537 281.818 354.884 281.852C354.231 281.885 353.498 281.545 353.337 280.911C355.064 279.677 357.157 278.963 359.278 278.885C360.221 278.851 360.248 277.25 359.42 276.796C358.593 276.343 357.572 276.675 356.691 277.013C355.234 277.573 353.778 278.132 352.321 278.692C351.898 278.855 351.461 278.342 351.523 277.892C351.584 277.442 351.949 277.1 352.31 276.825C353.62 275.824 355.184 275.158 356.813 274.906C357.589 274.787 357.715 273.582 357.147 273.038C356.58 272.495 355.707 272.459 354.922 272.5C352.641 272.62 350.379 273.114 348.256 273.958C350.066 277.206 351.915 280.434 353.801 283.639C354.29 284.468 354.82 285.336 355.666 285.795C357.185 283.876 359.496 282.603 361.93 282.346C362.515 282.284 362.663 281.394 362.266 280.961ZM393.449 339.569C392.053 339.925 390.671 340.331 389.305 340.786C388.931 340.911 388.499 341.106 388.435 341.495C388.398 341.727 388.509 341.954 388.618 342.162C389.42 343.704 390.223 345.246 391.025 346.788C391.351 347.413 392.006 348.148 392.614 347.79C394.615 346.614 396.851 345.837 399.151 345.519C399.783 345.431 400.197 344.753 400.212 344.114C400.226 343.475 399.944 342.872 399.667 342.296C399.193 341.309 398.673 340.268 397.741 339.693C396.488 338.919 394.876 339.205 393.449 339.569ZM398.833 356.517C398.288 356.616 397.657 356.781 397.443 357.293C397.269 357.71 397.453 358.182 397.635 358.596C398.332 360.176 399.028 361.755 399.724 363.334C399.941 363.828 400.229 364.381 400.755 364.499C401.13 364.582 401.509 364.412 401.855 364.246C402.928 363.732 404.001 363.218 405.074 362.705C405.677 362.415 406.317 362.093 406.648 361.512C406.98 360.93 406.804 360.019 406.158 359.841C405.814 359.747 405.45 359.882 405.129 360.038C404.168 360.505 403.302 361.184 402.276 361.482C401.251 361.78 399.945 361.551 399.458 360.6C401.985 359.703 404.401 358.492 406.633 357.005C406.433 355.61 404.478 355.487 403.092 355.74C401.672 355.999 400.253 356.258 398.833 356.517ZM378.187 320.255C378.598 319.808 379.194 319.589 379.766 319.386C381.34 318.826 382.914 318.266 384.488 317.707C385.306 317.416 385.106 316.056 384.334 315.658C383.562 315.26 382.629 315.509 381.799 315.764C379.999 316.319 378.199 316.873 376.398 317.428C376.163 317.5 375.917 317.58 375.752 317.762C375.376 318.18 375.629 318.837 375.896 319.331C376.609 320.649 377.323 321.967 378.036 323.284C378.119 323.438 378.213 323.602 378.371 323.676C378.563 323.766 378.787 323.697 378.987 323.628C381.178 322.871 383.368 322.114 385.559 321.357C386.082 321.176 386.71 320.845 386.666 320.294C386.606 319.542 385.503 319.536 384.784 319.764C382.53 320.479 380.277 321.195 378.024 321.91C377.626 321.451 377.776 320.702 378.187 320.255ZM406.195 234.283C404.255 235.379 402.315 236.476 400.375 237.572C400.142 237.704 399.897 237.847 399.769 238.082C399.43 238.705 400.099 239.382 400.688 239.776C401.895 240.585 403.101 241.393 404.308 242.202C404.546 242.361 404.801 242.526 405.087 242.529C405.737 242.535 406.072 241.77 406.238 241.142C406.774 239.126 407.309 237.109 407.844 235.093C407.911 234.84 407.977 234.562 407.868 234.324C407.606 233.749 406.745 233.972 406.195 234.283ZM380.654 324.77C380.186 324.891 379.652 325.066 379.477 325.518C379.346 325.853 379.465 326.232 379.617 326.558C380.01 327.397 380.632 328.127 381.397 328.649C383.433 327.872 385.468 327.096 387.503 326.319C388.378 325.985 389.413 325.422 389.376 324.487C389.349 323.818 388.717 323.298 388.06 323.169C387.402 323.04 386.727 323.208 386.078 323.375C384.27 323.84 382.462 324.305 380.654 324.77ZM351.165 251.555C351.877 252.945 353.639 253.348 355.18 253.598C357.639 253.996 360.097 254.394 362.556 254.793C362.599 253.398 361.159 252.47 359.88 251.91C357.537 250.883 355.09 250.09 352.59 249.547C352.32 249.488 352.039 249.432 351.771 249.497C350.97 249.69 350.79 250.822 351.165 251.555ZM342.051 250.503C342.244 250.43 342.439 250.356 342.605 250.234C343.338 249.695 343.115 248.428 342.366 247.91C341.618 247.392 340.605 247.461 339.736 247.734C338.867 248.007 338.057 248.459 337.169 248.66C335.969 248.931 334.4 248.918 333.94 250.059C333.548 251.033 334.448 252.137 335.473 252.362C336.499 252.588 337.551 252.21 338.533 251.837C339.706 251.393 340.878 250.948 342.051 250.503ZM346.771 259.291C347.762 258.645 347.303 256.943 346.25 256.404C345.196 255.866 343.93 256.118 342.777 256.382C341.561 256.66 340.262 256.985 339.434 257.919C338.605 258.852 338.606 260.6 339.736 261.128C341.272 261.846 342.713 259.819 344.39 259.568C345.191 259.448 346.092 259.734 346.771 259.291ZM381.55 313.827C381.882 313.717 382.234 313.591 382.448 313.314C382.686 313.005 382.694 312.565 382.56 312.199C382.244 311.342 381.257 310.886 380.344 310.902C379.431 310.919 378.571 311.307 377.741 311.688C376.685 312.173 375.628 312.658 374.572 313.142C373.991 313.409 373.334 313.771 373.238 314.403C373.14 315.046 373.73 315.629 374.366 315.765C375.001 315.901 375.656 315.71 376.277 315.519C378.041 314.976 379.799 314.412 381.55 313.827ZM386.31 336.197C388.586 335.241 390.861 334.284 393.136 333.328C393.351 333.237 393.574 333.142 393.73 332.968C394.192 332.457 393.77 331.565 393.126 331.319C392.482 331.073 391.763 331.263 391.101 331.455C389.564 331.9 388.026 332.345 386.488 332.791C385.638 333.037 384.686 333.368 384.328 334.178C383.838 335.285 385.194 336.667 386.31 336.197ZM401.669 349.461C402.578 349.11 402.246 347.579 401.344 347.212C400.441 346.845 399.428 347.222 398.514 347.559C396.722 348.218 394.876 348.729 393 349.083C392.346 349.963 393.143 351.313 394.198 351.612C395.253 351.91 396.366 351.51 397.389 351.115C398.816 350.564 400.242 350.012 401.669 349.461ZM353.232 247.5C355.066 247.98 356.899 248.46 358.732 248.941C359.43 249.124 360.506 249.021 360.455 248.302C357.289 246.113 353.646 244.617 349.855 243.951C349.654 243.915 349.442 243.883 349.25 243.953C348.593 244.192 348.843 245.21 349.339 245.705C350.363 246.727 351.833 247.133 353.232 247.5ZM360.159 240.417C360.808 241.976 361.456 243.535 362.105 245.094C362.495 246.033 362.934 247.031 363.795 247.571C364.657 248.111 366.059 247.882 366.341 246.906C366.555 246.161 366.053 245.417 365.574 244.807C363.749 242.48 361.869 240.195 359.936 237.955C359.508 238.696 359.831 239.627 360.159 240.417ZM357.019 243.347C357.364 243.465 357.782 243.572 358.06 243.337C358.386 243.062 358.268 242.53 358.047 242.166C357.244 240.844 355.618 240.32 354.129 239.897C352.128 239.328 350.127 238.76 348.125 238.191C347.503 238.015 347.035 238.922 347.326 239.5C347.617 240.077 348.287 240.336 348.898 240.547C351.605 241.48 354.312 242.414 357.019 243.347ZM383.78 329.304C383.218 329.474 382.606 329.68 382.299 330.181C381.751 331.072 382.551 332.234 383.491 332.691C385.614 330.964 388.318 329.966 391.054 329.9C391.985 329.877 392.066 328.317 391.277 327.823C390.487 327.329 389.464 327.584 388.572 327.853C386.975 328.337 385.378 328.82 383.78 329.304ZM374.891 304.937C373.6 305.278 372.31 305.619 371.019 305.96C369.836 306.273 368.352 307.048 368.636 308.238C368.878 309.252 370.294 309.482 371.245 309.055C372.195 308.628 372.92 307.801 373.866 307.364C375.412 306.65 377.59 306.911 378.457 305.445C377.718 304.396 376.131 304.609 374.891 304.937ZM326.526 236.695C326.278 236.802 326.023 236.924 325.859 237.139C325.437 237.694 325.898 238.556 326.55 238.8C327.203 239.043 327.928 238.868 328.605 238.706C330.882 238.161 333.199 237.783 335.531 237.578C335.758 236.298 334.086 235.581 332.787 235.53C330.648 235.445 328.491 235.846 326.526 236.695ZM364.263 286.306C364.932 285.597 364.553 284.018 363.597 284.205C361.061 284.7 358.617 285.659 356.421 287.02C355.908 288.065 357.328 289.149 358.478 288.968C359.628 288.786 360.552 287.943 361.629 287.502C362.531 287.132 363.594 287.014 364.263 286.306ZM365.652 263.394C365.351 263.014 364.871 262.834 364.415 262.671C362.199 261.879 359.983 261.086 357.767 260.294C357.16 260.077 356.481 259.861 355.891 260.12C355.301 260.378 355.066 261.356 355.643 261.641C358.483 263.045 361.501 264.086 364.601 264.732C364.924 264.799 365.285 264.855 365.563 264.678C365.971 264.418 365.952 263.773 365.652 263.394ZM355.218 237.321C355.534 237.508 355.95 237.154 355.958 236.787C355.966 236.419 355.719 236.1 355.471 235.829C353.09 233.232 349.596 232.019 346.255 230.902C345.407 230.618 344.167 230.522 343.92 231.381C347.783 233.168 351.556 235.152 355.218 237.321ZM404.508 352.547C404.308 351.851 403.573 351.418 402.852 351.345C402.132 351.273 401.416 351.487 400.724 351.699C399.515 352.068 398.306 352.438 397.097 352.807C396.261 353.063 395.246 353.565 395.316 354.436C395.373 355.144 396.199 355.568 396.906 355.5C397.614 355.432 398.238 355.032 398.879 354.726C400.277 354.056 401.873 353.805 403.41 354.014C404.127 354.112 404.707 353.244 404.508 352.547ZM328.685 241.992C328.675 242.646 329.186 243.27 329.83 243.389C330.246 243.466 330.671 243.351 331.078 243.237C333.432 242.581 335.785 241.926 338.138 241.27C338.176 240.608 337.604 240.037 336.97 239.845C336.336 239.653 335.655 239.752 335 239.851C333.291 240.111 331.582 240.371 329.873 240.631C329.226 240.73 328.695 241.338 328.685 241.992ZM367.556 289.064C367.649 288.449 367.045 287.907 366.428 287.829C365.811 287.752 365.206 288.004 364.635 288.25C362.819 289.034 361.003 289.818 359.187 290.603C358.646 291.288 359.311 292.376 360.163 292.569C361.014 292.761 361.877 292.372 362.664 291.993C363.904 291.395 365.145 290.797 366.386 290.198C366.896 289.952 367.47 289.624 367.556 289.064ZM341.583 226.179C341.792 226.552 342.208 226.75 342.598 226.925C345.834 228.375 349.07 229.825 352.306 231.275C352.881 231.532 353.718 231.707 354.002 231.145C354.306 230.541 353.556 229.965 352.934 229.701C349.453 228.222 345.972 226.743 342.49 225.264C342.315 225.19 342.129 225.114 341.941 225.145C341.519 225.216 341.374 225.806 341.583 226.179ZM358.341 267.926C358.233 267.88 358.116 267.833 358.001 267.856C357.88 267.88 357.781 267.985 357.763 268.106C358.046 270.043 360.219 270.997 362.081 271.601C364.514 272.391 366.947 273.181 369.38 273.971C369.965 273.324 369.01 272.428 368.207 272.089C364.918 270.701 361.63 269.314 358.341 267.926ZM340.349 245.23C340.621 244.718 340.212 244.079 339.697 243.814C338.798 243.351 337.712 243.61 336.737 243.877C335.626 244.182 334.514 244.487 333.403 244.792C332.603 245.012 331.637 245.427 331.608 246.257C331.585 246.878 332.171 247.386 332.782 247.499C333.393 247.613 334.016 247.434 334.612 247.256C336.196 246.783 337.781 246.31 339.366 245.836C339.746 245.723 340.164 245.58 340.349 245.23ZM395.438 335.337C394.778 334.954 393.946 335.178 393.219 335.41C390.907 336.15 388.594 336.889 386.281 337.629C385.77 338.448 386.7 339.537 387.664 339.595C388.628 339.652 389.502 339.09 390.353 338.634C391.902 337.804 393.608 337.27 395.353 337.07C396.112 336.983 396.099 335.719 395.438 335.337ZM351.269 265.125C350.528 264.926 349.743 265.064 348.989 265.203C348.056 265.376 347.123 265.548 346.19 265.72C345.132 265.915 343.79 266.463 343.902 267.533C343.968 268.164 344.591 268.62 345.219 268.712C345.848 268.804 346.479 268.617 347.087 268.432C348.949 267.864 350.811 267.297 352.674 266.73C352.692 265.963 352.01 265.323 351.269 265.125ZM344.917 252.579C344.399 252.05 343.546 252.013 342.834 252.218C342.123 252.423 341.486 252.828 340.791 253.083C339.972 253.384 339.086 253.473 338.27 253.781C337.454 254.09 336.665 254.706 336.524 255.568C336.83 256.284 337.859 256.204 338.612 256.002C340.606 255.465 342.601 254.927 344.595 254.39C345.31 254.198 345.435 253.108 344.917 252.579ZM342.141 262.339C341.31 262.58 341.453 263.953 342.211 264.371C342.969 264.788 343.905 264.558 344.736 264.318C346.48 263.814 348.223 263.311 349.967 262.807C350.094 261.936 349.298 261.147 348.438 260.958C347.578 260.768 346.689 261.016 345.844 261.262C344.609 261.621 343.375 261.98 342.141 262.339ZM352.034 139.667C353.143 138.869 352.972 137.221 353.005 135.856C351.56 135.679 349.977 135.532 348.759 136.329C347.54 137.126 347.214 139.277 348.518 139.923C348.966 140.145 349.489 140.139 349.989 140.128C350.699 140.113 351.458 140.082 352.034 139.667ZM354.828 255.804C354.13 255.733 353.113 256.041 353.311 256.714C353.407 257.037 353.762 257.197 354.079 257.311C357.117 258.41 360.29 259.137 363.504 259.472C363.902 259.38 364.018 258.817 363.81 258.466C363.602 258.114 363.201 257.933 362.822 257.78C360.267 256.753 357.568 256.086 354.828 255.804ZM340.686 222.073C343.315 223.424 345.994 224.676 348.715 225.827C349.244 226.051 349.844 226.272 350.375 226.054C350.906 225.836 351.109 224.947 350.583 224.716C347.489 223.362 344.394 222.008 341.3 220.654C340.808 220.439 340.108 220.285 339.842 220.751C339.551 221.262 340.163 221.805 340.686 222.073ZM366.7 267.374C366.252 266.967 365.651 266.785 365.07 266.615C362.629 265.897 360.188 265.18 357.746 264.463C357.408 264.364 357.032 264.267 356.716 264.422C356.401 264.578 356.286 265.109 356.602 265.264C359.943 266.902 363.469 268.159 367.091 269.006C367.391 268.481 367.148 267.78 366.7 267.374ZM368.615 305.052C370.356 304.436 372.097 303.82 373.838 303.204C374.604 302.933 375.426 302.62 375.865 301.936C375.753 301.323 375.089 300.937 374.466 300.925C373.843 300.913 373.253 301.182 372.689 301.446C371.163 302.159 369.637 302.872 368.111 303.585C367.56 303.842 366.926 304.221 366.916 304.829C367.202 305.387 368.024 305.261 368.615 305.052ZM354.782 270.234C355.189 269.781 354.823 268.995 354.258 268.769C353.693 268.544 353.055 268.699 352.468 268.856C350.47 269.391 348.471 269.925 346.473 270.46C346.111 270.88 346.437 271.59 346.946 271.81C347.456 272.029 348.041 271.912 348.582 271.792C350.385 271.392 352.188 270.992 353.991 270.591C354.278 270.528 354.585 270.453 354.782 270.234ZM379.197 307.68C378.785 307.589 378.364 307.752 377.974 307.911C375.844 308.782 373.714 309.652 371.584 310.522C370.967 310.775 371.216 311.822 371.842 312.051C372.468 312.28 373.152 311.983 373.752 311.693C375.582 310.807 377.413 309.921 379.243 309.035C379.451 308.935 379.673 308.82 379.775 308.613C379.962 308.235 379.609 307.77 379.197 307.68ZM363.558 273.853C362.738 273.549 361.555 273.39 361.228 274.201C364.114 275.688 367.176 276.834 370.33 277.608C370.974 277.219 370.169 276.3 369.464 276.039C367.495 275.31 365.527 274.581 363.558 273.853ZM323.846 233.96C323.295 234.586 323.838 235.774 324.672 235.766C326.579 234.522 328.805 233.771 331.077 233.608C330.357 232.707 329.109 232.366 327.96 232.456C326.81 232.546 325.726 233.004 324.666 233.456C324.368 233.583 324.06 233.717 323.846 233.96ZM370.496 280.738C371.121 280.889 372.104 280.713 371.948 280.09C369.34 278.913 366.592 278.048 363.781 277.518C363.47 277.937 363.657 278.57 364.045 278.918C364.433 279.265 364.962 279.399 365.469 279.522C367.145 279.927 368.82 280.333 370.496 280.738ZM368.524 284.005C369.984 284.456 371.496 284.741 373.021 284.851C373.326 284.447 373.151 283.831 372.778 283.489C372.405 283.148 371.892 283.012 371.402 282.887C369.847 282.491 368.292 282.096 366.736 281.7C366.172 282.672 367.45 283.672 368.524 284.005ZM401.774 366.911C401.425 367.766 401.878 368.963 402.794 369.082C403.934 367.987 404.913 366.725 405.689 365.349C405.248 364.871 404.468 364.987 403.857 365.212C402.991 365.531 402.122 366.056 401.774 366.911ZM377.421 295.89C376.679 295.198 375.762 294.696 374.78 294.442C374.623 295.833 375.421 297.282 376.681 297.892C376.983 298.038 377.341 298.139 377.65 298.008C378.429 297.676 378.041 296.467 377.421 295.89ZM373.771 287.149C373.261 286.781 372.601 286.711 371.975 286.652C371.203 286.58 370.431 286.508 369.659 286.437C369.285 287.337 370.344 288.213 371.309 288.354C372.273 288.495 373.329 288.303 374.172 288.793C374.554 288.293 374.281 287.517 373.771 287.149ZM379.752 304.111C380.055 304.369 380.427 304.6 380.823 304.557C380.962 302.662 379.683 300.9 378.089 299.866C377.902 301.437 378.547 303.084 379.752 304.111ZM374.808 291.345C373.914 290.852 372.863 290.65 371.85 290.776C372.217 291.763 373.092 292.545 374.113 292.801C374.66 292.938 375.343 292.877 375.64 292.399C375.938 291.92 375.35 291.128 374.889 291.452M324.761 229.982C323.914 230.132 323.119 230.563 322.53 231.19C323.583 231.486 324.783 231.187 325.573 230.431C325.378 230.169 325.076 229.99 324.752 229.945" fill="#00160A"/>
<path fill-rule="evenodd" clip-rule="evenodd" d="M306.587 314.236C315.228 305.936 327.358 307.106 335.841 316.215C343.219 324.139 341.465 334.608 333.087 343.388C329.926 346.667 323.581 348.842 318.989 348.309C315.102 347.923 309.049 345.058 305.455 342.417C303.79 341.195 302.268 338.674 300.832 334.845L300.621 334.273C298.071 327.202 299.793 319.728 305.57 315.038L305.841 314.822L305.902 314.738C305.952 314.676 306.01 314.618 306.076 314.562L306.181 314.482L306.298 314.407L306.544 314.283L306.587 314.236ZM321.609 342.749L318.995 345.544L319.283 345.569C321.963 345.763 324.584 345.344 326.967 344.331L327.1 344.272L326.915 344.262C325.269 344.144 323.528 343.641 321.72 342.801L321.609 342.749ZM313.984 337.499L313.739 337.275L313.481 337.526C312.468 338.513 311.438 339.524 310.385 340.567L309.192 341.752C309.53 341.998 309.881 342.237 310.247 342.472C311.9 343.55 313.685 344.366 315.532 344.897L315.929 345.006L317.839 342.994L319.269 341.481L319.175 341.425C317.378 340.322 315.612 338.967 313.984 337.499ZM326.45 337.569L323.335 340.902L323.492 340.97C325.916 341.987 328.072 342.179 329.927 341.431L330.122 341.347L329.935 341.135C328.997 340.086 327.989 339.047 326.887 337.985L326.45 337.569ZM307.681 330.535L307.128 331.078C306.332 331.853 305.528 332.623 304.717 333.387L303.442 334.579L303.549 334.834C304.413 336.824 305.615 338.556 307.182 340.071L307.239 340.124L307.416 339.943C308.551 338.792 309.723 337.626 310.944 336.432L311.894 335.506L311.636 335.246C310.215 333.802 309 332.387 307.977 330.958L307.681 330.535ZM331.539 332.124L328.139 335.762L328.173 335.794C329.478 337.039 330.67 338.26 331.777 339.494L332.113 339.872L332.123 339.86C333.284 338.285 333.084 335.716 331.69 332.469L331.539 332.124ZM319.644 331.631L319.391 331.868C318.229 332.959 317.05 334.078 315.848 335.234L315.509 335.559L315.826 335.839C317.488 337.291 319.08 338.512 320.672 339.495L320.972 339.676L323.107 337.411L324.575 335.846L324.09 335.415C323.209 334.638 322.257 333.823 321.06 332.817L319.644 331.631ZM337.808 325.419L333.103 330.45L333.256 330.746C333.515 331.256 333.769 331.774 334.019 332.3L334.389 333.096L334.734 333.862C335.086 334.604 335.328 335.342 335.457 336.07L335.477 336.193L335.617 335.941C337.521 332.451 338.301 328.859 337.824 325.522L337.808 325.419ZM327.46 325.364L327.219 325.043L326.361 325.764L323.971 327.74L323.543 328.099C323.103 328.47 322.708 328.81 322.344 329.133L321.92 329.514L321.483 329.918L322.468 330.74C323.568 331.663 324.526 332.483 325.421 333.273L326.272 334.033L329.006 331.104L330.306 329.705L330.297 329.686C329.479 328.244 328.508 326.771 327.46 325.364ZM312.899 325.659L312.694 325.458L312.629 325.527C311.83 326.364 311.023 327.195 310.21 328.019L309.398 328.834L309.568 329.093C310.556 330.574 311.778 332.02 313.205 333.422L313.566 333.772L313.631 333.833L313.742 333.727C314.566 332.94 315.411 332.14 316.285 331.319L317.692 330.001L317.498 329.839C315.914 328.49 314.385 327.1 312.899 325.659ZM304.205 320.32L304.127 320.45C302.192 323.703 301.594 327.748 302.493 331.6L302.573 331.93L302.614 332.087L303.02 331.709C303.868 330.91 304.71 330.103 305.546 329.289L306.396 328.453L306.315 328.305C304.923 325.714 304.194 323.083 304.205 320.38L304.205 320.32ZM319.577 317.885L318.568 319.044C317.422 320.348 316.261 321.637 315.083 322.913L314.389 323.658L314.562 323.826C315.934 325.152 317.355 326.444 318.839 327.713L319.528 328.297L320.187 327.691C320.61 327.307 321.063 326.911 321.576 326.476L322.416 325.771L324.391 324.144C324.748 323.849 325.066 323.584 325.362 323.334L325.652 323.088L325.512 322.925C324.834 322.138 324.196 321.463 323.666 320.967L323.51 320.824C322.434 319.853 321.257 318.964 319.946 318.118L319.577 317.885ZM333.837 317.743L333.731 317.928C332.641 319.777 331.138 321.509 329.094 323.393L328.923 323.549L328.984 323.634C329.878 324.888 330.724 326.201 331.527 327.571L331.818 328.075L334.105 325.605L336.998 322.465L336.931 322.301C336.266 320.72 335.277 319.236 333.963 317.871L333.837 317.743ZM306.767 319.149L306.756 319.255C306.521 321.749 307.009 324.201 308.153 326.613L308.182 326.673L308.487 326.368C309.162 325.685 309.832 324.996 310.498 324.303L311.006 323.77L310.8 323.559C309.628 322.352 308.478 321.105 307.342 319.811L306.767 319.149ZM307.904 316.392L307.729 316.476L307.774 316.53C309.322 318.376 310.899 320.125 312.531 321.803L312.698 321.973L313.379 321.242C314.574 319.947 315.753 318.638 316.915 317.313L317.481 316.662L317.42 316.629C317.133 316.473 316.838 316.317 316.536 316.16L316.076 315.925C313.383 314.602 311.393 314.749 308.175 316.262L307.904 316.392ZM324.749 311.675L323.757 312.905C323.087 313.729 322.411 314.548 321.728 315.361L321.25 315.927L321.372 316.004C323.177 317.168 324.714 318.431 325.978 319.831L326.265 320.157C326.544 320.482 326.82 320.811 327.092 321.146L327.405 321.535L327.448 321.496C329.461 319.62 330.883 317.91 331.858 316.074L331.887 316.018L331.629 315.814C329.019 313.763 327.107 312.544 325.084 311.794L324.749 311.675ZM320.758 310.969C318.202 310.951 315.874 311.408 313.725 312.346L313.602 312.401L313.816 312.429C314.287 312.498 314.749 312.617 315.203 312.789L315.43 312.879C316.647 313.415 317.766 313.952 318.816 314.51L319.167 314.7L319.855 313.888C320.555 313.054 321.249 312.215 321.936 311.37L322.182 311.065L321.883 311.031C321.634 311.005 321.384 310.988 321.134 310.978L320.758 310.969Z" fill="#FFB61D"/>
<path fill-rule="evenodd" clip-rule="evenodd" d="M364.215 135.932C365.023 133.744 367.933 132.841 370.08 133.752C372.227 134.664 373.56 136.944 373.896 139.253C374.233 141.561 373.722 143.907 373.065 146.145C372.466 148.186 371.743 150.191 370.901 152.144C370.823 152.326 370.718 152.529 370.525 152.572C370.32 152.618 370.13 152.459 369.982 152.309C366.334 148.613 364.135 143.522 363.944 138.332C363.914 137.523 363.934 136.693 364.215 135.932ZM370.522 136.466C369.923 135.953 369.15 135.617 368.362 135.641C366.522 135.697 365.238 137.704 365.279 139.544C365.32 141.384 366.301 143.055 367.252 144.63C367.933 145.759 368.615 146.887 369.296 148.016C369.528 148.4 369.985 148.839 370.347 148.573C370.493 148.465 370.549 148.277 370.597 148.102C370.876 147.077 371.155 146.052 371.433 145.027C371.832 143.561 372.234 142.072 372.209 140.553C372.185 139.034 371.675 137.455 370.522 136.466L370.522 136.466Z" fill="#FFB61D"/>
<path fill-rule="evenodd" clip-rule="evenodd" d="M369.318 142.357C368.87 142.483 368.381 142.459 367.947 142.29C367.105 141.962 366.524 141.06 366.573 140.158C366.621 139.256 367.296 138.422 368.169 138.187C369.49 137.83 370.979 139.048 370.891 140.414C370.834 141.3 370.173 142.116 369.318 142.357Z" fill="#FFB61D"/>
</svg>
