<svg width="577" height="350" viewBox="0 0 577 350" fill="none" xmlns="http://www.w3.org/2000/svg">
<path fill-rule="evenodd" clip-rule="evenodd" d="M27.014 42.0232C53.3029 85.7514 131.745 138.89 147.197 140.064C196.075 143.777 265.658 151.991 327.806 154.196L329.687 154.261C351.644 154.999 381.449 155.072 419.1 154.48C426.528 147.827 433.459 143.094 439.893 140.282L440.4 140.064C443.845 138.607 452.723 129.33 475.085 119.807C481.237 117.187 499.43 123.043 512.148 118.38L512.769 118.148C523.044 114.225 539.987 104.042 563.597 87.6011C563.454 87.2182 563.308 86.8355 563.158 86.4532C563.715 87.387 564.265 88.3245 564.807 89.2659C565.348 90.2046 607.213 190.172 530.446 267.595C478.099 320.389 338.946 370.129 218.074 341.696C-89.3596 275.262 14.1602 20.6425 27.014 42.0232Z" fill="#64FCD9"/>
<path fill-rule="evenodd" clip-rule="evenodd" d="M543.213 195.995C544.93 192.851 546.313 189.606 549.327 187.551C549.689 187.304 550.415 186.993 550.555 187.132C550.942 187.516 551.324 188.122 551.328 188.642C551.367 193.506 548.203 197.135 546.305 201.242C545.303 203.409 543.874 205.38 542.618 207.427C542.367 207.836 542.057 208.219 541.72 208.56C541.405 208.879 540.746 209.405 540.703 209.363C540.174 208.848 539.504 208.306 539.328 207.649C539.151 206.991 539.406 206.17 539.615 205.463C540.366 202.937 541.141 200.417 541.99 197.923C542.217 197.256 542.741 196.691 543.213 195.995Z" fill="white"/>
<path fill-rule="evenodd" clip-rule="evenodd" d="M542.709 188.098C542.465 189.686 542.461 191.227 542.11 192.684C541.584 194.869 540.93 197.04 540.116 199.133C539.169 201.569 538.061 203.949 536.888 206.286C536.115 207.825 535.154 209.28 534.174 210.701C533.829 211.201 533.172 211.484 532.663 211.873C531.578 212.704 531.306 211.381 531.312 211.085C531.368 208.4 531.229 205.719 532.038 203.054C532.629 201.108 532.58 198.975 532.92 196.943C533.15 195.575 533.588 194.242 533.884 192.883C534.327 190.844 534.703 188.79 535.151 186.752C535.914 183.28 536.719 179.843 540.157 177.837C540.845 177.436 541.164 177.438 541.857 177.889C543.419 178.906 544.078 180.079 543.666 181.98C543.237 183.962 543.073 186 542.709 188.098Z" fill="white"/>
<path fill-rule="evenodd" clip-rule="evenodd" d="M464.214 252.25C461.224 247.076 458.227 241.848 453.383 238.176C451.38 236.659 448.907 235.54 446.475 234.878C444.244 234.27 441.853 234.448 439.414 234.884C436.43 235.418 433.552 236.066 430.804 237.286C426.893 239.022 423.591 241.639 420.878 244.894C416.925 249.637 413.696 254.637 416.124 261.334C417.036 263.849 420.245 265.841 422.945 265.405C424.574 265.143 426.286 265.344 427.958 265.401C429.373 265.45 430.792 265.727 432.197 265.661C434.628 265.546 437.045 265.136 439.476 265.046C442.512 264.933 445.557 265.019 448.598 265.019C449.68 265.019 450.789 265.172 451.839 264.985C453.671 264.658 455.575 264.368 457.257 263.626C461.406 261.797 465.926 258.118 464.214 252.25Z" fill="white"/>
<path fill-rule="evenodd" clip-rule="evenodd" d="M202.634 261.3C202.634 261.3 209.786 261.959 218.899 258.363C228.012 254.767 230.283 248.234 230.283 248.234C230.283 248.234 228.327 238.863 226.478 236.665C224.534 234.352 220.886 234.23 218.899 235.169C217.039 236.048 213.219 236.821 210.647 240.868C209.294 242.998 210.089 247.03 207.873 253.284C207.047 255.616 202.634 261.3 202.634 261.3Z" fill="white"/>
<path fill-rule="evenodd" clip-rule="evenodd" d="M104.213 255.413C104.213 255.413 125.279 262.806 136.733 265.09C148.186 267.375 169.252 268.386 169.252 268.386C169.252 268.386 186.297 241.96 192.585 224.951C198.874 207.942 203.567 175.572 203.567 175.572C203.567 175.572 186.114 181.34 179.934 190.233C173.754 199.127 178.896 215.593 169.252 224.951C157.851 236.015 140.271 224.698 124.896 231.899C109.52 239.101 104.213 255.413 104.213 255.413Z" fill="white"/>
<path fill-rule="evenodd" clip-rule="evenodd" d="M177.634 324.954C200.676 326.996 284.068 298.161 302.501 278.294C308.27 272.077 313.544 259.712 308.129 253.643C291.77 235.31 220.698 211.243 234.772 178.754C239.473 167.902 268.609 160.177 268.609 160.177C268.609 160.177 273.725 157.631 274.427 156.403C275.128 155.176 272.221 153.856 272.221 153.856L302.501 154.361C302.501 154.361 302.108 161.885 298.155 164.896C287.226 173.22 274.427 173.22 272.221 185.217C269.14 201.972 299.815 225.493 316.239 234.509C357.915 257.386 370.564 278.943 516.205 264.217C496.881 276.305 446 306.858 370.197 322.656C246.378 348.462 158.744 323.279 177.634 324.954Z" fill="white"/>
<path fill-rule="evenodd" clip-rule="evenodd" d="M383.843 42.8255C397.5 55.2298 436.282 114.212 443.332 128.97C443.704 129.749 445.214 135.282 445.214 135.282C445.214 135.282 429.965 138.322 421.363 141.961C412.761 145.6 397.494 154.875 397.494 154.875C397.494 154.875 353.547 155.305 324.83 154.34C270.229 152.506 204.607 151.483 165.713 141.961C157.265 139.893 134.143 124.049 127.496 114.106C120.414 103.514 132.691 88.8712 146.609 75.1551C185.459 36.867 278.113 -53.2062 383.843 42.8255Z" fill="#FFB61D"/>
<path d="M463.905 55.0307C461.792 56.1964 458.178 55.0293 456.194 56.0643C452.186 58.1546 448.185 54.1205 443.994 55.6203C441.318 56.5777 438.692 57.4923 435.907 57.7976C433.955 58.0118 432.051 59.2771 430.112 59.3343C427.425 59.4137 425.215 60.7962 423.11 62.5764C421.149 64.2343 419.381 66.2752 417.462 68.0242C416.772 68.6528 415.915 69.1355 415.088 69.3054C413.86 69.5579 410.856 69.4583 409.605 69.5348C407.411 69.669 405.218 69.9345 403.024 69.9374C400.828 69.9402 370.089 78.7082 366.565 81.0102C366.309 81.1773 366.026 81.2734 365.756 81.4024C365.901 81.1449 366.019 80.8494 366.195 80.6356C367.883 78.5905 369.386 77.2637 371.323 75.7557C373.885 73.7609 376.734 72.3009 379.566 71.0058C381.798 69.9852 384.185 69.5215 386.515 68.8846C388.586 68.3187 390.66 67.7326 392.756 67.3775C395.264 66.9524 397.793 66.6153 400.319 66.5178C402.396 66.4377 404.5 67.0547 406.559 66.84C409.584 66.5245 414.343 65.9188 417.306 65.0693C418.41 64.753 419.63 63.6707 420.285 62.4665C421.584 60.0754 423.396 58.5759 425.292 57.571C427.022 56.655 429.073 56.7784 430.979 56.4131C432.752 56.0732 434.524 55.7144 436.292 55.3238C437.805 54.9894 439.357 54.786 440.809 54.1861C442.735 53.3901 444.565 52.205 446.469 51.3058C447.472 50.8319 448.602 50.7809 449.577 50.2414C452.124 48.8328 490.815 39.3276 494.706 40.9632C498.598 42.5988 492.624 46.9785 490.815 46.7981C488.976 46.6147 487.1 46.9678 485.247 47.1755C483.15 47.4106 481.031 47.56 478.975 48.0897C476.974 48.6049 475.017 49.4697 473.082 50.3363C471.11 51.2198 469.184 52.2795 467.245 53.2874C466.179 53.8415 465.13 54.4479 463.905 55.0307Z" fill="white"/>
<path d="M363.435 78.8339C362.566 75.7958 365.063 74.3972 366.592 72.2676C369.986 67.5409 374.777 64.531 379.984 62.1574C382.243 61.1278 384.525 60.1053 386.884 59.3536C389.719 58.4506 392.646 57.8408 395.533 57.1011C395.937 56.9977 396.331 56.8115 396.739 56.7791C397.834 56.692 398.889 55.7882 399.054 55.6805C399.702 55.2598 400.405 54.6154 400.627 53.9094C401.15 52.2437 401.323 50.4712 401.793 48.7852C402.65 45.7134 405.036 43.9752 407.702 42.6837C410.974 41.0981 414.332 39.6825 417.697 38.299C421.931 36.5581 426.217 34.9433 430.466 33.2383C434.427 31.6491 438.294 29.7765 442.351 28.4989C444.335 27.874 446.656 28.3147 448.824 28.2883C448.904 28.2874 448.985 28.4478 449.066 28.5329C448.923 28.6471 448.798 28.813 448.636 28.8679C444.293 30.3335 439.921 31.7162 435.61 33.2685C432.636 34.3395 429.76 35.6784 426.811 36.8248C425.579 37.304 424.226 37.4825 423.011 37.9942C420.466 39.0658 417.991 40.3039 415.457 41.4041C413.594 42.2135 411.633 42.8097 409.804 43.6861C407.327 44.8731 404.727 46.0712 403.913 49.0436C403.61 50.1506 404.038 51.4966 403.618 52.5234C403.033 53.955 402.187 55.4365 401.057 56.4566C398.728 58.5572 395.751 59.4545 392.721 60.1422C390.875 60.5609 389.09 61.2712 387.233 61.6069C383.491 62.2835 380.054 63.7517 376.757 65.5279C372.204 67.98 367.749 70.6388 365.274 75.1947C364.603 76.4301 364.323 77.8768 363.847 79.2205C363.796 79.3646 363.632 79.4688 363.52 79.5915C363.52 79.367 363.519 79.1425 363.435 78.8339Z" fill="white"/>
<path d="M360.605 77.1537C360.415 76.2918 360.201 75.5105 360.226 74.7367C360.277 73.14 360.306 71.5184 360.608 69.9581C361.753 64.0441 365.981 60.332 370.213 56.5784C373.772 53.4223 377.443 50.3319 379.612 45.9112C380.457 44.1887 380.344 42.4968 380.298 40.6415C380.189 36.2349 377.772 33.1515 374.755 30.6076C371.659 27.9982 368.145 25.8695 364.731 23.6581C360.465 20.8943 356.835 17.5969 354.519 12.9649C353.132 10.192 353.822 4.68487 356.112 2.56569C356.666 2.05283 357.545 1.65031 358.281 1.63789C359.126 1.62365 359.538 2.38203 359.338 3.28452C359.297 3.47138 359.203 3.75167 359.069 3.7972C357.252 4.41284 355.483 9.06665 356.726 10.8301C357.625 12.1053 357.949 13.8502 358.992 14.946C361.05 17.1093 363.38 19.0262 365.686 20.9389C369.545 24.1395 373.583 27.1313 377.335 30.4506C380.141 32.934 382.153 36.18 382.952 39.827C383.356 41.6695 382.995 43.8437 382.115 45.7319C380.328 49.5705 377.54 52.5334 374.339 55.2715C370.552 58.5111 366.364 61.4746 363.954 65.9983C362.873 68.0287 362.141 70.3548 361.79 72.6299C361.517 74.4014 362.092 76.3004 362.252 78.146C362.275 78.4063 362.087 78.6851 361.996 78.9553C361.784 78.7942 361.518 78.6714 361.373 78.4637C361.107 78.0814 360.913 77.6491 360.605 77.1537Z" fill="white"/>
<path fill-rule="evenodd" clip-rule="evenodd" d="M322.442 108.234V153.95L372.743 155.589H387.31V110.109H391.754L372.443 96.8214C372.443 96.8214 372.443 91.6486 372.027 87.7405C371.038 85.7073 368.053 85.3636 366.12 84.9966C364.186 84.6295 361.32 84.1786 361.32 85.7073C361.32 87.236 361.32 91.6486 361.32 91.6486L348.226 89.6355L322.442 108.234Z" fill="white"/>
<path fill-rule="evenodd" clip-rule="evenodd" d="M363.951 155.303L372.743 155.589L370.143 105.723L364.729 101.749L363.951 155.303Z" fill="#E7EAEE"/>
<path fill-rule="evenodd" clip-rule="evenodd" d="M330.03 185.998C330.405 185.141 331.259 184.142 331.056 183.457C330.637 182.047 329.943 180.452 328.852 179.554C324.056 175.607 318.953 172.197 312.66 170.918C309.329 170.241 306.315 170.638 303.397 172.226C301.231 173.405 301.05 175.205 302.917 176.691C303.924 177.492 304.933 178.292 305.963 179.063C310.343 182.345 315.198 184.661 320.501 185.972C322.506 186.468 324.574 186.816 326.632 186.945C327.688 187.011 328.784 186.446 330.03 185.998Z" fill="white"/>
<path fill-rule="evenodd" clip-rule="evenodd" d="M344.83 91.8673C340.295 91.7517 313.42 112.093 312.82 111.75C312.22 111.407 338.419 91.6179 342.221 88.9762C344.193 87.6056 346.239 87.6788 348.309 89.1407C351.194 91.1776 369.061 102.529 371.466 103.662C374.232 104.963 390.705 108.762 389.849 109.811C389.362 110.088 386.929 110.306 386.19 110.208C385.978 110.18 385.552 110.371 385.529 110.512C384.787 114.925 386.031 150.607 386.203 152.403C386.235 152.737 386.575 153.133 386.882 153.332C388.133 154.144 389.512 154.053 390.942 154.108L391.181 154.119C393.7 154.25 395.98 153.722 398.109 152.618C400.888 151.178 403.544 149.499 406.238 147.897C409.071 146.212 411.87 144.468 414.713 142.799C418.646 140.492 422.935 138.966 427.194 137.431C429.776 136.501 432.518 135.991 435.215 135.416C437.551 134.919 439.923 134.595 442.279 134.197L442.335 134.192L444.644 134.249C444.308 133.548 444.003 132.831 443.631 132.15C442.337 129.781 440.959 127.456 439.729 125.055C438.28 122.227 437.06 119.278 435.549 116.485C432.155 110.209 428.672 103.981 425.17 97.7644C421.841 91.8567 418.445 85.9869 415.069 80.1057C414.626 79.3327 414.115 78.5986 413.663 77.8297C413.549 77.6338 413.544 77.3733 413.488 77.1424C413.686 77.2919 413.936 77.4041 414.075 77.5964C415.75 79.923 417.497 82.2044 419.056 84.6075C423.459 91.3969 427.868 98.1862 432.107 105.079C434.339 108.708 436.228 112.549 438.257 116.302C439.661 118.899 441.073 121.493 442.417 124.121C443.105 125.466 443.651 126.884 444.262 128.268L445.255 130.535C445.752 131.668 446.258 132.797 446.803 133.906C446.92 134.144 447.681 134.301 448.006 134.165C451.661 132.645 455.436 131.327 458.892 129.43C464.393 126.411 469.599 122.857 475.085 119.807C477.608 118.405 480.432 117.38 483.245 116.717C485.176 116.262 487.167 115.922 489.406 116.444C493.038 117.292 496.348 118.872 499.851 119.951C502.228 120.683 504.692 120.767 507.261 120.57C512.19 120.192 515.949 117.308 520.121 115.308C522.884 113.983 525.553 112.46 528.254 111.007C534.262 107.774 540.256 104.516 546.271 101.296C549.897 99.3543 553.551 97.4644 557.193 95.5515C557.561 95.3583 557.913 95.1192 558.302 94.9865L558.697 94.8512C559.048 94.7361 559.421 94.6415 559.546 94.7657L559.681 94.9024C560.312 95.566 560.645 96.2737 559.369 96.9125C556.535 98.3309 553.743 99.8327 550.945 101.322C547.312 103.257 543.695 105.225 540.06 107.158C536.565 109.016 533.05 110.834 529.555 112.693C525.874 114.65 522.213 116.644 518.533 118.604C516.195 119.849 513.956 121.524 511.458 122.156C509.186 122.73 506.893 123.827 504.258 123.004L503.984 122.912C500.742 121.745 497.221 121.373 493.923 120.331C491.298 119.502 488.635 118.935 485.965 119.147C482.886 119.392 479.752 119.887 476.818 120.824C472.097 122.332 468.106 125.258 464.179 128.241L463.024 129.116C459.679 131.636 456.252 134.042 452.117 135.209C451.051 135.509 449.995 135.853 448.956 136.236C448.877 136.265 437.266 136.611 424.751 140.949C412.87 145.067 400.05 153.188 400.083 153.27C400.953 155.453 457.147 151.542 458.484 151.661C460.134 151.807 461.788 151.904 463.442 151.999C464.056 152.035 464.676 151.975 465.29 152.011C466.888 152.106 468.483 152.241 470.081 152.335C470.695 152.372 471.315 152.312 471.929 152.347C473.583 152.442 475.234 152.576 476.888 152.672C477.502 152.707 478.122 152.647 478.736 152.683C480.334 152.778 481.93 152.911 483.527 153.008C484.085 153.042 484.649 152.986 485.207 153.018C486.862 153.114 488.515 153.241 490.17 153.337C490.727 153.369 491.289 153.322 491.846 153.354C493.556 153.453 495.264 153.582 496.973 153.68C497.532 153.712 498.095 153.658 498.653 153.69C500.307 153.787 501.96 153.915 503.614 154.012C504.172 154.045 504.734 153.994 505.292 154.026C507.002 154.125 508.71 154.254 510.42 154.352C510.978 154.384 511.539 154.357 512.099 154.357C513.519 154.357 514.939 154.322 516.357 154.373C517.042 154.397 517.717 154.63 518.403 154.684C520.166 154.824 521.932 154.924 523.698 155.025C524.2 155.054 524.707 155.005 525.209 155.034C526.919 155.134 528.627 155.261 530.337 155.361C530.713 155.383 531.092 155.375 531.47 155.369L531.848 155.365C533.212 155.365 534.58 155.294 535.938 155.381C538.667 155.554 541.39 155.848 544.119 156.027C546.553 156.188 548.993 156.255 551.429 156.376C553.475 156.477 555.519 156.606 557.565 156.708L560.489 156.857C561.951 156.93 563.413 156.997 564.876 157.036C567.613 157.108 570.353 157.098 573.091 157.145C573.251 157.147 573.536 157.322 573.546 157.437C573.621 158.257 573.641 159.082 573.678 159.906C573.243 159.849 572.809 159.761 572.372 159.739C569.917 159.617 567.457 159.56 565.005 159.383C562.945 159.233 560.899 158.858 558.839 158.751C556.678 158.639 554.507 158.745 552.341 158.711C551.881 158.703 551.431 158.448 550.966 158.399L547.967 158.073C546.634 157.931 545.299 157.805 543.962 157.743C541.577 157.63 539.181 157.755 536.792 157.698C535.896 157.677 535.008 157.396 534.109 157.307C533.397 157.237 532.672 157.306 531.956 157.265C531.175 157.22 530.399 157.116 529.62 157.047C527.061 156.82 524.506 156.503 521.943 156.399C519.165 156.286 516.377 156.414 513.596 156.354C512.477 156.33 511.363 156.082 510.245 155.946C509.496 155.855 508.746 155.764 507.993 155.705C506.397 155.581 504.8 155.468 503.202 155.371C502.644 155.337 502.081 155.391 501.523 155.361C499.701 155.261 497.882 155.098 496.059 155.048C495.143 155.022 494.219 155.265 493.302 155.248C491.798 155.221 490.297 155.06 488.793 154.998C487.813 154.957 486.827 155.036 485.848 154.981C484.119 154.884 482.396 154.697 480.667 154.604C479.616 154.547 478.558 154.616 477.504 154.59C476.713 154.57 475.922 154.438 475.132 154.452C474.636 154.461 474.143 154.649 473.648 154.756C473.928 154.994 474.204 155.236 474.488 155.468C477.542 157.965 480.572 160.491 483.659 162.945C487.145 165.717 490.703 168.399 494.192 171.167C497.238 173.583 500.227 176.069 503.25 178.514C504.251 179.324 505.279 180.102 506.296 180.893C506.916 181.375 506.833 181.631 506.171 181.889L506.073 181.926C503.834 182.735 501.66 183.752 499.381 184.414C497.357 185.002 495.223 185.203 493.146 185.615C491.305 185.981 489.488 186.474 487.638 186.774C486.467 186.963 485.253 186.876 484.062 186.96C482.967 187.037 481.87 187.134 480.785 187.299C479.142 187.548 477.519 187.939 475.871 188.127C474.466 188.288 473.036 188.221 471.619 188.305C470.412 188.377 469.202 188.475 468.006 188.644C466.252 188.891 464.518 189.291 462.759 189.478C461.24 189.639 459.695 189.539 458.169 189.656C456.544 189.781 454.932 190.068 453.308 190.207C451.148 190.393 448.981 190.49 446.82 190.659C446.245 190.704 445.684 190.942 445.11 190.973C442.543 191.113 439.973 191.191 437.406 191.331C436.553 191.378 435.709 191.591 434.856 191.648C432.757 191.788 430.656 191.936 428.553 191.983C422.253 192.123 415.951 192.263 409.649 192.307C407.009 192.326 404.36 191.945 401.726 192.042C399.427 192.126 397.193 192.054 394.908 191.723C392.785 191.415 390.577 191.763 388.419 191.624C386.656 191.51 384.916 191.077 383.158 190.833C381.066 190.542 378.964 190.321 376.873 190.018C376.608 189.979 376.146 189.531 376.184 189.431L376.532 188.546C377.642 185.747 378.864 183.016 380.844 180.654C383.284 177.743 386.182 175.446 389.444 173.579L389.891 173.327C391.089 172.663 392.272 171.958 393.518 171.399L395.39 170.554C396.849 169.899 398.32 169.272 399.838 168.811C402.281 168.069 404.831 167.684 407.33 167.123C408.744 166.805 410.138 166.382 411.562 166.12C413.675 165.73 415.812 165.475 417.928 165.1C419.517 164.818 421.1 164.482 422.666 164.092C424.742 163.575 426.817 163.037 428.863 162.411C433.138 161.103 437.329 159.588 440.963 156.868C441.154 156.725 441.378 156.627 441.587 156.509C441.316 156.352 441.061 156.141 440.769 156.054C440.512 155.977 440.214 156.038 439.934 156.038L436.462 156.041C435.883 156.041 435.304 156.04 434.726 156.036L406.653 155.864C397.295 155.807 387.938 155.756 378.58 155.72C374.762 155.705 370.944 156.025 367.126 156.013C361.908 155.998 356.69 155.826 351.472 155.697C347.878 155.608 344.285 155.424 340.69 155.388C338.89 155.37 337.086 155.698 335.285 155.679C331.242 155.638 327.201 155.491 323.159 155.361C320.517 155.275 317.876 155.065 315.233 155.054C313.152 155.045 311.07 155.331 308.988 155.341C307.299 155.349 305.608 155.07 303.92 155.088C303.568 155.091 302.842 156.011 302.935 156.218C304.056 158.716 302.685 160.715 301.477 162.519C299.094 166.079 295.676 168.336 291.527 169.577C289.135 170.293 286.814 171.25 284.484 172.167L283.609 172.508C279.126 174.242 275.54 176.942 274.221 181.827C273.554 184.298 273.151 186.752 273.527 189.429C274.355 195.333 277.255 200.044 281.093 204.312L281.376 204.623C283.47 206.914 285.51 209.281 287.812 211.351C292.508 215.574 297.246 219.768 302.189 223.695C307.021 227.534 312.015 231.197 317.152 234.615C321.581 237.561 326.282 240.106 330.919 242.727C333.902 244.413 336.949 245.999 340.042 247.472C342.639 248.71 345.358 249.69 347.999 250.84C350.333 251.858 352.589 253.066 354.958 253.988C358.232 255.264 361.56 256.413 364.903 257.502C367.921 258.484 370.971 259.387 374.043 260.185C376.672 260.868 379.361 261.317 382.008 261.933C385.426 262.73 388.816 263.643 392.241 264.405C394.84 264.983 397.467 265.44 400.094 265.881C402.464 266.28 404.846 266.613 407.229 266.92C409.298 267.187 411.372 267.417 413.451 267.589C415.454 267.755 417.47 267.782 419.473 267.949C421.532 268.12 423.58 268.427 425.64 268.59C426.615 268.668 427.606 268.517 428.59 268.523C430.781 268.534 432.973 268.545 435.162 268.621C436.518 268.668 437.869 268.914 439.224 268.93C443.031 268.974 446.84 268.945 450.648 268.945C452.516 268.945 454.388 269.032 456.249 268.922C458.291 268.8 460.366 268.127 462.345 268.368C464.757 268.661 467.013 268.307 469.336 267.964C470.396 267.807 471.506 268.022 472.58 267.921C475.676 267.63 478.759 267.195 481.858 266.95C484.549 266.737 487.259 266.759 489.953 266.57C491.344 266.473 492.714 266.101 494.104 265.933C495.489 265.765 496.892 265.742 498.277 265.572C499.738 265.394 501.2 265.18 502.637 264.87C505.491 264.253 508.352 263.644 511.165 262.868C513.224 262.299 515.208 261.465 517.231 260.763C517.356 260.719 517.601 260.75 517.654 260.834C517.724 260.943 517.724 261.202 517.641 261.287C516.428 262.529 515.265 263.836 513.934 264.938C513.534 265.268 512.908 265.363 512.303 265.427L511.771 265.48C510.041 265.67 508.286 265.678 506.571 265.949C504.831 266.223 503.142 266.821 501.402 267.098C499.637 267.379 497.837 267.431 496.054 267.605C495.183 267.691 494.313 267.806 493.447 267.941C491.362 268.265 489.287 268.666 487.195 268.93C484.886 269.221 482.561 269.377 480.246 269.623C478.896 269.766 477.557 270.017 476.206 270.136C473.941 270.334 471.668 270.451 469.402 270.634C468.771 270.685 468.154 270.892 467.523 270.954L465.022 271.199C463.355 271.362 461.686 271.514 460.015 271.614C458.322 271.715 456.616 271.597 454.918 271.641C451.66 271.726 448.402 271.95 445.144 271.945C441.419 271.939 437.692 271.798 433.97 271.616C431.127 271.478 428.295 271.125 425.452 270.981C423.403 270.878 421.339 271.047 419.291 270.934C417.621 270.842 415.968 270.478 414.3 270.299C412.801 270.138 411.292 270.08 409.789 269.947C408.862 269.866 407.931 269.773 407.016 269.606C405.916 269.404 404.833 269.106 403.738 268.871C402.74 268.657 401.74 268.448 400.734 268.278C398.896 267.968 397.057 267.66 395.211 267.407C393.713 267.202 392.191 267.155 390.705 266.895C389.46 266.678 388.251 266.25 387.025 265.921L381.206 264.359C380.236 264.1 379.265 263.843 378.294 263.589C375.594 262.884 372.852 262.321 370.191 261.495C366.262 260.277 362.389 258.88 358.492 257.561C355.446 256.529 352.366 255.583 349.361 254.443L348.051 253.943C345.867 253.101 343.692 252.209 341.656 251.085L334.73 247.277C328.959 244.099 323.211 240.879 317.627 237.4C311.728 233.724 306.247 229.371 300.646 225.229C294.457 220.654 289.049 215.198 283.757 209.652L282.945 208.796C279.176 204.784 275.658 200.539 273.306 195.489L273.058 194.945C272.212 193.04 271.075 191.035 271.026 189.052C270.917 184.613 271.742 180.34 275.063 176.864C277.696 174.109 280.886 172.294 284.159 170.583L286.301 169.473C290.137 167.483 294.008 165.547 297.741 163.376C299.066 162.605 300.225 161.346 301.105 160.066C302.068 158.664 301.235 156.784 299.538 156.41C296.622 155.766 293.674 155.183 290.709 154.873C286.618 154.444 282.499 154.278 278.389 154.047C278.032 154.027 277.474 154.265 277.316 154.552C275.128 158.523 271.7 160.99 267.524 162.385C264.288 163.467 260.92 164.149 257.649 165.132C255.202 165.868 252.858 166.962 250.392 167.606C247.087 168.469 244.204 170.158 241.653 172.229L240.924 172.83C237.786 175.462 234.982 178.459 234.198 182.826C233.613 186.081 233.777 189.162 234.75 192.412C236.162 197.125 239.068 200.692 242.264 204.148C243.86 205.873 245.557 207.508 247.246 209.144C252.466 214.202 258.111 218.725 264.018 222.971C270.981 227.975 278.332 232.25 285.943 236.171L287.736 237.088C292.125 239.321 296.539 241.55 300.388 244.733C303.476 247.285 306.281 250.089 308.129 253.643L308.737 254.817C309.7 256.703 310.608 258.708 310.663 260.667L310.693 261.798C310.733 263.578 310.702 265.442 310.154 267.32C308.239 273.871 303.978 278.668 299.21 283.083C294.324 287.608 288.865 291.418 283.021 294.652C280.64 295.969 278.358 297.481 275.916 298.668C273.579 299.804 271.082 300.606 268.676 301.605C265.92 302.749 263.238 304.096 260.43 305.089C256.449 306.497 252.379 307.652 248.354 308.937C245.783 309.759 243.246 310.697 240.654 311.446C237.475 312.363 234.246 313.107 231.055 313.984C228.966 314.558 226.924 315.309 224.828 315.849C222.2 316.526 219.53 317.039 216.892 317.679C214.352 318.295 211.844 319.047 209.296 319.623C206.073 320.351 202.827 320.981 199.584 321.619C196.694 322.188 193.797 322.724 190.898 323.25C188.323 323.719 185.742 324.153 183.164 324.607C182.469 324.729 181.774 324.978 181.088 324.951C180.795 324.94 180.549 324.342 180.236 324.061C179.793 323.665 179.308 323.316 178.842 322.947C179.487 322.868 180.141 322.833 180.776 322.702C182.888 322.266 184.987 321.758 187.104 321.348C189.587 320.867 192.094 320.509 194.571 320.006C196.364 319.641 198.116 319.074 199.906 318.691C202.25 318.19 204.627 317.839 206.965 317.315C208.675 316.932 210.336 316.339 212.037 315.909C213.28 315.595 214.569 315.456 215.808 315.129C217.873 314.585 219.902 313.903 221.969 313.372C224.038 312.841 226.151 312.479 228.218 311.942C230.384 311.379 232.506 310.648 234.671 310.077C237.153 309.422 239.677 308.92 242.152 308.239C243.612 307.837 244.992 307.152 246.443 306.709C248.935 305.947 251.49 305.378 253.954 304.54C257.533 303.324 261.06 301.954 264.6 300.624L267.008 299.72C268.612 299.114 270.212 298.497 271.792 297.833C279.513 294.588 286.835 290.635 293.342 285.308L294.886 284.042C296.943 282.349 298.978 280.624 300.861 278.752C303.58 276.047 305.937 272.975 307.264 269.329C308.041 267.192 308.723 264.898 308.781 262.656C308.836 260.561 308.233 258.462 307.417 256.355C306.239 253.316 304.493 250.839 302.075 248.972C298.792 246.436 295.234 244.231 291.673 242.085C283.706 237.284 275.485 232.883 267.715 227.788C262.49 224.361 257.716 220.231 252.869 216.245L251.959 215.499C248.779 212.904 245.644 210.214 242.771 207.29C238.801 203.249 235.037 199.043 232.871 193.602C231.799 190.908 231.449 188.302 231.567 185.468C231.829 179.2 235.392 174.969 239.835 171.108C244.063 167.435 249.054 165.386 254.284 163.783C257.51 162.795 260.797 162.014 264.035 161.066C266.829 160.248 269.627 159.418 272.348 158.393C273.191 158.075 274.133 157.225 274.427 156.403C275.039 154.689 274.08 153.862 272.221 153.856C270.688 153.851 269.159 153.488 267.622 153.36C265.729 153.203 263.824 153.19 261.936 152.994C260.227 152.816 258.542 152.395 256.832 152.229C255.095 152.06 253.34 152.081 251.594 151.995C251.288 151.98 250.991 151.8 250.683 151.776C248.634 151.616 246.578 151.526 244.534 151.319C242.708 151.134 240.9 150.772 239.074 150.594C237.398 150.43 235.708 150.41 234.024 150.323C233.809 150.312 233.595 150.278 233.38 150.258C231.241 150.056 229.097 149.894 226.964 149.641C225.147 149.425 223.351 149.032 221.532 148.85C219.905 148.687 218.259 148.711 216.622 148.64C216.36 148.629 216.101 148.535 215.838 148.513C213.69 148.328 211.538 148.182 209.394 147.963C207.67 147.787 205.96 147.481 204.236 147.313C202.513 147.145 200.779 147.093 199.053 146.953C198.645 146.92 198.254 146.669 197.847 146.641C195.84 146.502 193.824 146.475 191.825 146.271C190.064 146.092 188.328 145.653 186.567 145.475C184.938 145.31 183.289 145.357 181.651 145.271C181.301 145.252 180.964 144.984 180.613 144.961C178.55 144.823 176.484 144.738 174.422 144.604C173.8 144.564 173.187 144.397 172.566 144.358C172.437 144.35 172.289 144.65 172.149 144.809L172.446 144.906C172.495 144.922 172.545 144.936 172.596 144.947C174.326 145.326 176.071 145.647 177.784 146.092C179.818 146.621 181.857 147.163 183.837 147.861C190.832 150.327 197.425 153.562 202.161 159.481C203.953 161.72 205.108 164.501 206.355 167.13C207.009 168.507 207.496 170.071 207.594 171.581C207.747 173.939 207.512 176.322 207.427 178.694C207.373 180.211 207.373 181.736 207.2 183.24C207.032 184.695 206.69 186.131 206.393 187.569L205.576 191.533C205.166 193.514 204.747 195.493 204.292 197.464C203.934 199.014 203.313 200.502 202.918 202.045C202.514 203.623 202.289 205.245 201.899 206.827C201.449 208.654 200.881 210.452 200.406 212.273C199.885 214.271 199.457 216.294 198.904 218.282L198.578 219.447C198.246 220.612 197.892 221.772 197.447 222.892L197.218 223.448C196.9 224.186 197.021 224.217 197.533 224.251L197.698 224.262C200.751 224.48 203.826 224.572 206.846 225.024C209.089 225.36 211.262 226.171 213.462 226.784C215.219 227.274 216.971 227.783 218.725 228.286C218.874 228.329 219.016 228.394 219.162 228.449C219.02 228.506 218.879 228.612 218.737 228.613C217.354 228.626 215.959 228.741 214.592 228.594C212.35 228.353 210.102 228.045 207.902 227.562C206.325 227.217 204.841 226.467 203.276 226.045C202.528 225.844 201.677 225.891 200.894 225.992L199.787 226.133C198.493 226.3 197.199 226.489 195.955 226.84C193.909 227.417 192.914 229.133 192.006 230.841L191.706 231.408C189.115 236.275 186.623 241.195 184.061 246.077C181.183 251.561 178.268 257.026 175.373 262.502L175.14 262.957C174.11 265.019 173.306 267.255 171.097 268.436C170.631 268.686 169.965 268.561 169.391 268.609C169.445 268.177 169.373 267.675 169.571 267.325C171.678 263.6 173.834 259.904 175.966 256.193C177.914 252.801 179.931 249.445 181.769 245.994C184.575 240.724 187.375 235.445 189.946 230.059C191.923 225.92 193.584 221.627 195.307 217.371L196.391 214.703C197.653 211.588 198.896 208.464 199.969 205.284C201.207 201.616 202.115 197.835 203.111 194.088C203.704 191.859 204.378 189.625 204.673 187.348L204.871 185.819C205.297 182.501 205.686 179.16 205.624 175.839C205.57 172.943 204.992 169.917 203.964 167.208C201.749 161.367 197.65 156.928 192.312 153.7C188.797 151.574 185.124 149.805 181.046 148.935C178.765 148.449 176.582 147.508 174.303 147.01C172.384 146.592 170.392 146.359 168.428 146.331C165.657 146.291 162.883 146.548 160.109 146.618C158.056 146.671 155.996 146.551 153.947 146.658C152.724 146.722 151.516 147.077 150.302 147.301C148.479 147.637 146.632 147.876 144.839 148.329C141.113 149.27 137.328 150.081 133.724 151.381C124.458 154.722 115.767 159.269 107.691 164.902C102.219 168.718 97.1115 173.018 92.6004 177.955C87.7497 183.264 83.5815 189.07 80.7478 195.721C79.6464 198.306 78.7715 200.999 77.9633 203.694C77.3903 205.605 76.8609 207.587 76.7483 209.562C76.6068 212.041 76.9296 214.544 77.0156 217.038C77.0594 218.307 76.936 219.587 77.0486 220.847C77.1547 222.035 77.3816 223.231 77.7169 224.376C78.1921 226 78.7976 227.586 79.3785 229.177C82.5798 237.945 88.0591 244.766 96.5331 248.924C98.4517 249.865 100.528 250.555 102.603 251.084C104.002 251.44 105.267 251.037 106.103 249.489C109.394 243.39 113.712 238.139 119.572 234.335C122.546 232.405 125.678 230.714 128.767 228.965C131.342 227.507 134.154 226.754 137.059 226.246C138.842 225.933 140.568 225.165 142.353 225.019C144.372 224.855 146.429 225.16 148.469 225.259L148.973 225.261C152.082 225.372 155.199 225.668 158.298 225.542C161.121 225.428 163.846 224.893 166.581 223.739C170.525 222.074 172.521 219.249 173.528 215.432L174.157 212.944C174.527 211.472 174.877 209.996 175.101 208.502C175.344 206.88 175.012 205.174 175.231 203.545C175.537 201.269 175.976 198.989 176.623 196.788C177.112 195.122 177.933 193.557 178.614 191.946L178.835 191.406C180.23 187.888 182.635 185.044 185.26 182.473C188.364 179.432 191.905 176.906 196.13 175.515C197.785 174.971 199.387 174.268 201.035 173.698C201.283 173.612 201.646 173.853 201.956 173.944L201.592 174.184C201.531 174.224 201.469 174.262 201.407 174.299L200.293 174.947C194.546 178.306 188.893 181.803 184.464 186.909L184.022 187.422C182.331 189.394 180.738 191.447 180.092 194.109C179.652 195.925 178.649 197.623 178.346 199.449C177.946 201.867 177.997 204.359 177.823 206.816C177.786 207.335 177.571 207.84 177.504 208.359C177.246 210.368 177.307 212.471 176.714 214.372C175.448 218.431 173.332 222.053 169.479 224.22C167.396 225.391 165.205 226.547 162.916 227.126C160.87 227.644 158.658 227.574 156.502 227.59L156.041 227.595C151.878 227.657 147.714 227.58 143.55 227.621C138.133 227.675 132.795 228.462 127.884 230.763C122.155 233.447 117.051 237.051 113.04 242.11C110.432 245.4 108.069 248.792 106.813 252.813C106.287 254.498 104.884 254.163 104.022 254.009L103.134 253.846C101.057 253.451 98.9542 252.947 97.1 252.022C94.1265 250.539 91.2157 248.776 88.6375 246.689C84.1518 243.057 80.4524 238.631 78.2163 233.261C76.7676 229.781 75.5638 226.132 74.8327 222.443C74.326 219.887 74.7511 217.16 74.6618 214.504L74.6366 213.974C74.4754 211.38 74.9069 208.905 75.526 206.433L75.6442 205.97C76.4627 202.814 76.9639 199.536 78.1512 196.527C79.2449 193.755 80.899 191.198 82.4208 188.602L82.7447 188.045C85.8684 182.621 89.8563 177.855 94.3442 173.54C100.153 167.954 106.608 163.18 113.541 159.068L116.367 157.387C118.254 156.269 120.153 155.174 122.108 154.191C124.321 153.077 126.658 152.205 128.976 151.308L129.748 151.008C131.758 150.221 133.787 149.469 135.844 148.819C138.691 147.919 141.562 147.092 144.442 146.305C146.465 145.753 148.501 145.208 150.565 144.864C153.075 144.444 155.624 144.274 158.148 143.929C160.21 143.648 162.259 143.27 164.312 142.927C164.452 142.904 164.581 142.811 164.714 142.751C164.568 142.699 164.417 142.594 164.275 142.604C162.864 142.703 161.452 142.939 160.046 142.906C157.699 142.85 155.355 142.632 153.011 142.467C152.534 142.433 152.062 142.273 151.587 142.27C148.991 142.25 146.395 142.299 143.801 142.245C142.277 142.214 140.758 141.971 139.235 141.939C136.697 141.885 134.156 141.963 131.617 141.91C130.094 141.877 128.575 141.636 127.051 141.603C125.066 141.559 123.079 141.576 121.092 141.584L119.601 141.588C117.118 141.588 114.631 141.674 112.152 141.562C110.055 141.466 107.973 141.048 105.875 140.949C104.53 140.885 103.167 141.254 101.816 141.227C99.4068 141.18 97.0015 140.944 94.592 140.857C93.1645 140.805 91.7294 140.955 90.3027 140.896C87.9018 140.796 85.5045 140.607 83.1066 140.441C82.6282 140.408 82.1544 140.256 81.6779 140.253C78.7466 140.235 75.8144 140.28 72.8839 140.229C71.3606 140.202 69.8415 139.954 68.3181 139.923C65.7237 139.869 63.1275 139.908 60.5321 139.908L55.2292 139.908C54.3454 139.909 53.4616 139.912 52.5778 139.916C52.3283 139.917 52.0794 140.026 51.8302 140.085L52.294 140.319C52.3708 140.359 52.447 140.4 52.5219 140.443C57.8914 143.536 62.7636 147.268 66.9439 151.855C69.7416 154.925 72.2983 158.184 73.8288 162.103C74.5453 163.938 75.2548 165.799 75.6939 167.711C75.9598 168.869 75.5874 170.158 75.7074 171.368C75.866 172.966 75.5712 174.461 74.9978 175.908C73.2298 180.371 70.2272 183.759 66.1505 186.309C63.394 188.033 60.5063 189.384 57.3326 189.966C54.8545 190.421 52.3213 190.661 49.8023 190.782C47.5547 190.89 45.2792 190.839 43.0417 190.608C41.1302 190.411 39.2633 189.814 37.3617 189.478C35.3271 189.119 33.2675 188.902 31.233 188.542C29.9299 188.312 28.6628 187.881 27.3615 187.636C24.6284 187.122 21.8751 186.713 19.1467 186.177C17.8072 185.914 16.5091 185.445 15.1836 185.103L14.5113 184.929C14.0614 184.814 13.6084 184.71 13.1533 184.655L12.8117 184.623C11.7037 184.554 11.046 183.605 11.5155 182.548C11.5379 182.498 11.8415 182.545 12.0034 182.588C13.3829 182.952 14.7568 183.338 16.1383 183.694L19.5086 184.563C20.6328 184.85 21.7583 185.131 22.8874 185.397C25.6842 186.056 28.4851 186.704 31.301 187.274C32.9939 187.617 34.7019 187.894 36.4128 188.14L38.7812 188.473C40.348 188.691 41.9196 188.893 43.4924 188.932C45.6453 188.985 47.8044 188.712 49.9628 188.643C51.6237 188.59 53.293 188.714 54.9483 188.604C56.0608 188.53 57.2052 188.32 58.2478 187.934C60.7461 187.009 63.2308 186.027 65.6505 184.915C68.5968 183.561 70.7632 181.168 72.8047 178.772C73.5208 177.931 73.5398 176.381 73.5655 175.149C73.572 174.84 72.4055 174.373 71.7226 174.206C68.7435 173.478 65.7228 172.913 62.7585 172.132C60.4034 171.511 58.12 170.624 55.7827 169.929C54.0543 169.416 52.2781 169.063 50.5452 168.563C47.9416 167.812 46.3938 165.615 46.5961 163.083C46.599 163.047 46.4817 162.995 46.4884 162.966C46.8801 161.264 46.0915 160.861 44.0199 161.265C42.1794 161.624 40.2634 161.585 38.3839 161.758C37.4072 161.847 36.4258 161.957 35.467 162.156C33.1517 162.637 30.8654 163.48 28.5357 163.61C26.033 163.75 23.4959 163.162 21.4702 161.452C19.3778 159.686 17.3586 157.832 15.3259 155.996C13.8115 154.628 12.324 153.23 10.8313 151.838C10.5988 151.621 10.4024 151.366 10.1893 151.128C10.6045 151.12 11.1561 150.934 11.413 151.132C13.1558 152.472 15.0354 153.714 16.4903 155.33L17.5657 156.526C19.3668 158.508 21.2553 160.366 23.8864 161.106C25.9746 161.693 28.2717 161.761 30.4636 161.692C32.5381 161.626 34.6145 161.158 36.6572 160.715C37.945 160.436 39.2298 160.048 40.4518 159.547L40.907 159.354C43.2404 158.328 45.8952 158.506 47.7148 160.257L48.3358 160.887C48.9382 161.509 49.5342 162.244 49.3475 163.274L49.3114 163.44C49.2433 163.706 49.275 164.022 49.1415 164.243L48.8053 164.808C48.2423 165.789 48.3606 165.934 49.6099 166.326L50.019 166.453C52.6057 167.245 55.1779 168.093 57.7908 168.788C60.6489 169.547 63.5624 170.098 66.4213 170.855C68.4418 171.39 70.4152 172.105 72.4026 172.762C73.2218 173.032 74.2542 172.075 74.3208 170.836C74.3859 169.625 74.5589 168.353 74.2814 167.206C73.8869 165.575 73.3528 163.892 72.4785 162.478C68.7614 156.468 64.4546 150.886 59.1836 146.155C55.916 143.223 46.0756 137.79 38.3576 136.169C30.6397 134.547 18.5038 135.462 16.1383 136.839C13.7729 138.215 10.2209 139.801 8.64306 140.22C8.50683 140.256 8.19356 140.086 8.15364 139.954C7.70372 138.465 8.80188 137.766 9.79838 137.251C12.1502 136.034 14.5599 134.918 16.9944 133.874C20.2033 132.499 23.6967 132.321 27.0893 131.937C28.9324 131.729 30.8916 132.446 32.785 132.814C34.6545 133.178 36.5315 133.544 38.3576 134.073C39.3424 134.358 40.2308 134.981 41.1569 135.462C44.8356 137.375 48.3805 137.291 51.9211 134.996C53.0404 134.27 54.4945 134.084 55.7068 133.475C61.0102 130.81 66.2858 128.089 71.5625 125.371C76.7027 122.723 81.8314 120.053 86.9663 117.395C87.6192 117.057 88.2943 116.757 88.9211 116.377C89.0245 116.315 89.0305 115.8 88.9135 115.708C86.47 113.787 84.0296 111.86 81.5337 110.009C76.528 106.295 71.4155 102.721 66.4937 98.9C63.8081 96.8153 61.2768 94.4828 58.9313 92.0189C53.7664 86.5932 48.8631 80.9173 43.6647 75.5251C39.1092 70.7998 34.3418 66.2737 29.5334 61.8045C29.0076 61.3158 27.198 61.3668 26.6574 61.8787C24.0534 64.3448 21.6787 67.0531 19.228 69.6806C18.9709 69.9562 18.7702 70.2858 18.5038 70.5507C18.3491 70.7045 18.1157 70.7791 17.9176 70.8893C17.9055 70.6703 17.8468 70.4419 17.8887 70.2338C18.2113 68.6341 18.2429 66.8739 18.977 65.4879C19.7061 64.1114 25.0546 58.5348 27.7591 58.5348C30.4636 58.5348 54.556 83.7346 54.556 83.7346C58.2125 87.7132 61.9004 91.6627 65.7519 95.4435C71.7035 101.286 78.0676 106.7 84.9882 111.407C88.2324 113.613 91.8586 114.668 95.7462 114.311C97.6024 114.141 99.3762 113.195 101.235 112.893C103.02 112.603 104.867 112.703 106.685 112.609C108.988 112.491 111.152 113.123 113.359 113.66C116.023 114.308 118.555 115.228 121.037 116.373C127.314 119.267 132.682 123.557 138.341 127.416C142.852 130.493 147.443 133.481 152.191 136.169C154.83 137.662 157.806 138.653 160.735 139.513C163.231 140.246 165.879 140.458 168.455 140.922C169.247 141.064 170.02 141.307 170.812 141.448L173.488 141.928C174.827 142.165 176.167 142.392 177.512 142.584C180.223 142.972 182.946 143.279 185.667 143.601C188.608 143.95 191.551 144.281 194.495 144.611C196.567 144.843 198.642 145.058 200.716 145.285C202.734 145.506 204.747 145.801 206.77 145.94C209.409 146.121 212.06 146.126 214.698 146.313C216.257 146.424 217.795 146.805 219.353 146.948C221.299 147.128 223.257 147.174 225.207 147.313C225.615 147.342 226.007 147.599 226.414 147.624C228.588 147.763 230.775 147.772 232.939 147.999C234.907 148.205 236.84 148.764 238.809 148.927C240.847 149.095 242.91 148.957 244.962 148.996C245.365 149.003 245.761 149.283 246.168 149.304C248.735 149.441 251.304 149.529 253.871 149.666C254.278 149.687 254.669 149.933 255.078 149.98C257.242 150.224 259.405 150.528 261.578 150.636C263.851 150.748 266.134 150.641 268.412 150.676C268.927 150.684 269.435 150.936 269.954 150.988C272.399 151.232 274.843 151.543 277.294 151.643C280.072 151.756 282.859 151.646 285.641 151.684C286.38 151.695 287.113 151.936 287.855 151.998L291.394 152.29C293.164 152.434 294.935 152.566 296.707 152.659C298.57 152.757 300.442 152.638 302.308 152.686C305.474 152.766 308.638 152.927 311.804 153.004C313.838 153.053 315.877 153.067 317.907 152.964C318.277 152.946 318.904 152.297 318.914 151.926C318.946 150.744 319.734 113.066 319.656 111.934C319.642 111.727 319.837 111.506 319.935 111.292C320.061 111.479 320.28 111.659 320.297 111.855C320.435 113.469 321.209 149.729 321.213 152.659C321.213 152.777 321.837 153.009 322.162 152.994C323.574 152.927 366.403 153.194 368.41 153.059C369.207 153.005 369.818 152.771 369.726 151.716C369.555 149.752 369.703 105.723 369.703 105.723C369.703 105.723 350.779 92.0189 344.83 91.8673ZM454.674 154.426C452.589 154.694 450.595 155.773 448.515 155.949C445.833 156.176 443.674 157.555 441.36 158.549C437.681 160.129 434.173 162.106 430.508 163.723C428.903 164.431 427.081 164.638 425.371 165.122C424.609 165.337 422.709 165.783 422.609 165.799L420.349 166.174C419.22 166.364 418.093 166.565 416.974 166.802C414.183 167.395 411.404 168.041 408.63 168.706C406.338 169.256 404.064 169.885 401.772 170.433L400.395 170.75C396.248 171.665 392.38 173.267 388.837 175.553C384.79 178.165 381.24 181.322 379.101 185.788C378.305 187.45 378.728 188.417 380.386 188.635C380.88 188.699 381.37 188.787 381.863 188.857C382.94 189.009 384.013 189.203 385.096 189.294C386.876 189.445 388.663 189.523 390.446 189.643C391.969 189.746 393.488 189.916 395.011 189.964C396.821 190.02 398.634 189.943 400.444 189.984C404.318 190.073 408.191 190.257 412.065 190.29C414.089 190.308 416.114 190.025 418.141 189.992C421.463 189.938 424.788 190.021 428.11 189.964C429.908 189.934 431.706 189.868 433.504 189.793L437.099 189.637C439.145 189.548 441.192 189.459 443.233 189.293C445.347 189.122 447.456 188.868 449.564 188.624C450.028 188.571 450.475 188.336 450.938 188.309C453.28 188.171 455.626 188.086 457.968 187.948C458.375 187.925 458.77 187.651 459.174 187.64C460.777 187.597 462.394 187.739 463.981 187.571C465.616 187.399 467.208 186.82 468.843 186.647C471.134 186.406 473.452 186.426 475.75 186.239C477.274 186.115 478.784 185.82 480.302 185.61C481.382 185.461 482.473 185.379 483.541 185.171C484.668 184.951 485.759 184.534 486.89 184.352C489.46 183.938 492.044 183.611 494.624 183.258C496.383 183.018 498.154 182.859 499.898 182.543C501.084 182.328 502.237 181.919 503.39 181.55C503.478 181.522 503.555 181.009 503.458 180.922C502.323 179.91 501.173 178.911 499.99 177.956C495.42 174.263 490.827 170.598 486.261 166.901C482.566 163.909 479.021 160.712 475.173 157.934C472.296 155.857 469.817 156.239 468.376 158.422L467.984 159.009C466.54 161.147 464.985 163.107 462.677 164.4C462.462 164.52 462.33 164.786 462.16 164.984C462.432 165.138 462.724 165.451 462.972 165.419C464.073 165.28 465.155 164.947 466.255 164.88C466.815 164.846 467.414 165.199 467.955 165.459C468.02 165.49 467.934 166.125 467.752 166.339C464.175 170.546 459.469 172.964 454.322 174.604C452.191 175.283 449.964 175.653 447.804 176.251C446.121 176.718 444.5 177.413 442.808 177.837C440.896 178.315 438.94 178.624 436.996 178.967C435.682 179.199 434.349 179.329 433.037 179.569C431.344 179.879 429.668 180.285 427.974 180.592C426.91 180.784 425.83 180.915 424.751 180.996C422.902 181.135 421.049 181.275 419.196 181.303C416.759 181.339 414.32 181.276 411.883 181.232C411.512 181.225 411.143 181.083 410.773 181.004C411.273 180.859 411.764 180.654 412.274 180.582C413.099 180.465 413.938 180.454 414.767 180.365C415.949 180.239 417.125 180.057 418.308 179.944C419.604 179.821 420.916 179.824 422.201 179.637C424.162 179.352 426.1 178.906 428.06 178.613C429.778 178.357 431.525 178.289 433.237 178.005C434.686 177.764 436.092 177.277 437.537 177C439.292 176.665 441.092 176.537 442.829 176.134C444.827 175.67 446.802 175.071 448.745 174.408C451.032 173.628 453.272 172.712 455.536 171.863C458.033 170.927 460.543 170.024 463.025 169.05C463.556 168.841 463.991 168.385 464.47 168.043C463.772 167.737 463.085 167.397 462.366 167.151C462.182 167.088 461.903 167.353 461.655 167.415C460.654 167.666 459.658 168.023 458.642 168.097C457.742 168.163 456.712 167.968 456.77 166.691C456.793 166.185 457.016 165.359 457.346 165.244C461.909 163.647 465.091 160.421 467.748 156.573C467.918 156.326 467.738 155.467 467.566 155.416C466.496 155.099 465.39 154.827 464.28 154.739C462.848 154.626 461.399 154.74 459.96 154.683C458.193 154.614 456.396 154.204 454.674 154.426ZM371.466 105.723L371.548 106.968C371.72 109.751 372.425 147.861 372.63 150.157C372.669 150.592 373.376 151.412 373.769 151.467C375.11 151.658 383.822 153.68 383.822 150.157C383.71 144.943 383.953 109.403 383.775 109.355C382.107 108.906 371.855 105.805 371.466 105.723ZM100.182 114.978C96.4941 116.034 92.8345 117.28 89.309 118.787C85.2633 120.517 81.3467 122.56 77.4282 124.572C72.8521 126.923 68.3383 129.394 63.7892 131.797C62.4585 132.5 61.1149 133.183 59.75 133.816C57.5276 134.847 55.2812 135.826 53.0502 136.839C52.8451 136.932 52.6777 137.108 52.4928 137.246C52.7024 137.349 52.9038 137.518 53.1229 137.546L55.0437 137.79C56.3246 137.952 57.6066 138.103 58.8924 138.202C59.6136 138.258 60.3596 137.923 61.0904 137.94C63.1961 137.988 65.3003 138.117 67.4041 138.232C68.1609 138.274 68.9143 138.373 69.6702 138.434C71.6215 138.593 73.5709 138.796 75.5255 138.887C77.9266 138.998 80.3322 139.012 82.9039 139.236C85.0415 139.124 87.1832 138.872 89.3158 138.935C92.0268 139.014 94.7271 139.428 97.4385 139.541C98.9527 139.603 100.485 139.21 102 139.262C106.278 139.411 110.549 139.802 114.826 139.872C118.528 139.933 122.235 139.612 125.941 139.587C133.555 139.537 141.171 139.552 148.785 139.587C150.531 139.595 152.276 139.807 154.022 139.893C154.225 139.902 154.439 139.7 154.647 139.595C154.51 139.476 154.387 139.333 154.234 139.239C149.452 136.323 144.663 133.418 139.883 130.497C135.82 128.015 131.834 125.395 127.709 123.025L126.329 122.244C121.936 119.804 118.091 116.285 112.979 115.214C110.98 114.796 108.976 114.14 106.967 114.109C104.704 114.075 102.356 114.356 100.182 114.978Z" fill="#00160A"/>
<path fill-rule="evenodd" clip-rule="evenodd" d="M136.585 94.2914C139.164 90.7045 141.517 87.0889 144.186 83.7245C148.461 78.3367 152.909 73.0846 157.356 67.8368C159.523 65.2794 161.817 62.825 164.121 60.3887C167.332 56.9947 170.444 53.4829 173.891 50.3429C179.447 45.2811 185.216 40.45 190.944 35.5793C197.426 30.0681 204.548 25.4479 211.842 21.1226C215.807 18.7714 220.009 16.8041 224.172 14.8068C227.163 13.3721 230.255 12.1427 233.326 10.8799C236.342 9.6395 239.354 8.37462 242.432 7.30459C244.858 6.46122 247.364 5.82495 249.866 5.22955C252.515 4.59917 255.196 4.09689 257.874 3.59312C260.015 3.19022 262.165 2.82852 264.323 2.52308C266.383 2.23132 268.453 1.99077 270.526 1.81098C272.51 1.63894 274.504 1.47095 276.492 1.48564C279.638 1.50889 282.784 1.77885 285.929 1.767C288.212 1.7584 290.453 1.75464 292.75 2.01209C295.036 2.26842 297.339 2.53839 299.636 2.73205C301.948 2.9271 304.189 3.27642 306.451 3.76804C308.513 4.21631 310.707 4.0743 312.759 4.55295C315.691 5.23709 318.538 6.28185 321.438 7.11306C324.447 7.97555 327.514 8.65467 330.485 9.62831C332.543 10.3024 334.459 11.3962 336.479 12.1997C338.628 13.0548 340.895 13.6401 342.985 14.6137C345.518 15.7944 347.928 17.2451 350.378 18.6023C356.795 22.1568 363.002 26.0354 368.762 30.5967C370.582 32.0381 372.37 33.5202 374.166 34.9921C374.424 35.2041 374.731 35.4239 374.862 35.7102C375.093 36.2127 375.205 36.7694 375.368 37.3035C374.939 37.0628 374.457 36.8847 374.089 36.572C368.533 31.8475 362.399 27.9451 356.213 24.1369C353.344 22.3712 350.296 20.8933 347.301 19.3382C345.711 18.5125 344.094 17.7217 342.433 17.0535C338.808 15.5949 335.152 14.2118 331.499 12.8227C328.837 11.8107 326.186 10.758 323.483 9.87005C320.483 8.88468 317.449 7.98157 314.39 7.20001C311.72 6.51789 309.009 5.96817 306.289 5.52572C304.568 5.24594 302.786 5.36411 301.056 5.12902C299.644 4.93724 298.283 4.33064 296.871 4.19031C295.17 4.02114 293.438 4.1756 291.72 4.13484C291.204 4.12259 290.693 3.83482 290.179 3.82935C287.248 3.79817 284.315 3.84756 281.385 3.79896C280.086 3.77741 278.787 3.48086 277.492 3.50678C275.985 3.53695 274.485 3.82213 272.976 3.926C271.29 4.04209 269.596 4.03596 267.911 4.1645C266.668 4.25938 265.426 4.44063 264.198 4.66283C262.423 4.98393 260.668 5.41197 258.892 5.72773C257.551 5.96635 256.176 6.02889 254.842 6.29977C253.202 6.63277 251.579 7.0611 249.969 7.52075C247.986 8.08684 246.03 8.74281 244.053 9.33164C242.339 9.8424 240.559 10.1759 238.902 10.8279C233.573 12.9251 228.214 14.9695 223.004 17.3378C215.434 20.7795 208.26 24.9826 201.424 29.7154C197.128 32.6896 192.978 35.879 188.82 39.0482C180.492 45.3973 173.14 52.8198 165.905 60.34C162.209 64.1817 158.828 68.3365 155.433 72.455C151.979 76.6445 148.604 80.9051 145.337 85.2416C142.076 89.5696 138.91 93.9747 135.854 98.4495C133.157 102.398 130.673 106.49 128.079 110.509C127.962 110.692 127.694 110.777 127.496 110.908C127.53 110.717 127.519 110.502 127.605 110.338C129.339 107.023 131.037 103.688 132.843 100.412C133.978 98.3533 135.276 96.3846 136.585 94.2914Z" fill="#00160A"/>
<path fill-rule="evenodd" clip-rule="evenodd" d="M460.438 51.8671C458.326 52.7632 456.415 53.7422 454.43 54.5379C450.422 56.1448 446.452 57.8298 442.26 58.9827C439.584 59.7187 436.959 60.4217 434.174 60.6565C432.221 60.8211 430.317 61.7938 428.379 61.8378C425.691 61.8988 423.482 62.9616 421.376 64.3301C419.415 65.6046 417.648 67.1735 415.729 68.518C415.039 69.0013 414.181 69.3723 413.354 69.503C412.126 69.697 410.856 69.6205 409.605 69.6794C407.411 69.7825 405.217 69.9866 403.024 69.9888C400.828 69.991 398.632 69.7962 396.437 69.6917C396.103 69.6758 395.764 69.6452 395.435 69.6828C393.584 69.8945 391.707 69.9963 389.892 70.3814C387.616 70.8642 385.385 71.5621 383.147 72.2093C381.132 72.7917 379.044 73.2301 377.149 74.0885C373.561 75.7146 370.089 77.5979 366.565 79.3676C366.309 79.4961 366.026 79.5699 365.756 79.6691C365.901 79.4711 366.019 79.244 366.195 79.0796C367.883 77.5074 369.386 75.6208 371.323 74.4616C373.885 72.9281 376.734 71.8058 379.566 70.8102C381.798 70.0255 384.185 69.6691 386.515 69.1795C388.586 68.7445 390.66 68.2939 392.756 68.021C395.264 67.6942 397.793 67.435 400.319 67.36C402.396 67.2984 404.499 67.7728 406.559 67.6077C409.584 67.3652 412.61 66.8996 415.573 66.2465C416.676 66.0033 417.896 65.1714 418.551 64.2456C419.851 62.4075 421.662 61.2548 423.559 60.4823C425.288 59.7781 427.339 59.873 429.245 59.5922C431.019 59.3308 432.791 59.055 434.558 58.7548C436.072 58.4977 437.624 58.3413 439.076 57.8801C441.002 57.2683 442.831 56.3572 444.735 55.6659C445.739 55.3016 446.869 55.2625 447.844 54.8477C450.39 53.7649 452.865 52.5152 455.403 51.4099C457.5 50.4965 459.638 49.6762 461.771 48.8469C465.133 47.5399 468.462 46.1265 471.889 45.0187C473.938 44.3565 476.151 44.2124 478.282 43.795C479.792 43.4992 481.278 42.946 482.796 42.8525C484.529 42.7456 486.29 42.9793 488.032 43.1435C489.396 43.2721 490.749 43.5149 492.106 43.7177C492.8 43.8216 492.735 44.1713 492.233 44.4143C490.698 45.1571 489.158 45.677 487.348 45.5383C485.51 45.3974 483.633 45.6687 481.78 45.8284C479.683 46.0091 477.565 46.124 475.508 46.5312C473.507 46.9272 471.551 47.5921 469.616 48.2583C467.643 48.9374 465.717 49.7521 463.778 50.5269C462.713 50.9529 461.663 51.419 460.438 51.8671Z" fill="#00160A"/>
<path fill-rule="evenodd" clip-rule="evenodd" d="M461.53 245.675C462.366 247.182 463.53 248.547 463.744 250.047C463.932 251.357 464.483 252.971 463.185 254.33C461.857 255.719 460.793 257.357 459.589 258.867C457.333 261.699 454.256 262.717 450.766 262.911C448.037 263.062 445.318 263.378 442.59 263.558C440.158 263.719 437.72 263.796 435.285 263.903C432.626 264.02 429.967 264.195 427.308 264.217C425.564 264.231 423.813 263.87 422.075 263.935C418.584 264.067 415.451 263.124 413.239 260.457C411.207 258.008 410.387 255.242 411.137 251.74C412.516 245.295 416.3 240.623 420.937 236.432C422.365 235.142 424.095 234.134 425.808 233.225C428.006 232.059 430.239 230.615 432.613 230.211C435.868 229.659 439.061 228.841 442.624 229.467C448.32 230.47 452.469 233.338 455.844 237.676C457.827 240.225 459.586 242.947 461.53 245.675ZM461.614 248.783C458.624 243.609 455.627 238.382 450.783 234.71C448.78 233.192 446.307 232.074 443.875 231.411C441.643 230.803 439.253 230.981 436.814 231.418C433.83 231.951 430.951 232.6 428.204 233.819C424.293 235.556 420.991 238.173 418.278 241.428C414.325 246.171 411.096 251.17 413.524 257.867C414.436 260.382 417.645 262.374 420.345 261.939C421.974 261.676 423.685 261.877 425.358 261.935C426.773 261.983 428.192 262.261 429.597 262.194C432.028 262.079 434.445 261.669 436.876 261.579C439.912 261.467 442.956 261.552 445.997 261.552C447.08 261.552 448.189 261.705 449.238 261.518C451.071 261.192 452.975 260.901 454.657 260.16C458.806 258.33 463.325 254.651 461.614 248.783Z" fill="#00160A"/>
<path fill-rule="evenodd" clip-rule="evenodd" d="M203.792 255.924C205.419 253.961 207.144 252.201 208.458 250.174C210.123 247.606 210.267 244.69 209.906 241.64C209.589 238.972 210.594 236.57 212.417 234.497C214.457 232.177 217.149 230.946 219.878 229.79C222.331 228.75 224.801 229.555 227.066 230.432C228.103 230.834 228.958 232.118 229.544 233.194C231.141 236.128 231.956 239.375 233.056 242.511C233.923 244.979 233.209 246.946 232.069 248.657C230.961 250.317 229.187 251.638 227.48 252.768C225.368 254.166 223.11 255.438 220.754 256.35C218.232 257.327 215.526 257.837 212.893 258.521C211.859 258.789 210.813 259.039 209.756 259.179C208.968 259.284 208.153 259.17 207.352 259.206C204.831 259.32 202.313 259.5 199.792 259.575C197.805 259.633 195.815 259.575 193.826 259.567C191.704 259.558 189.581 259.499 187.461 259.549C185.324 259.601 183.19 259.764 181.054 259.869C180.608 259.891 180.157 259.846 179.712 259.882C179.435 259.904 179.165 260.018 178.892 260.091C179.117 259.794 179.283 259.336 179.577 259.226C181.365 258.564 183.187 258.006 185.139 258.191C185.194 258.197 185.251 258.196 185.307 258.191C187.653 258.003 189.999 257.798 192.347 257.632C193.391 257.558 194.44 257.551 195.487 257.535C196.626 257.517 197.767 257.504 198.906 257.526C199.729 257.542 200.632 257.855 201.354 257.608C202.22 257.312 202.93 256.561 203.792 255.924ZM212.277 239.038C212.257 240.251 212.269 241.465 212.211 242.675C212.127 244.397 212.377 246.261 211.798 247.807C210.599 251.01 208.642 253.833 206.168 256.256C205.796 256.62 205.555 257.117 205.253 257.553C205.846 257.654 206.441 257.844 207.032 257.833C207.734 257.819 208.447 257.685 209.132 257.51C211.223 256.977 213.372 256.578 215.373 255.802C219.382 254.248 223.351 252.571 227.252 250.762C229.334 249.796 230.821 248.087 230.891 245.642C230.933 244.193 230.687 242.735 230.461 241.277C230.072 238.763 228.921 236.686 227.906 234.489C227.171 232.895 225.732 231.894 224.223 231.747C222.446 231.574 220.51 231.916 218.795 232.488C215.69 233.524 213.451 235.638 212.277 239.038Z" fill="#00160A"/>
<path fill-rule="evenodd" clip-rule="evenodd" d="M362.568 78.8339C361.699 75.7957 363.33 73.5305 364.859 71.4009C368.253 66.6741 373.043 63.6643 378.251 61.2907C380.509 60.2611 382.792 59.2385 385.151 58.4869C387.985 57.5839 390.913 56.974 393.8 56.2344C394.203 56.131 394.598 55.9448 395.005 55.9124C396.101 55.8253 395.622 55.4054 395.208 55.0261C392.694 52.7239 390.173 50.4294 387.65 48.1359C386.513 47.1021 385.352 46.0939 384.237 45.0372C383.897 44.7147 383.588 44.3024 383.421 43.8707C383.261 43.4603 383.306 42.9709 383.26 42.5162C383.682 42.6754 384.205 42.7262 384.511 43.0103C388.314 46.541 392.082 50.109 395.87 53.6571C396.342 54.0992 397.155 54.9214 397.321 54.8137C397.969 54.3931 398.672 53.7486 398.893 53.0427C399.416 51.377 399.59 49.6044 400.06 47.9185C400.917 44.8467 403.303 43.1085 405.968 41.817C409.24 40.2314 412.599 38.8158 415.964 37.4323C420.198 35.6914 424.484 34.0766 428.733 32.3716C432.694 30.7824 436.561 28.9098 440.618 27.6322C442.602 27.0073 444.922 27.448 447.091 27.4216C447.17 27.4207 447.252 27.5811 447.333 27.6662C447.19 27.7804 447.065 27.9463 446.902 28.0012C442.56 29.4668 438.188 30.8495 433.877 32.4018C430.903 33.4728 428.026 34.8117 425.078 35.9581C423.846 36.4373 422.493 36.6158 421.277 37.1275C418.732 38.1991 416.258 39.4372 413.724 40.5374C411.86 41.3468 409.899 41.943 408.07 42.8194C405.593 44.0064 402.994 45.2044 402.18 48.1769C401.876 49.2839 402.304 50.6298 401.884 51.6566C401.299 53.0883 400.454 54.5698 399.323 55.5899C396.995 57.6905 394.018 58.5878 390.987 59.2754C389.142 59.6942 387.356 60.4045 385.5 60.7401C381.758 61.4168 378.321 62.885 375.023 64.6612C370.471 67.1133 366.883 70.6387 364.408 75.1946C363.737 76.4301 363.456 77.8767 362.98 79.2204C362.929 79.3645 362.765 79.4687 362.654 79.5914C362.653 79.3669 362.653 79.1424 362.568 78.8339Z" fill="#00160A"/>
<path fill-rule="evenodd" clip-rule="evenodd" d="M319.976 190.649C317.427 190.537 315.046 190.326 312.666 190.341C310.222 190.355 307.843 190.13 305.421 189.742C303.43 189.424 301.478 189.311 299.64 188.341C298.697 187.843 298.356 187.373 298.417 186.249C298.508 184.57 298.134 182.871 298.156 181.183C298.211 176.902 299.265 172.941 302.57 169.954C304.121 168.553 306.139 168.062 308.084 167.322C311.135 166.16 313.78 167.489 316.425 167.979C319.069 168.469 321.48 170.297 323.947 171.624C325.885 172.667 327.961 173.603 329.591 175.027C331.031 176.286 332.1 178.065 333.029 179.78C333.74 181.095 334.312 182.664 334.323 184.125C334.334 185.378 333.676 186.786 332.932 187.861C331.661 189.697 329.653 190.171 327.483 189.98C327.261 189.96 327.033 189.958 326.811 189.98C324.589 190.199 322.366 190.425 319.976 190.649ZM330.897 184.265C331.272 183.408 332.126 182.408 331.922 181.723C331.504 180.313 330.81 178.718 329.718 177.82C324.923 173.874 319.82 170.464 313.526 169.185C310.196 168.508 307.181 168.905 304.263 170.493C302.097 171.671 301.916 173.472 303.784 174.958C304.791 175.759 305.8 176.559 306.83 177.33C311.209 180.611 316.064 182.927 321.368 184.239C323.372 184.734 325.441 185.083 327.498 185.212C328.555 185.278 329.651 184.713 330.897 184.265ZM329.889 187.961C330.356 187.532 330.824 187.104 331.292 186.675C330.679 186.689 330.065 186.685 329.453 186.727C329.258 186.74 329.063 186.956 328.881 186.939C326.638 186.735 324.379 186.62 322.164 186.245C320.303 185.93 318.405 185.51 316.684 184.765C314.411 183.78 312.257 182.497 310.122 181.224C307.278 179.53 304.353 177.912 302.468 175.013C302.246 174.672 301.832 174.457 301.507 174.183C301.279 174.557 300.935 174.904 300.842 175.309C300.458 176.989 300.11 178.679 299.828 180.378C299.642 181.494 299.488 182.634 299.5 183.762C299.522 185.707 300.899 187.535 302.297 187.62C304.434 187.75 306.646 187.543 308.693 188.034C311.652 188.743 314.599 188.599 317.557 188.61C319.637 188.617 321.717 188.389 323.799 188.303C325.772 188.22 327.747 188.185 329.889 187.961Z" fill="#00160A"/>
<path fill-rule="evenodd" clip-rule="evenodd" d="M358.872 77.1536C358.682 76.2917 358.468 75.5104 358.493 74.7366C358.544 73.1399 358.572 71.5183 358.874 69.958C360.019 64.044 364.248 60.3319 368.48 56.5783C372.039 53.4222 375.71 50.3318 377.879 45.9111C378.724 44.1886 378.61 42.4967 378.564 40.6413C378.455 36.2348 376.039 33.1514 373.021 30.6075C369.926 27.9981 366.411 25.8694 362.998 23.658C358.731 20.8942 355.102 17.5968 352.786 12.9648C351.399 10.1919 352.089 4.68475 354.379 2.56557C354.933 2.05271 355.811 1.65018 356.548 1.63777C357.393 1.62353 357.804 2.38191 357.604 3.2844C357.563 3.47126 357.47 3.75155 357.336 3.79708C355.519 4.41272 353.75 9.06653 354.993 10.83C355.892 12.1052 356.216 13.8501 357.258 14.9459C359.317 17.1092 361.647 19.0261 363.953 20.9388C367.811 24.1394 371.85 27.1312 375.601 30.4505C378.408 32.9339 380.42 36.1799 381.219 39.8269C381.623 41.6694 381.261 43.8436 380.382 45.7318C378.595 49.5704 375.806 52.5333 372.606 55.2714C368.819 58.511 364.63 61.4745 362.221 65.9982C361.139 68.0286 360.408 70.3547 360.057 72.6298C359.783 74.4013 360.358 76.3003 360.519 78.1459C360.542 78.4063 360.353 78.685 360.262 78.9552C360.051 78.7941 359.784 78.6714 359.64 78.4636C359.374 78.0813 359.18 77.6491 358.872 77.1536Z" fill="#00160A"/>
<path fill-rule="evenodd" clip-rule="evenodd" d="M541.842 186.365C541.599 187.952 541.594 189.493 541.243 190.951C540.717 193.135 540.064 195.307 539.249 197.4C538.302 199.835 537.194 202.216 536.021 204.553C535.248 206.092 534.287 207.547 533.307 208.968C532.962 209.468 532.305 209.75 531.796 210.14C530.711 210.971 530.439 209.648 530.446 209.352C530.502 206.666 530.363 203.985 531.172 201.321C531.762 199.375 531.713 197.242 532.054 195.21C532.283 193.841 532.722 192.509 533.017 191.149C533.46 189.11 533.836 187.057 534.284 185.019C535.047 181.547 535.853 178.11 539.29 176.104C539.978 175.703 540.297 175.705 540.99 176.156C542.552 177.172 543.211 178.346 542.799 180.247C542.371 182.228 542.206 184.267 541.842 186.365ZM541.086 183.424C541.164 181.89 541.298 180.356 541.284 178.822C541.28 178.394 540.935 177.815 540.572 177.594C540.296 177.427 539.572 177.57 539.343 177.833C538.618 178.668 537.87 179.55 537.42 180.545C536.037 183.596 535.245 186.785 534.938 190.166C534.687 192.931 533.8 195.638 533.197 198.371C533.024 199.157 532.824 199.939 532.691 200.732C532.337 202.847 532.007 204.965 531.682 207.084C531.615 207.516 531.609 207.957 531.574 208.394C532.057 208.091 532.782 207.9 532.983 207.467C534.509 204.171 536.025 200.863 537.359 197.486C538.303 195.097 539.037 192.614 539.707 190.131C540.027 188.948 539.89 187.647 540.129 186.433C540.309 185.515 540.757 184.649 541.086 183.424Z" fill="#00160A"/>
<path fill-rule="evenodd" clip-rule="evenodd" d="M133.813 263.232C132.599 263.008 131.56 262.741 130.505 262.57C128.867 262.306 127.198 262.204 125.58 261.859C123.619 261.44 121.683 260.888 119.763 260.303C118.027 259.774 116.326 259.128 114.617 258.514C114.556 258.492 114.508 258.183 114.554 258.152C114.934 257.888 115.317 257.494 115.736 257.443C119.191 257.023 122.109 259.018 125.339 259.657C128.028 260.189 130.658 261.03 133.353 261.512C135.174 261.837 137.066 261.747 138.922 261.901C139.782 261.973 140.631 262.179 141.483 262.335C143.703 262.743 145.911 263.244 148.145 263.541C149.987 263.786 151.873 263.693 153.714 263.937C155.122 264.123 156.5 264.572 157.876 264.957C160.549 265.707 163.213 266.492 165.879 267.268C166.045 267.316 166.197 267.411 166.356 267.485C166.204 267.523 166.049 267.606 165.901 267.594C164.299 267.458 162.691 267.357 161.098 267.149C159.219 266.903 157.354 266.547 155.479 266.271C154.482 266.123 153.476 266.037 152.473 265.932C150.27 265.701 148.056 265.552 145.868 265.226C143.96 264.941 142.096 264.37 140.188 264.092C138.256 263.811 136.294 263.74 134.347 263.555C134.216 263.543 134.103 263.344 133.813 263.232Z" fill="#00160A"/>
<path fill-rule="evenodd" clip-rule="evenodd" d="M345.19 100.088C348.044 99.0747 354.172 103.748 352.182 108.538C349.883 114.071 342.752 113.017 340.86 110.625C337.308 106.135 339.761 102.015 345.19 100.088ZM341.875 104.383C338.299 107.804 344.294 111.802 346.955 110.908C354.008 108.538 349.545 97.0429 341.875 104.383Z" fill="#00160A"/>
<path fill-rule="evenodd" clip-rule="evenodd" d="M542.346 194.261C544.063 191.117 545.446 187.872 548.46 185.817C548.822 185.57 549.548 185.26 549.688 185.399C550.075 185.783 550.457 186.388 550.461 186.909C550.501 191.772 547.336 195.402 545.438 199.509C544.436 201.676 543.007 203.646 541.751 205.693C541.501 206.102 541.19 206.485 540.853 206.827C540.538 207.145 539.88 207.672 539.836 207.629C539.307 207.115 538.638 206.573 538.461 205.916C538.284 205.257 538.539 204.436 538.749 203.729C539.499 201.203 540.274 198.683 541.123 196.189C541.35 195.523 541.874 194.957 542.346 194.261ZM540.582 201.066C540.358 202.298 540.128 203.529 539.913 204.762C539.86 205.067 539.856 205.38 539.83 205.69C540.136 205.423 540.551 205.216 540.734 204.881C543.099 200.551 545.48 196.228 547.741 191.843C548.362 190.639 548.624 189.244 548.991 187.92C549.04 187.742 548.776 187.33 548.583 187.272C548.368 187.208 547.925 187.347 547.828 187.529C545.449 191.975 543.102 196.438 540.582 201.066Z" fill="#00160A"/>
<path fill-rule="evenodd" clip-rule="evenodd" d="M357.915 84.6496C357.915 79.5914 368.864 83.6502 369.792 85.1159C370.024 85.4829 370.5 99.4166 369.686 97.4568C368.816 95.2643 369.418 86.4256 368.466 85.8175C365.388 84.2966 361.665 83.5111 360.201 84.0287C357.672 84.6213 360.365 95.3312 358.77 93.5174C358.677 93.2007 358.593 92.8814 358.49 92.5682C358.374 92.2156 357.915 87.1016 357.915 84.6496Z" fill="#00160A"/>
<path fill-rule="evenodd" clip-rule="evenodd" d="M405.328 65.6445C404.581 65.5134 403.783 65.5784 403.46 65.2179C401.916 63.4954 400.497 61.6605 399.044 59.8574C398.813 59.5706 398.634 59.2423 398.43 58.9332C399.121 58.8338 400.071 58.4018 400.453 58.6992C401.469 59.4907 402.337 60.5291 403.085 61.5946C403.985 62.877 404.701 64.2887 405.328 65.6445Z" fill="#00160A"/>
<path fill-rule="evenodd" clip-rule="evenodd" d="M364.332 85.612C364.371 85.1815 365.434 86.1383 365.462 86.4827C365.614 88.4095 366.358 96.9069 365.667 96.0116C365.275 95.1842 364.917 92.8866 364.745 91.9788C364.573 91.071 364.332 88.4519 364.332 85.612Z" fill="#00160A"/>
<path fill-rule="evenodd" clip-rule="evenodd" d="M380.918 125.494C380.895 127.444 380.962 129.393 380.918 131.342C380.891 132.494 377.8 132.951 376.44 132.264C375.077 131.575 375.503 126.291 375.427 125.494C375.188 122.996 375.09 120.477 374.708 118.001C374.456 116.371 374.29 114.409 375.066 114.158C377.886 113.246 380.393 116.758 380.269 116.882C380.593 119.409 380.921 125.218 380.918 125.494ZM376.766 119.914C376.878 120.371 377.021 128.332 377.216 131.171C377.249 131.642 379.069 131.642 379.464 130.817C379.842 128.542 379.053 120.41 379.069 117.696C379.072 117.261 378.523 116.64 378.074 116.419C376.594 115.688 376.328 115.894 376.44 117.535C376.487 118.22 376.654 118.897 376.766 119.914Z" fill="#00160A"/>
<path fill-rule="evenodd" clip-rule="evenodd" d="M281.913 166.05C282.359 165.877 282.861 166.099 283.033 166.546C283.206 166.992 282.984 167.494 282.537 167.667C262.691 175.333 262.691 190.341 282.878 213.481C300.929 234.171 334.683 253.313 384.133 270.858C384.584 271.018 384.82 271.514 384.66 271.965C384.5 272.416 384.004 272.652 383.553 272.492C333.848 254.855 299.858 235.58 281.572 214.62C260.701 190.697 260.701 174.244 281.913 166.05Z" fill="#E7EAEE"/>
<path d="M315.42 267.312C315.577 266.86 316.07 266.62 316.522 266.776C316.975 266.933 317.215 267.426 317.058 267.879C313.206 279.017 306.172 288.299 295.975 295.708C285.813 303.093 269.022 309.777 245.583 315.789C245.119 315.908 244.647 315.629 244.528 315.165C244.409 314.701 244.688 314.229 245.152 314.11L246.782 313.688C269.176 307.836 285.241 301.366 294.956 294.306C304.871 287.101 311.686 278.109 315.42 267.312Z" fill="#09EEE3"/>
<path fill-rule="evenodd" clip-rule="evenodd" d="M316.383 276.799C316.492 276.333 316.958 276.043 317.424 276.152C317.89 276.261 318.18 276.727 318.071 277.193C314.595 292.091 307.198 302.751 295.891 309.113C284.72 315.398 272.681 319.672 259.778 321.936C259.306 322.019 258.857 321.703 258.774 321.232C258.692 320.761 259.007 320.311 259.478 320.229C272.189 317.999 284.042 313.79 295.041 307.602C305.902 301.491 313.013 291.244 316.383 276.799Z" fill="#E7EAEE"/>
<path fill-rule="evenodd" clip-rule="evenodd" d="M370.624 275.926C370.736 275.461 371.204 275.174 371.669 275.286C388.788 279.408 403.943 281.71 417.131 282.193L418.12 282.226C431.293 282.624 450.322 281.571 475.194 279.067C475.67 279.019 476.095 279.366 476.143 279.843C476.191 280.319 475.844 280.744 475.367 280.792L471.624 281.162C447.89 283.466 429.708 284.387 417.067 283.925C403.755 283.437 388.488 281.119 371.263 276.972C370.798 276.86 370.512 276.392 370.624 275.926Z" fill="#E7EAEE"/>
<path fill-rule="evenodd" clip-rule="evenodd" d="M243.965 174.003C244.357 173.728 244.897 173.822 245.173 174.214C245.448 174.605 245.354 175.146 244.962 175.421C240.145 178.806 237.618 182.228 237.298 185.664C236.975 189.141 238.919 193.936 243.186 199.988C243.462 200.379 243.368 200.92 242.977 201.195C242.586 201.471 242.045 201.378 241.769 200.987C237.286 194.629 235.202 189.488 235.572 185.504C235.947 181.478 238.772 177.652 243.965 174.003Z" fill="#00160A"/>
<path fill-rule="evenodd" clip-rule="evenodd" d="M245.831 177.98C246.108 177.785 246.491 177.852 246.685 178.129C246.88 178.406 246.813 178.789 246.536 178.983C243.128 181.378 241.341 183.799 241.114 186.23C240.885 188.69 242.261 192.083 245.28 196.364C245.475 196.641 245.409 197.023 245.132 197.218C244.855 197.414 244.473 197.347 244.278 197.071C241.106 192.572 239.631 188.935 239.893 186.117C240.158 183.269 242.157 180.562 245.831 177.98Z" fill="#00160A"/>
</svg>
