<svg width="22" height="14" viewBox="0 0 22 14" fill="none" xmlns="http://www.w3.org/2000/svg">
<path d="M2 0.5C0.89 0.5 0 1.39 0 2.5V10.5H2C2 11.2956 2.31607 12.0587 2.87868 12.6213C3.44129 13.1839 4.20435 13.5 5 13.5C5.79565 13.5 6.55871 13.1839 7.12132 12.6213C7.68393 12.0587 8 11.2956 8 10.5H14C14 11.2956 14.3161 12.0587 14.8787 12.6213C15.4413 13.1839 16.2044 13.5 17 13.5C17.7956 13.5 18.5587 13.1839 19.1213 12.6213C19.6839 12.0587 20 11.2956 20 10.5H22V6.5C22 5.39 21.11 4.5 20 4.5L17 0.5H2ZM2 2H6V4.5H2V2ZM8 2H12V4.5H8V2ZM14 2H16.5L18.46 4.5H14V2ZM5 9C5.39782 9 5.77936 9.15804 6.06066 9.43934C6.34196 9.72064 6.5 10.1022 6.5 10.5C6.5 10.8978 6.34196 11.2794 6.06066 11.5607C5.77936 11.842 5.39782 12 5 12C4.60218 12 4.22064 11.842 3.93934 11.5607C3.65804 11.2794 3.5 10.8978 3.5 10.5C3.5 10.1022 3.65804 9.72064 3.93934 9.43934C4.22064 9.15804 4.60218 9 5 9ZM17 9C17.3978 9 17.7794 9.15804 18.0607 9.43934C18.342 9.72064 18.5 10.1022 18.5 10.5C18.5 10.8978 18.342 11.2794 18.0607 11.5607C17.7794 11.842 17.3978 12 17 12C16.6022 12 16.2206 11.842 15.9393 11.5607C15.658 11.2794 15.5 10.8978 15.5 10.5C15.5 10.1022 15.658 9.72064 15.9393 9.43934C16.2206 9.15804 16.6022 9 17 9Z" fill="black"/>
</svg>
