<svg width="20" height="21" viewBox="0 0 20 21" fill="none" xmlns="http://www.w3.org/2000/svg">
<path d="M2.79161 7.0608C-0.108793 9.3504 -0.184393 13.2312 1.17521 15.8448C2.08841 17.6016 3.84521 19.1652 6.48041 19.1652C7.13441 19.1652 7.60601 19.1472 7.97801 19.134C9.10241 19.0908 9.30641 19.0836 10.8724 19.71C12.9556 20.5428 15.1708 20.2956 17.0212 19.1388C18.6868 18.0972 19.6432 15.6804 19.4812 13.7184C19.384 12.54 19.4716 12.0792 19.5844 11.484C19.66 11.088 19.7464 10.6344 19.798 9.8712C19.9264 7.9572 19.024 6.1608 18.5332 5.304C18.0412 4.4472 17.2132 3.108 15.2644 1.878C13.6648 0.867595 10.6348 0.383995 8.23721 1.70279C6.48041 2.66879 5.60201 3.5472 4.54841 5.3028C4.14881 5.9688 3.76601 6.2904 2.79161 7.0608ZM15.88 11.058C15.88 11.7663 15.7405 12.4678 15.4694 13.1222C15.1983 13.7766 14.801 14.3713 14.3001 14.8721C13.7993 15.373 13.2046 15.7703 12.5502 16.0414C11.8958 16.3125 11.1944 16.452 10.486 16.452C9.77765 16.452 9.07624 16.3125 8.42181 16.0414C7.76738 15.7703 7.17275 15.373 6.67187 14.8721C6.17099 14.3713 5.77367 13.7766 5.5026 13.1222C5.23153 12.4678 5.09201 11.7663 5.09201 11.058C5.09201 9.62742 5.6603 8.25543 6.67187 7.24386C7.68344 6.23229 9.05543 5.664 10.486 5.664C11.9166 5.664 13.2886 6.23229 14.3001 7.24386C15.3117 8.25543 15.88 9.62742 15.88 11.058Z" fill="black"/>
</svg>
